%TF.GenerationSoftware,KiCad,Pcbnew,8.0.0*%
%TF.CreationDate,2025-03-21T12:44:53+01:00*%
%TF.ProjectId,CAN,43414e2e-6b69-4636-9164-5f7063625858,rev?*%
%TF.SameCoordinates,Original*%
%TF.FileFunction,Copper,L2,Bot*%
%TF.FilePolarity,Positive*%
%FSLAX46Y46*%
G04 Gerber Fmt 4.6, Leading zero omitted, Abs format (unit mm)*
G04 Created by KiCad (PCBNEW 8.0.0) date 2025-03-21 12:44:53*
%MOMM*%
%LPD*%
G01*
G04 APERTURE LIST*
G04 Aperture macros list*
%AMRoundRect*
0 Rectangle with rounded corners*
0 $1 Rounding radius*
0 $2 $3 $4 $5 $6 $7 $8 $9 X,Y pos of 4 corners*
0 Add a 4 corners polygon primitive as box body*
4,1,4,$2,$3,$4,$5,$6,$7,$8,$9,$2,$3,0*
0 Add four circle primitives for the rounded corners*
1,1,$1+$1,$2,$3*
1,1,$1+$1,$4,$5*
1,1,$1+$1,$6,$7*
1,1,$1+$1,$8,$9*
0 Add four rect primitives between the rounded corners*
20,1,$1+$1,$2,$3,$4,$5,0*
20,1,$1+$1,$4,$5,$6,$7,0*
20,1,$1+$1,$6,$7,$8,$9,0*
20,1,$1+$1,$8,$9,$2,$3,0*%
G04 Aperture macros list end*
%ADD10C,0.300000*%
%TA.AperFunction,NonConductor*%
%ADD11C,0.300000*%
%TD*%
%TA.AperFunction,ComponentPad*%
%ADD12C,4.200000*%
%TD*%
%TA.AperFunction,ComponentPad*%
%ADD13R,2.000000X1.500000*%
%TD*%
%TA.AperFunction,ComponentPad*%
%ADD14O,2.000000X1.500000*%
%TD*%
%TA.AperFunction,ComponentPad*%
%ADD15R,2.400000X1.600000*%
%TD*%
%TA.AperFunction,ComponentPad*%
%ADD16O,2.400000X1.600000*%
%TD*%
%TA.AperFunction,ComponentPad*%
%ADD17R,3.000000X3.000000*%
%TD*%
%TA.AperFunction,ComponentPad*%
%ADD18C,3.000000*%
%TD*%
%TA.AperFunction,ComponentPad*%
%ADD19C,2.000000*%
%TD*%
%TA.AperFunction,ComponentPad*%
%ADD20R,1.600000X1.600000*%
%TD*%
%TA.AperFunction,ComponentPad*%
%ADD21O,1.600000X1.600000*%
%TD*%
%TA.AperFunction,ComponentPad*%
%ADD22R,1.910000X1.910000*%
%TD*%
%TA.AperFunction,ComponentPad*%
%ADD23C,1.910000*%
%TD*%
%TA.AperFunction,ComponentPad*%
%ADD24R,2.000000X2.500000*%
%TD*%
%TA.AperFunction,ComponentPad*%
%ADD25O,2.000000X2.500000*%
%TD*%
%TA.AperFunction,ComponentPad*%
%ADD26R,2.000000X2.000000*%
%TD*%
%TA.AperFunction,ComponentPad*%
%ADD27R,1.600000X2.400000*%
%TD*%
%TA.AperFunction,ComponentPad*%
%ADD28O,1.600000X2.400000*%
%TD*%
%TA.AperFunction,ComponentPad*%
%ADD29R,1.700000X1.700000*%
%TD*%
%TA.AperFunction,ComponentPad*%
%ADD30O,1.700000X1.700000*%
%TD*%
%TA.AperFunction,ComponentPad*%
%ADD31C,2.500000*%
%TD*%
%TA.AperFunction,ComponentPad*%
%ADD32RoundRect,0.500000X0.500000X-0.500000X0.500000X0.500000X-0.500000X0.500000X-0.500000X-0.500000X0*%
%TD*%
%TA.AperFunction,ComponentPad*%
%ADD33R,2.500000X2.000000*%
%TD*%
%TA.AperFunction,ComponentPad*%
%ADD34O,2.500000X2.000000*%
%TD*%
%TA.AperFunction,ViaPad*%
%ADD35C,2.000000*%
%TD*%
%TA.AperFunction,Conductor*%
%ADD36C,0.700000*%
%TD*%
%TA.AperFunction,Conductor*%
%ADD37C,0.800000*%
%TD*%
G04 APERTURE END LIST*
D10*
D11*
X166959774Y-95041794D02*
X166959774Y-95756080D01*
X167459774Y-94256080D02*
X166959774Y-95041794D01*
X166959774Y-95041794D02*
X166459774Y-94256080D01*
X165745489Y-95756080D02*
X165888346Y-95684652D01*
X165888346Y-95684652D02*
X165959775Y-95613223D01*
X165959775Y-95613223D02*
X166031203Y-95470366D01*
X166031203Y-95470366D02*
X166031203Y-95041794D01*
X166031203Y-95041794D02*
X165959775Y-94898937D01*
X165959775Y-94898937D02*
X165888346Y-94827509D01*
X165888346Y-94827509D02*
X165745489Y-94756080D01*
X165745489Y-94756080D02*
X165531203Y-94756080D01*
X165531203Y-94756080D02*
X165388346Y-94827509D01*
X165388346Y-94827509D02*
X165316918Y-94898937D01*
X165316918Y-94898937D02*
X165245489Y-95041794D01*
X165245489Y-95041794D02*
X165245489Y-95470366D01*
X165245489Y-95470366D02*
X165316918Y-95613223D01*
X165316918Y-95613223D02*
X165388346Y-95684652D01*
X165388346Y-95684652D02*
X165531203Y-95756080D01*
X165531203Y-95756080D02*
X165745489Y-95756080D01*
X163959775Y-95756080D02*
X163959775Y-94970366D01*
X163959775Y-94970366D02*
X164031203Y-94827509D01*
X164031203Y-94827509D02*
X164174060Y-94756080D01*
X164174060Y-94756080D02*
X164459775Y-94756080D01*
X164459775Y-94756080D02*
X164602632Y-94827509D01*
X163959775Y-95684652D02*
X164102632Y-95756080D01*
X164102632Y-95756080D02*
X164459775Y-95756080D01*
X164459775Y-95756080D02*
X164602632Y-95684652D01*
X164602632Y-95684652D02*
X164674060Y-95541794D01*
X164674060Y-95541794D02*
X164674060Y-95398937D01*
X164674060Y-95398937D02*
X164602632Y-95256080D01*
X164602632Y-95256080D02*
X164459775Y-95184652D01*
X164459775Y-95184652D02*
X164102632Y-95184652D01*
X164102632Y-95184652D02*
X163959775Y-95113223D01*
X163245489Y-94756080D02*
X163245489Y-95756080D01*
X163245489Y-94898937D02*
X163174060Y-94827509D01*
X163174060Y-94827509D02*
X163031203Y-94756080D01*
X163031203Y-94756080D02*
X162816917Y-94756080D01*
X162816917Y-94756080D02*
X162674060Y-94827509D01*
X162674060Y-94827509D02*
X162602632Y-94970366D01*
X162602632Y-94970366D02*
X162602632Y-95756080D01*
X161888346Y-94756080D02*
X161888346Y-95756080D01*
X161888346Y-94898937D02*
X161816917Y-94827509D01*
X161816917Y-94827509D02*
X161674060Y-94756080D01*
X161674060Y-94756080D02*
X161459774Y-94756080D01*
X161459774Y-94756080D02*
X161316917Y-94827509D01*
X161316917Y-94827509D02*
X161245489Y-94970366D01*
X161245489Y-94970366D02*
X161245489Y-95756080D01*
X158674060Y-95756080D02*
X159388346Y-95756080D01*
X159388346Y-95756080D02*
X159388346Y-94256080D01*
X158245488Y-95327509D02*
X157531203Y-95327509D01*
X158388345Y-95756080D02*
X157888345Y-94256080D01*
X157888345Y-94256080D02*
X157388345Y-95756080D01*
X156888346Y-94256080D02*
X156888346Y-95470366D01*
X156888346Y-95470366D02*
X156816917Y-95613223D01*
X156816917Y-95613223D02*
X156745489Y-95684652D01*
X156745489Y-95684652D02*
X156602631Y-95756080D01*
X156602631Y-95756080D02*
X156316917Y-95756080D01*
X156316917Y-95756080D02*
X156174060Y-95684652D01*
X156174060Y-95684652D02*
X156102631Y-95613223D01*
X156102631Y-95613223D02*
X156031203Y-95470366D01*
X156031203Y-95470366D02*
X156031203Y-94256080D01*
X154459774Y-95756080D02*
X154959774Y-95041794D01*
X155316917Y-95756080D02*
X155316917Y-94256080D01*
X155316917Y-94256080D02*
X154745488Y-94256080D01*
X154745488Y-94256080D02*
X154602631Y-94327509D01*
X154602631Y-94327509D02*
X154531202Y-94398937D01*
X154531202Y-94398937D02*
X154459774Y-94541794D01*
X154459774Y-94541794D02*
X154459774Y-94756080D01*
X154459774Y-94756080D02*
X154531202Y-94898937D01*
X154531202Y-94898937D02*
X154602631Y-94970366D01*
X154602631Y-94970366D02*
X154745488Y-95041794D01*
X154745488Y-95041794D02*
X155316917Y-95041794D01*
X153531202Y-95041794D02*
X153531202Y-95756080D01*
X154031202Y-94256080D02*
X153531202Y-95041794D01*
X153531202Y-95041794D02*
X153031202Y-94256080D01*
X167459774Y-96670996D02*
X166602632Y-96670996D01*
X167031203Y-98170996D02*
X167031203Y-96670996D01*
X166102632Y-98170996D02*
X166102632Y-96670996D01*
X165459775Y-98170996D02*
X165459775Y-97385282D01*
X165459775Y-97385282D02*
X165531203Y-97242425D01*
X165531203Y-97242425D02*
X165674060Y-97170996D01*
X165674060Y-97170996D02*
X165888346Y-97170996D01*
X165888346Y-97170996D02*
X166031203Y-97242425D01*
X166031203Y-97242425D02*
X166102632Y-97313853D01*
X164174060Y-98099568D02*
X164316917Y-98170996D01*
X164316917Y-98170996D02*
X164602632Y-98170996D01*
X164602632Y-98170996D02*
X164745489Y-98099568D01*
X164745489Y-98099568D02*
X164816917Y-97956710D01*
X164816917Y-97956710D02*
X164816917Y-97385282D01*
X164816917Y-97385282D02*
X164745489Y-97242425D01*
X164745489Y-97242425D02*
X164602632Y-97170996D01*
X164602632Y-97170996D02*
X164316917Y-97170996D01*
X164316917Y-97170996D02*
X164174060Y-97242425D01*
X164174060Y-97242425D02*
X164102632Y-97385282D01*
X164102632Y-97385282D02*
X164102632Y-97528139D01*
X164102632Y-97528139D02*
X164816917Y-97670996D01*
X164316917Y-96599568D02*
X164531203Y-96813853D01*
X163245489Y-98170996D02*
X163388346Y-98099568D01*
X163388346Y-98099568D02*
X163459775Y-98028139D01*
X163459775Y-98028139D02*
X163531203Y-97885282D01*
X163531203Y-97885282D02*
X163531203Y-97456710D01*
X163531203Y-97456710D02*
X163459775Y-97313853D01*
X163459775Y-97313853D02*
X163388346Y-97242425D01*
X163388346Y-97242425D02*
X163245489Y-97170996D01*
X163245489Y-97170996D02*
X163031203Y-97170996D01*
X163031203Y-97170996D02*
X162888346Y-97242425D01*
X162888346Y-97242425D02*
X162816918Y-97313853D01*
X162816918Y-97313853D02*
X162745489Y-97456710D01*
X162745489Y-97456710D02*
X162745489Y-97885282D01*
X162745489Y-97885282D02*
X162816918Y-98028139D01*
X162816918Y-98028139D02*
X162888346Y-98099568D01*
X162888346Y-98099568D02*
X163031203Y-98170996D01*
X163031203Y-98170996D02*
X163245489Y-98170996D01*
X161031203Y-97742425D02*
X160316918Y-97742425D01*
X161174060Y-98170996D02*
X160674060Y-96670996D01*
X160674060Y-96670996D02*
X160174060Y-98170996D01*
X159674061Y-98170996D02*
X159674061Y-96670996D01*
X159674061Y-96670996D02*
X158816918Y-98170996D01*
X158816918Y-98170996D02*
X158816918Y-96670996D01*
X158102632Y-98170996D02*
X158102632Y-96670996D01*
X158102632Y-96670996D02*
X157745489Y-96670996D01*
X157745489Y-96670996D02*
X157531203Y-96742425D01*
X157531203Y-96742425D02*
X157388346Y-96885282D01*
X157388346Y-96885282D02*
X157316917Y-97028139D01*
X157316917Y-97028139D02*
X157245489Y-97313853D01*
X157245489Y-97313853D02*
X157245489Y-97528139D01*
X157245489Y-97528139D02*
X157316917Y-97813853D01*
X157316917Y-97813853D02*
X157388346Y-97956710D01*
X157388346Y-97956710D02*
X157531203Y-98099568D01*
X157531203Y-98099568D02*
X157745489Y-98170996D01*
X157745489Y-98170996D02*
X158102632Y-98170996D01*
X155745489Y-98170996D02*
X156245489Y-97456710D01*
X156602632Y-98170996D02*
X156602632Y-96670996D01*
X156602632Y-96670996D02*
X156031203Y-96670996D01*
X156031203Y-96670996D02*
X155888346Y-96742425D01*
X155888346Y-96742425D02*
X155816917Y-96813853D01*
X155816917Y-96813853D02*
X155745489Y-96956710D01*
X155745489Y-96956710D02*
X155745489Y-97170996D01*
X155745489Y-97170996D02*
X155816917Y-97313853D01*
X155816917Y-97313853D02*
X155888346Y-97385282D01*
X155888346Y-97385282D02*
X156031203Y-97456710D01*
X156031203Y-97456710D02*
X156602632Y-97456710D01*
X155102632Y-98170996D02*
X155102632Y-96670996D01*
X153531203Y-98028139D02*
X153602631Y-98099568D01*
X153602631Y-98099568D02*
X153816917Y-98170996D01*
X153816917Y-98170996D02*
X153959774Y-98170996D01*
X153959774Y-98170996D02*
X154174060Y-98099568D01*
X154174060Y-98099568D02*
X154316917Y-97956710D01*
X154316917Y-97956710D02*
X154388346Y-97813853D01*
X154388346Y-97813853D02*
X154459774Y-97528139D01*
X154459774Y-97528139D02*
X154459774Y-97313853D01*
X154459774Y-97313853D02*
X154388346Y-97028139D01*
X154388346Y-97028139D02*
X154316917Y-96885282D01*
X154316917Y-96885282D02*
X154174060Y-96742425D01*
X154174060Y-96742425D02*
X153959774Y-96670996D01*
X153959774Y-96670996D02*
X153816917Y-96670996D01*
X153816917Y-96670996D02*
X153602631Y-96742425D01*
X153602631Y-96742425D02*
X153531203Y-96813853D01*
X151888346Y-98313853D02*
X152031203Y-98242425D01*
X152031203Y-98242425D02*
X152174060Y-98099568D01*
X152174060Y-98099568D02*
X152388346Y-97885282D01*
X152388346Y-97885282D02*
X152531203Y-97813853D01*
X152531203Y-97813853D02*
X152674060Y-97813853D01*
X152602631Y-98170996D02*
X152745489Y-98099568D01*
X152745489Y-98099568D02*
X152888346Y-97956710D01*
X152888346Y-97956710D02*
X152959774Y-97670996D01*
X152959774Y-97670996D02*
X152959774Y-97170996D01*
X152959774Y-97170996D02*
X152888346Y-96885282D01*
X152888346Y-96885282D02*
X152745489Y-96742425D01*
X152745489Y-96742425D02*
X152602631Y-96670996D01*
X152602631Y-96670996D02*
X152316917Y-96670996D01*
X152316917Y-96670996D02*
X152174060Y-96742425D01*
X152174060Y-96742425D02*
X152031203Y-96885282D01*
X152031203Y-96885282D02*
X151959774Y-97170996D01*
X151959774Y-97170996D02*
X151959774Y-97670996D01*
X151959774Y-97670996D02*
X152031203Y-97956710D01*
X152031203Y-97956710D02*
X152174060Y-98099568D01*
X152174060Y-98099568D02*
X152316917Y-98170996D01*
X152316917Y-98170996D02*
X152602631Y-98170996D01*
X166531203Y-100585912D02*
X167245489Y-100585912D01*
X167245489Y-100585912D02*
X167245489Y-99085912D01*
X165388346Y-99585912D02*
X165388346Y-100585912D01*
X166031203Y-99585912D02*
X166031203Y-100371626D01*
X166031203Y-100371626D02*
X165959774Y-100514484D01*
X165959774Y-100514484D02*
X165816917Y-100585912D01*
X165816917Y-100585912D02*
X165602631Y-100585912D01*
X165602631Y-100585912D02*
X165459774Y-100514484D01*
X165459774Y-100514484D02*
X165388346Y-100443055D01*
X164031203Y-100514484D02*
X164174060Y-100585912D01*
X164174060Y-100585912D02*
X164459774Y-100585912D01*
X164459774Y-100585912D02*
X164602631Y-100514484D01*
X164602631Y-100514484D02*
X164674060Y-100443055D01*
X164674060Y-100443055D02*
X164745488Y-100300198D01*
X164745488Y-100300198D02*
X164745488Y-99871626D01*
X164745488Y-99871626D02*
X164674060Y-99728769D01*
X164674060Y-99728769D02*
X164602631Y-99657341D01*
X164602631Y-99657341D02*
X164459774Y-99585912D01*
X164459774Y-99585912D02*
X164174060Y-99585912D01*
X164174060Y-99585912D02*
X164031203Y-99657341D01*
X162745489Y-100585912D02*
X162745489Y-99800198D01*
X162745489Y-99800198D02*
X162816917Y-99657341D01*
X162816917Y-99657341D02*
X162959774Y-99585912D01*
X162959774Y-99585912D02*
X163245489Y-99585912D01*
X163245489Y-99585912D02*
X163388346Y-99657341D01*
X162745489Y-100514484D02*
X162888346Y-100585912D01*
X162888346Y-100585912D02*
X163245489Y-100585912D01*
X163245489Y-100585912D02*
X163388346Y-100514484D01*
X163388346Y-100514484D02*
X163459774Y-100371626D01*
X163459774Y-100371626D02*
X163459774Y-100228769D01*
X163459774Y-100228769D02*
X163388346Y-100085912D01*
X163388346Y-100085912D02*
X163245489Y-100014484D01*
X163245489Y-100014484D02*
X162888346Y-100014484D01*
X162888346Y-100014484D02*
X162745489Y-99943055D01*
X162102631Y-100514484D02*
X161959774Y-100585912D01*
X161959774Y-100585912D02*
X161674060Y-100585912D01*
X161674060Y-100585912D02*
X161531203Y-100514484D01*
X161531203Y-100514484D02*
X161459774Y-100371626D01*
X161459774Y-100371626D02*
X161459774Y-100300198D01*
X161459774Y-100300198D02*
X161531203Y-100157341D01*
X161531203Y-100157341D02*
X161674060Y-100085912D01*
X161674060Y-100085912D02*
X161888346Y-100085912D01*
X161888346Y-100085912D02*
X162031203Y-100014484D01*
X162031203Y-100014484D02*
X162102631Y-99871626D01*
X162102631Y-99871626D02*
X162102631Y-99800198D01*
X162102631Y-99800198D02*
X162031203Y-99657341D01*
X162031203Y-99657341D02*
X161888346Y-99585912D01*
X161888346Y-99585912D02*
X161674060Y-99585912D01*
X161674060Y-99585912D02*
X161531203Y-99657341D01*
X159674060Y-100585912D02*
X159674060Y-99085912D01*
X159674060Y-99085912D02*
X159102631Y-99085912D01*
X159102631Y-99085912D02*
X158959774Y-99157341D01*
X158959774Y-99157341D02*
X158888345Y-99228769D01*
X158888345Y-99228769D02*
X158816917Y-99371626D01*
X158816917Y-99371626D02*
X158816917Y-99585912D01*
X158816917Y-99585912D02*
X158888345Y-99728769D01*
X158888345Y-99728769D02*
X158959774Y-99800198D01*
X158959774Y-99800198D02*
X159102631Y-99871626D01*
X159102631Y-99871626D02*
X159674060Y-99871626D01*
X157888345Y-99085912D02*
X157602631Y-99085912D01*
X157602631Y-99085912D02*
X157459774Y-99157341D01*
X157459774Y-99157341D02*
X157316917Y-99300198D01*
X157316917Y-99300198D02*
X157245488Y-99585912D01*
X157245488Y-99585912D02*
X157245488Y-100085912D01*
X157245488Y-100085912D02*
X157316917Y-100371626D01*
X157316917Y-100371626D02*
X157459774Y-100514484D01*
X157459774Y-100514484D02*
X157602631Y-100585912D01*
X157602631Y-100585912D02*
X157888345Y-100585912D01*
X157888345Y-100585912D02*
X158031203Y-100514484D01*
X158031203Y-100514484D02*
X158174060Y-100371626D01*
X158174060Y-100371626D02*
X158245488Y-100085912D01*
X158245488Y-100085912D02*
X158245488Y-99585912D01*
X158245488Y-99585912D02*
X158174060Y-99300198D01*
X158174060Y-99300198D02*
X158031203Y-99157341D01*
X158031203Y-99157341D02*
X157888345Y-99085912D01*
X156602631Y-100585912D02*
X156602631Y-99085912D01*
X156602631Y-99085912D02*
X155745488Y-100585912D01*
X155745488Y-100585912D02*
X155745488Y-99085912D01*
X154174059Y-100443055D02*
X154245487Y-100514484D01*
X154245487Y-100514484D02*
X154459773Y-100585912D01*
X154459773Y-100585912D02*
X154602630Y-100585912D01*
X154602630Y-100585912D02*
X154816916Y-100514484D01*
X154816916Y-100514484D02*
X154959773Y-100371626D01*
X154959773Y-100371626D02*
X155031202Y-100228769D01*
X155031202Y-100228769D02*
X155102630Y-99943055D01*
X155102630Y-99943055D02*
X155102630Y-99728769D01*
X155102630Y-99728769D02*
X155031202Y-99443055D01*
X155031202Y-99443055D02*
X154959773Y-99300198D01*
X154959773Y-99300198D02*
X154816916Y-99157341D01*
X154816916Y-99157341D02*
X154602630Y-99085912D01*
X154602630Y-99085912D02*
X154459773Y-99085912D01*
X154459773Y-99085912D02*
X154245487Y-99157341D01*
X154245487Y-99157341D02*
X154174059Y-99228769D01*
X153531202Y-99800198D02*
X153031202Y-99800198D01*
X152816916Y-100585912D02*
X153531202Y-100585912D01*
X153531202Y-100585912D02*
X153531202Y-99085912D01*
X153531202Y-99085912D02*
X152816916Y-99085912D01*
X152388344Y-99085912D02*
X151531202Y-99085912D01*
X151959773Y-100585912D02*
X151959773Y-99085912D01*
X166459774Y-101572257D02*
X166602632Y-101500828D01*
X166602632Y-101500828D02*
X166816917Y-101500828D01*
X166816917Y-101500828D02*
X167031203Y-101572257D01*
X167031203Y-101572257D02*
X167174060Y-101715114D01*
X167174060Y-101715114D02*
X167245489Y-101857971D01*
X167245489Y-101857971D02*
X167316917Y-102143685D01*
X167316917Y-102143685D02*
X167316917Y-102357971D01*
X167316917Y-102357971D02*
X167245489Y-102643685D01*
X167245489Y-102643685D02*
X167174060Y-102786542D01*
X167174060Y-102786542D02*
X167031203Y-102929400D01*
X167031203Y-102929400D02*
X166816917Y-103000828D01*
X166816917Y-103000828D02*
X166674060Y-103000828D01*
X166674060Y-103000828D02*
X166459774Y-102929400D01*
X166459774Y-102929400D02*
X166388346Y-102857971D01*
X166388346Y-102857971D02*
X166388346Y-102357971D01*
X166388346Y-102357971D02*
X166674060Y-102357971D01*
X165745489Y-103000828D02*
X165745489Y-102000828D01*
X165745489Y-102286542D02*
X165674060Y-102143685D01*
X165674060Y-102143685D02*
X165602632Y-102072257D01*
X165602632Y-102072257D02*
X165459774Y-102000828D01*
X165459774Y-102000828D02*
X165316917Y-102000828D01*
X164174061Y-101500828D02*
X164459775Y-101500828D01*
X164459775Y-101500828D02*
X164602632Y-101572257D01*
X164602632Y-101572257D02*
X164674061Y-101643685D01*
X164674061Y-101643685D02*
X164816918Y-101857971D01*
X164816918Y-101857971D02*
X164888346Y-102143685D01*
X164888346Y-102143685D02*
X164888346Y-102715114D01*
X164888346Y-102715114D02*
X164816918Y-102857971D01*
X164816918Y-102857971D02*
X164745489Y-102929400D01*
X164745489Y-102929400D02*
X164602632Y-103000828D01*
X164602632Y-103000828D02*
X164316918Y-103000828D01*
X164316918Y-103000828D02*
X164174061Y-102929400D01*
X164174061Y-102929400D02*
X164102632Y-102857971D01*
X164102632Y-102857971D02*
X164031203Y-102715114D01*
X164031203Y-102715114D02*
X164031203Y-102357971D01*
X164031203Y-102357971D02*
X164102632Y-102215114D01*
X164102632Y-102215114D02*
X164174061Y-102143685D01*
X164174061Y-102143685D02*
X164316918Y-102072257D01*
X164316918Y-102072257D02*
X164602632Y-102072257D01*
X164602632Y-102072257D02*
X164745489Y-102143685D01*
X164745489Y-102143685D02*
X164816918Y-102215114D01*
X164816918Y-102215114D02*
X164888346Y-102357971D01*
X163102632Y-101500828D02*
X162959775Y-101500828D01*
X162959775Y-101500828D02*
X162816918Y-101572257D01*
X162816918Y-101572257D02*
X162745490Y-101643685D01*
X162745490Y-101643685D02*
X162674061Y-101786542D01*
X162674061Y-101786542D02*
X162602632Y-102072257D01*
X162602632Y-102072257D02*
X162602632Y-102429400D01*
X162602632Y-102429400D02*
X162674061Y-102715114D01*
X162674061Y-102715114D02*
X162745490Y-102857971D01*
X162745490Y-102857971D02*
X162816918Y-102929400D01*
X162816918Y-102929400D02*
X162959775Y-103000828D01*
X162959775Y-103000828D02*
X163102632Y-103000828D01*
X163102632Y-103000828D02*
X163245490Y-102929400D01*
X163245490Y-102929400D02*
X163316918Y-102857971D01*
X163316918Y-102857971D02*
X163388347Y-102715114D01*
X163388347Y-102715114D02*
X163459775Y-102429400D01*
X163459775Y-102429400D02*
X163459775Y-102072257D01*
X163459775Y-102072257D02*
X163388347Y-101786542D01*
X163388347Y-101786542D02*
X163316918Y-101643685D01*
X163316918Y-101643685D02*
X163245490Y-101572257D01*
X163245490Y-101572257D02*
X163102632Y-101500828D01*
X161316919Y-101500828D02*
X161602633Y-101500828D01*
X161602633Y-101500828D02*
X161745490Y-101572257D01*
X161745490Y-101572257D02*
X161816919Y-101643685D01*
X161816919Y-101643685D02*
X161959776Y-101857971D01*
X161959776Y-101857971D02*
X162031204Y-102143685D01*
X162031204Y-102143685D02*
X162031204Y-102715114D01*
X162031204Y-102715114D02*
X161959776Y-102857971D01*
X161959776Y-102857971D02*
X161888347Y-102929400D01*
X161888347Y-102929400D02*
X161745490Y-103000828D01*
X161745490Y-103000828D02*
X161459776Y-103000828D01*
X161459776Y-103000828D02*
X161316919Y-102929400D01*
X161316919Y-102929400D02*
X161245490Y-102857971D01*
X161245490Y-102857971D02*
X161174061Y-102715114D01*
X161174061Y-102715114D02*
X161174061Y-102357971D01*
X161174061Y-102357971D02*
X161245490Y-102215114D01*
X161245490Y-102215114D02*
X161316919Y-102143685D01*
X161316919Y-102143685D02*
X161459776Y-102072257D01*
X161459776Y-102072257D02*
X161745490Y-102072257D01*
X161745490Y-102072257D02*
X161888347Y-102143685D01*
X161888347Y-102143685D02*
X161959776Y-102215114D01*
X161959776Y-102215114D02*
X162031204Y-102357971D01*
X159459776Y-101429400D02*
X160745490Y-103357971D01*
X158245490Y-103000828D02*
X158959776Y-103000828D01*
X158959776Y-103000828D02*
X158959776Y-101500828D01*
X157745490Y-103000828D02*
X157745490Y-101500828D01*
X157745490Y-101500828D02*
X157174061Y-101500828D01*
X157174061Y-101500828D02*
X157031204Y-101572257D01*
X157031204Y-101572257D02*
X156959775Y-101643685D01*
X156959775Y-101643685D02*
X156888347Y-101786542D01*
X156888347Y-101786542D02*
X156888347Y-102000828D01*
X156888347Y-102000828D02*
X156959775Y-102143685D01*
X156959775Y-102143685D02*
X157031204Y-102215114D01*
X157031204Y-102215114D02*
X157174061Y-102286542D01*
X157174061Y-102286542D02*
X157745490Y-102286542D01*
X154316918Y-101572257D02*
X154459776Y-101500828D01*
X154459776Y-101500828D02*
X154674061Y-101500828D01*
X154674061Y-101500828D02*
X154888347Y-101572257D01*
X154888347Y-101572257D02*
X155031204Y-101715114D01*
X155031204Y-101715114D02*
X155102633Y-101857971D01*
X155102633Y-101857971D02*
X155174061Y-102143685D01*
X155174061Y-102143685D02*
X155174061Y-102357971D01*
X155174061Y-102357971D02*
X155102633Y-102643685D01*
X155102633Y-102643685D02*
X155031204Y-102786542D01*
X155031204Y-102786542D02*
X154888347Y-102929400D01*
X154888347Y-102929400D02*
X154674061Y-103000828D01*
X154674061Y-103000828D02*
X154531204Y-103000828D01*
X154531204Y-103000828D02*
X154316918Y-102929400D01*
X154316918Y-102929400D02*
X154245490Y-102857971D01*
X154245490Y-102857971D02*
X154245490Y-102357971D01*
X154245490Y-102357971D02*
X154531204Y-102357971D01*
X153602633Y-102215114D02*
X153102633Y-102215114D01*
X152888347Y-103000828D02*
X153602633Y-103000828D01*
X153602633Y-103000828D02*
X153602633Y-101500828D01*
X153602633Y-101500828D02*
X152888347Y-101500828D01*
X152245490Y-102215114D02*
X151745490Y-102215114D01*
X151531204Y-103000828D02*
X152245490Y-103000828D01*
X152245490Y-103000828D02*
X152245490Y-101500828D01*
X152245490Y-101500828D02*
X151531204Y-101500828D01*
D12*
%TO.P,REF\u002A\u002A,1*%
%TO.N,N/C*%
X83000000Y-40000000D03*
%TD*%
%TO.P,REF\u002A\u002A,1*%
%TO.N,N/C*%
X173000000Y-40000000D03*
%TD*%
%TO.P,REF\u002A\u002A,1*%
%TO.N,N/C*%
X173000000Y-110000000D03*
%TD*%
%TO.P,REF\u002A\u002A,1*%
%TO.N,N/C*%
X83000000Y-110000000D03*
%TD*%
D13*
%TO.P,U1,1,RE3/~{MCLR}/VPP*%
%TO.N,MCLR*%
X113130000Y-64680000D03*
D14*
%TO.P,U1,2,RA0*%
%TO.N,Net-(J3-Pin_3)*%
X113130000Y-67220000D03*
%TO.P,U1,3,RA1*%
%TO.N,Net-(J3-Pin_4)*%
X113130000Y-69760000D03*
%TO.P,U1,4,RA2*%
%TO.N,Net-(J3-Pin_5)*%
X113130000Y-72300000D03*
%TO.P,U1,5,RA3*%
%TO.N,Net-(J3-Pin_6)*%
X113130000Y-74840000D03*
%TO.P,U1,6,RA4*%
%TO.N,Net-(J3-Pin_7)*%
X113130000Y-77380000D03*
%TO.P,U1,7,RA5*%
%TO.N,Net-(J3-Pin_8)*%
X113130000Y-79920000D03*
%TO.P,U1,8,VSS*%
%TO.N,GND*%
X113130000Y-82460000D03*
%TO.P,U1,9,RA7*%
%TO.N,Net-(J3-Pin_10)*%
X113130000Y-85000000D03*
%TO.P,U1,10,RA6*%
%TO.N,Net-(J3-Pin_9)*%
X113130000Y-87540000D03*
%TO.P,U1,11,RC0*%
%TO.N,Net-(U1-RC0)*%
X113130000Y-90080000D03*
%TO.P,U1,12,RC1*%
%TO.N,Net-(U1-RC1)*%
X113130000Y-92620000D03*
%TO.P,U1,13,RC2*%
%TO.N,Net-(U1-RC2)*%
X113130000Y-95160000D03*
%TO.P,U1,14,RC3*%
%TO.N,Net-(U1-RC3)*%
X113130000Y-97700000D03*
%TO.P,U1,15,RC4*%
%TO.N,Net-(J5-Pin_6)*%
X121000000Y-97700000D03*
%TO.P,U1,16,RC5*%
%TO.N,Net-(J5-Pin_5)*%
X121000000Y-95160000D03*
%TO.P,U1,17,RC6*%
%TO.N,Net-(J5-Pin_4)*%
X121000000Y-92620000D03*
%TO.P,U1,18,RC7*%
%TO.N,Net-(J5-Pin_3)*%
X121000000Y-90080000D03*
%TO.P,U1,19,VSS*%
%TO.N,GND*%
X121000000Y-87540000D03*
%TO.P,U1,20,VDD*%
%TO.N,+5V*%
X121000000Y-85000000D03*
%TO.P,U1,21,RB0*%
%TO.N,STBY*%
X121000000Y-82460000D03*
%TO.P,U1,22,RB1*%
%TO.N,unconnected-(U1-RB1-Pad22)*%
X121000000Y-79920000D03*
%TO.P,U1,23,RB2*%
%TO.N,unconnected-(U1-RB2-Pad23)*%
X121000000Y-77380000D03*
%TO.P,U1,24,RB3*%
%TO.N,CAN_RX*%
X121000000Y-74840000D03*
%TO.P,U1,25,RB4*%
%TO.N,CAN_TX*%
X121000000Y-72300000D03*
%TO.P,U1,26,RB5*%
%TO.N,unconnected-(U1-RB5-Pad26)*%
X121000000Y-69760000D03*
%TO.P,U1,27,RB6/ICSPCLK*%
%TO.N,ICSPCLK*%
X121000000Y-67220000D03*
%TO.P,U1,28,RB7/ICSPDAT*%
%TO.N,ICSPDAT*%
X121000000Y-64680000D03*
%TD*%
D15*
%TO.P,U4,1,TXD*%
%TO.N,CAN_TX*%
X127380000Y-72120000D03*
D16*
%TO.P,U4,2,VSS*%
%TO.N,GND*%
X127380000Y-74660000D03*
%TO.P,U4,3,VDD*%
%TO.N,+5V*%
X127380000Y-77200000D03*
%TO.P,U4,4,RXD*%
%TO.N,CAN_RX*%
X127380000Y-79740000D03*
%TO.P,U4,5,SPLIT*%
%TO.N,Net-(U4-SPLIT)*%
X135000000Y-79740000D03*
%TO.P,U4,6,CANL*%
%TO.N,Net-(J2-Pin_2)*%
X135000000Y-77200000D03*
%TO.P,U4,7,CANH*%
%TO.N,Net-(J2-Pin_3)*%
X135000000Y-74660000D03*
%TO.P,U4,8,STBY*%
%TO.N,STBY*%
X135000000Y-72120000D03*
%TD*%
D17*
%TO.P,J2,1,Pin_1*%
%TO.N,GND*%
X169291000Y-87470000D03*
D18*
%TO.P,J2,2,Pin_2*%
%TO.N,Net-(J2-Pin_2)*%
X169291000Y-82470000D03*
%TO.P,J2,3,Pin_3*%
%TO.N,Net-(J2-Pin_3)*%
X169291000Y-77470000D03*
%TD*%
D19*
%TO.P,R14,1*%
%TO.N,MCLR*%
X102800000Y-62880000D03*
%TO.P,R14,2*%
%TO.N,+5V*%
X102800000Y-52720000D03*
%TD*%
D20*
%TO.P,D1,1,K*%
%TO.N,+12V*%
X143800000Y-52580000D03*
D21*
%TO.P,D1,2,A*%
%TO.N,+5V*%
X143800000Y-60200000D03*
%TD*%
D19*
%TO.P,R19,1*%
%TO.N,Net-(R19-Pad1)*%
X162560000Y-59690000D03*
%TO.P,R19,2*%
%TO.N,Net-(C3-Pad1)*%
X152400000Y-59690000D03*
%TD*%
%TO.P,R20,1*%
%TO.N,Net-(U4-SPLIT)*%
X139400000Y-79800000D03*
%TO.P,R20,2*%
%TO.N,Net-(C3-Pad1)*%
X139400000Y-69640000D03*
%TD*%
%TO.P,R1,1*%
%TO.N,Net-(D2-A)*%
X99120000Y-92600000D03*
%TO.P,R1,2*%
%TO.N,Net-(U1-RC1)*%
X109280000Y-92600000D03*
%TD*%
D22*
%TO.P,U8,1,IN*%
%TO.N,+12V*%
X134400000Y-54700000D03*
D23*
%TO.P,U8,2,GND*%
%TO.N,GND*%
X134400000Y-57250000D03*
%TO.P,U8,3,OUT*%
%TO.N,+5V*%
X134400000Y-59800000D03*
%TD*%
D19*
%TO.P,C1,1*%
%TO.N,+5V*%
X134400000Y-64400000D03*
%TO.P,C1,2*%
%TO.N,GND*%
X129400000Y-64400000D03*
%TD*%
%TO.P,R18,1*%
%TO.N,Net-(C3-Pad1)*%
X152320000Y-64000000D03*
%TO.P,R18,2*%
%TO.N,Net-(R18-Pad2)*%
X162480000Y-64000000D03*
%TD*%
D24*
%TO.P,J7,1,Pin_1*%
%TO.N,MCLR*%
X113400000Y-50600000D03*
D25*
%TO.P,J7,2,Pin_2*%
%TO.N,+5V*%
X115940000Y-50600000D03*
%TO.P,J7,3,Pin_3*%
%TO.N,GND*%
X118480000Y-50600000D03*
%TO.P,J7,4,Pin_4*%
%TO.N,ICSPDAT*%
X121020000Y-50600000D03*
%TO.P,J7,5,Pin_5*%
%TO.N,ICSPCLK*%
X123560000Y-50600000D03*
%TO.P,J7,6,Pin_6*%
%TO.N,unconnected-(J7-Pin_6-Pad6)*%
X126100000Y-50600000D03*
%TD*%
D17*
%TO.P,J1,1,Pin_1*%
%TO.N,+5V*%
X165000000Y-46000000D03*
D18*
%TO.P,J1,2,Pin_2*%
%TO.N,GND*%
X160000000Y-46000000D03*
%TO.P,J1,3,Pin_3*%
%TO.N,+12V*%
X155000000Y-46000000D03*
%TD*%
D26*
%TO.P,C21,1*%
%TO.N,+12V*%
X147417621Y-46600000D03*
D19*
%TO.P,C21,2*%
%TO.N,GND*%
X149917621Y-46600000D03*
%TD*%
D27*
%TO.P,SW2,1*%
%TO.N,Net-(J2-Pin_3)*%
X167807000Y-70739000D03*
D28*
%TO.P,SW2,2*%
%TO.N,Net-(J2-Pin_2)*%
X170347000Y-70739000D03*
%TO.P,SW2,3*%
%TO.N,Net-(R19-Pad1)*%
X170347000Y-63119000D03*
%TO.P,SW2,4*%
%TO.N,Net-(R18-Pad2)*%
X167807000Y-63119000D03*
%TD*%
D29*
%TO.P,J3,1,Pin_1*%
%TO.N,+5V*%
X88800000Y-62040000D03*
D30*
%TO.P,J3,2,Pin_2*%
%TO.N,GND*%
X88800000Y-64580000D03*
%TO.P,J3,3,Pin_3*%
%TO.N,Net-(J3-Pin_3)*%
X88800000Y-67120000D03*
%TO.P,J3,4,Pin_4*%
%TO.N,Net-(J3-Pin_4)*%
X88800000Y-69660000D03*
%TO.P,J3,5,Pin_5*%
%TO.N,Net-(J3-Pin_5)*%
X88800000Y-72200000D03*
%TO.P,J3,6,Pin_6*%
%TO.N,Net-(J3-Pin_6)*%
X88800000Y-74740000D03*
%TO.P,J3,7,Pin_7*%
%TO.N,Net-(J3-Pin_7)*%
X88800000Y-77280000D03*
%TO.P,J3,8,Pin_8*%
%TO.N,Net-(J3-Pin_8)*%
X88800000Y-79820000D03*
%TO.P,J3,9,Pin_9*%
%TO.N,Net-(J3-Pin_9)*%
X88800000Y-82360000D03*
%TO.P,J3,10,Pin_10*%
%TO.N,Net-(J3-Pin_10)*%
X88800000Y-84900000D03*
%TD*%
D19*
%TO.P,R17,1*%
%TO.N,Net-(D5-A)*%
X99120000Y-89400000D03*
%TO.P,R17,2*%
%TO.N,Net-(U1-RC0)*%
X109280000Y-89400000D03*
%TD*%
D31*
%TO.P,TP1,1,1*%
%TO.N,Net-(J2-Pin_3)*%
X160020000Y-77470000D03*
%TD*%
%TO.P,SW3,1,1*%
%TO.N,+5V*%
X114361500Y-105689400D03*
%TO.P,SW3,2,2*%
%TO.N,Net-(U1-RC3)*%
X114361500Y-110189400D03*
%TO.P,SW3,3*%
%TO.N,N/C*%
X120861500Y-105689400D03*
%TO.P,SW3,4*%
X120861500Y-110189400D03*
%TD*%
D32*
%TO.P,D2,1,K*%
%TO.N,GND*%
X93400000Y-95140000D03*
D19*
%TO.P,D2,2,A*%
%TO.N,Net-(D2-A)*%
X93400000Y-92600000D03*
%TD*%
D31*
%TO.P,TP2,1,1*%
%TO.N,Net-(J2-Pin_2)*%
X160020000Y-82423000D03*
%TD*%
%TO.P,SW1,1,1*%
%TO.N,+5V*%
X124961500Y-105689400D03*
%TO.P,SW1,2,2*%
%TO.N,Net-(U1-RC2)*%
X124961500Y-110189400D03*
%TO.P,SW1,3*%
%TO.N,N/C*%
X131461500Y-105689400D03*
%TO.P,SW1,4*%
X131461500Y-110189400D03*
%TD*%
D19*
%TO.P,C3,1*%
%TO.N,Net-(C3-Pad1)*%
X151000000Y-56100000D03*
%TO.P,C3,2*%
%TO.N,GND*%
X151000000Y-51100000D03*
%TD*%
D33*
%TO.P,J5,1,Pin_1*%
%TO.N,GND*%
X139400000Y-85320000D03*
D34*
%TO.P,J5,2,Pin_2*%
%TO.N,+5V*%
X139400000Y-87860000D03*
%TO.P,J5,3,Pin_3*%
%TO.N,Net-(J5-Pin_3)*%
X139400000Y-90400000D03*
%TO.P,J5,4,Pin_4*%
%TO.N,Net-(J5-Pin_4)*%
X139400000Y-92940000D03*
%TO.P,J5,5,Pin_5*%
%TO.N,Net-(J5-Pin_5)*%
X139400000Y-95480000D03*
%TO.P,J5,6,Pin_6*%
%TO.N,Net-(J5-Pin_6)*%
X139400000Y-98020000D03*
%TD*%
D19*
%TO.P,C2,1*%
%TO.N,+5V*%
X102800000Y-45200000D03*
%TO.P,C2,2*%
%TO.N,GND*%
X102800000Y-40200000D03*
%TD*%
%TO.P,R3,1*%
%TO.N,GND*%
X99040000Y-99200000D03*
%TO.P,R3,2*%
%TO.N,Net-(U1-RC3)*%
X109200000Y-99200000D03*
%TD*%
D32*
%TO.P,D5,1,K*%
%TO.N,GND*%
X85200000Y-95140000D03*
D19*
%TO.P,D5,2,A*%
%TO.N,Net-(D5-A)*%
X85200000Y-92600000D03*
%TD*%
%TO.P,R2,1*%
%TO.N,GND*%
X99120000Y-95800000D03*
%TO.P,R2,2*%
%TO.N,Net-(U1-RC2)*%
X109280000Y-95800000D03*
%TD*%
D35*
%TO.N,GND*%
X115570000Y-58420000D03*
X125730000Y-58420000D03*
X169440000Y-44134000D03*
X169440000Y-50484000D03*
%TD*%
D36*
%TO.N,Net-(R19-Pad1)*%
X162560000Y-59690000D02*
X168018000Y-59690000D01*
X168018000Y-59690000D02*
X170347000Y-62019000D01*
X170347000Y-62019000D02*
X170347000Y-63119000D01*
D37*
%TO.N,+5V*%
X141800000Y-90170000D02*
X141800000Y-98557006D01*
X141800000Y-98557006D02*
X137487006Y-102870000D01*
X137487006Y-102870000D02*
X127780900Y-102870000D01*
X127780900Y-102870000D02*
X124961500Y-105689400D01*
X115940000Y-51170000D02*
X118110000Y-53340000D01*
X115940000Y-50600000D02*
X115940000Y-51170000D01*
X118110000Y-53340000D02*
X118110000Y-62910000D01*
X118110000Y-62910000D02*
X118400000Y-63200000D01*
X171391000Y-90170000D02*
X147320000Y-90170000D01*
X147320000Y-90170000D02*
X141800000Y-90170000D01*
D36*
%TO.N,Net-(U1-RC2)*%
X124961500Y-110189400D02*
X122561500Y-107789400D01*
X122561500Y-107789400D02*
X112869400Y-107789400D01*
X112869400Y-107789400D02*
X112261500Y-107181500D01*
X112261500Y-107181500D02*
X112261500Y-101098500D01*
X114880000Y-98480000D02*
X114880000Y-96910000D01*
X112261500Y-101098500D02*
X114880000Y-98480000D01*
X114880000Y-96910000D02*
X113130000Y-95160000D01*
%TO.N,Net-(U1-RC3)*%
X109200000Y-99200000D02*
X109200000Y-107930000D01*
X109200000Y-107930000D02*
X111459400Y-110189400D01*
X111459400Y-110189400D02*
X114361500Y-110189400D01*
%TO.N,+5V*%
X123190000Y-102870000D02*
X120650000Y-102870000D01*
X124961500Y-104641500D02*
X123190000Y-102870000D01*
X124961500Y-105689400D02*
X124961500Y-104641500D01*
X120650000Y-102870000D02*
X117830600Y-105689400D01*
X117830600Y-105689400D02*
X114361500Y-105689400D01*
D37*
X165000000Y-46000000D02*
X173000000Y-46000000D01*
X173000000Y-46000000D02*
X175260000Y-48260000D01*
X175260000Y-48260000D02*
X175260000Y-86301000D01*
X175260000Y-86301000D02*
X171391000Y-90170000D01*
D36*
%TO.N,Net-(J2-Pin_3)*%
X167807000Y-70739000D02*
X167807000Y-70686969D01*
X167807000Y-70686969D02*
X169704969Y-68789000D01*
X169704969Y-68789000D02*
X170989031Y-68789000D01*
X170989031Y-68789000D02*
X171897000Y-69696969D01*
X171897000Y-74864000D02*
X169291000Y-77470000D01*
X171897000Y-69696969D02*
X171897000Y-74864000D01*
%TO.N,Net-(J2-Pin_2)*%
X170347000Y-70739000D02*
X170347000Y-72096000D01*
X170347000Y-72096000D02*
X160020000Y-82423000D01*
%TO.N,Net-(J2-Pin_3)*%
X167807000Y-70739000D02*
X166751000Y-70739000D01*
X166751000Y-70739000D02*
X160020000Y-77470000D01*
%TO.N,STBY*%
X133050000Y-78440000D02*
X129030000Y-82460000D01*
X129030000Y-82460000D02*
X121000000Y-82460000D01*
X133050000Y-73670000D02*
X133050000Y-78440000D01*
X134600000Y-72120000D02*
X133050000Y-73670000D01*
X135000000Y-72120000D02*
X134600000Y-72120000D01*
D37*
%TO.N,+5V*%
X130810000Y-69850000D02*
X130810000Y-76200000D01*
X134400000Y-64400000D02*
X134400000Y-66260000D01*
X134400000Y-66260000D02*
X130810000Y-69850000D01*
X130810000Y-76200000D02*
X129810000Y-77200000D01*
X129810000Y-77200000D02*
X127380000Y-77200000D01*
X141800000Y-88210000D02*
X141800000Y-90170000D01*
X149800000Y-54200000D02*
X156800000Y-54200000D01*
X156800000Y-54200000D02*
X165000000Y-46000000D01*
D36*
%TO.N,Net-(R18-Pad2)*%
X162480000Y-64000000D02*
X166926000Y-64000000D01*
X166926000Y-64000000D02*
X167807000Y-63119000D01*
%TO.N,Net-(J2-Pin_2)*%
X160020000Y-82423000D02*
X169244000Y-82423000D01*
X169244000Y-82423000D02*
X169291000Y-82470000D01*
X135000000Y-77200000D02*
X154797000Y-77200000D01*
X154797000Y-77200000D02*
X160020000Y-82423000D01*
%TO.N,Net-(J2-Pin_3)*%
X160020000Y-77470000D02*
X157480000Y-77470000D01*
X154670000Y-74660000D02*
X135000000Y-74660000D01*
X157480000Y-77470000D02*
X154670000Y-74660000D01*
D37*
%TO.N,GND*%
X99120000Y-95800000D02*
X99120000Y-99120000D01*
X90500000Y-40300000D02*
X83300000Y-47500000D01*
X85052994Y-95140000D02*
X85200000Y-95140000D01*
X151000000Y-47682379D02*
X149917621Y-46600000D01*
X102800000Y-40200000D02*
X102700000Y-40300000D01*
X151000000Y-51100000D02*
X151000000Y-47682379D01*
X88800000Y-64580000D02*
X83680000Y-64580000D01*
X99240000Y-95920000D02*
X99120000Y-95800000D01*
X94060000Y-95800000D02*
X93400000Y-95140000D01*
X83300000Y-93387006D02*
X85052994Y-95140000D01*
X102900000Y-40300000D02*
X102800000Y-40200000D01*
X83300000Y-47500000D02*
X83300000Y-93387006D01*
X99120000Y-99120000D02*
X99040000Y-99200000D01*
X102700000Y-40300000D02*
X90500000Y-40300000D01*
%TO.N,+5V*%
X143800000Y-60200000D02*
X144000000Y-60200000D01*
X134400000Y-59800000D02*
X134600000Y-59800000D01*
X115380000Y-48250000D02*
X107270000Y-48250000D01*
X141450000Y-87860000D02*
X141800000Y-88210000D01*
X118400000Y-84600000D02*
X118400000Y-63200000D01*
X121070000Y-85070000D02*
X121000000Y-85000000D01*
X107270000Y-48250000D02*
X102800000Y-52720000D01*
X115940000Y-50600000D02*
X115940000Y-48810000D01*
X121000000Y-85000000D02*
X118800000Y-85000000D01*
X139400000Y-87860000D02*
X135600000Y-87860000D01*
X135600000Y-87860000D02*
X135600000Y-85070000D01*
X143400000Y-59800000D02*
X143800000Y-60200000D01*
X115980000Y-50640000D02*
X115940000Y-50600000D01*
X143800000Y-60200000D02*
X149800000Y-54200000D01*
X102800000Y-45100000D02*
X102800000Y-52720000D01*
X135600000Y-85070000D02*
X121070000Y-85070000D01*
X139400000Y-87860000D02*
X141450000Y-87860000D01*
X115940000Y-48810000D02*
X115380000Y-48250000D01*
X134400000Y-59800000D02*
X143400000Y-59800000D01*
X134400000Y-64400000D02*
X134400000Y-59800000D01*
X98120000Y-52720000D02*
X88800000Y-62040000D01*
X118800000Y-85000000D02*
X118400000Y-84600000D01*
X102800000Y-52720000D02*
X98120000Y-52720000D01*
%TO.N,+12V*%
X155000000Y-46000000D02*
X153500000Y-44500000D01*
X134400000Y-54700000D02*
X136700000Y-52400000D01*
X147417621Y-46412994D02*
X147417621Y-46600000D01*
X143800000Y-52580000D02*
X143800000Y-50217621D01*
X149330615Y-44500000D02*
X147417621Y-46412994D01*
X143620000Y-52400000D02*
X143800000Y-52580000D01*
X136700000Y-52400000D02*
X143620000Y-52400000D01*
X143800000Y-50217621D02*
X147417621Y-46600000D01*
X153500000Y-44500000D02*
X149330615Y-44500000D01*
%TO.N,Net-(D5-A)*%
X99120000Y-89400000D02*
X88400000Y-89400000D01*
X88400000Y-89400000D02*
X85200000Y-92600000D01*
%TO.N,ICSPCLK*%
X123480000Y-54702944D02*
X122800000Y-55382944D01*
X123480000Y-50400000D02*
X123480000Y-54702944D01*
X122800000Y-65420000D02*
X121000000Y-67220000D01*
X122800000Y-55382944D02*
X122800000Y-65420000D01*
%TO.N,ICSPDAT*%
X121020000Y-55260000D02*
X121020000Y-50600000D01*
X121000000Y-55280000D02*
X121020000Y-55260000D01*
X121000000Y-64680000D02*
X121000000Y-55280000D01*
%TO.N,MCLR*%
X113440000Y-64370000D02*
X113130000Y-64680000D01*
X113400000Y-50600000D02*
X113440000Y-50640000D01*
X113440000Y-50640000D02*
X113440000Y-64370000D01*
X111330000Y-62880000D02*
X113130000Y-64680000D01*
X102800000Y-62880000D02*
X111330000Y-62880000D01*
%TO.N,Net-(U1-RC0)*%
X109280000Y-89400000D02*
X112450000Y-89400000D01*
X112450000Y-89400000D02*
X113130000Y-90080000D01*
%TO.N,Net-(U4-SPLIT)*%
X139340000Y-79740000D02*
X139400000Y-79800000D01*
X135000000Y-79740000D02*
X139340000Y-79740000D01*
%TO.N,Net-(C3-Pad1)*%
X145120000Y-68400000D02*
X149520000Y-64000000D01*
X143880000Y-69640000D02*
X145120000Y-68400000D01*
X152320000Y-64000000D02*
X152320000Y-57420000D01*
X152320000Y-57420000D02*
X151000000Y-56100000D01*
X139400000Y-69640000D02*
X143880000Y-69640000D01*
X149520000Y-64000000D02*
X152320000Y-64000000D01*
%TO.N,Net-(D2-A)*%
X99120000Y-92600000D02*
X93400000Y-92600000D01*
%TO.N,Net-(J3-Pin_9)*%
X88800000Y-82360000D02*
X88960000Y-82360000D01*
X87050000Y-85624874D02*
X87050000Y-84110000D01*
X113130000Y-87540000D02*
X112990000Y-87400000D01*
X87050000Y-84110000D02*
X88800000Y-82360000D01*
X88825126Y-87400000D02*
X87050000Y-85624874D01*
X88960000Y-82360000D02*
X89200000Y-82600000D01*
X112990000Y-87400000D02*
X88825126Y-87400000D01*
%TO.N,Net-(J3-Pin_8)*%
X88800000Y-79820000D02*
X113030000Y-79820000D01*
X113030000Y-79820000D02*
X113130000Y-79920000D01*
%TO.N,CAN_TX*%
X121180000Y-72120000D02*
X121000000Y-72300000D01*
X127380000Y-72120000D02*
X121180000Y-72120000D01*
%TO.N,Net-(J3-Pin_4)*%
X88800000Y-69660000D02*
X113030000Y-69660000D01*
X113030000Y-69660000D02*
X113130000Y-69760000D01*
%TO.N,STBY*%
X121000000Y-82460000D02*
X121060000Y-82400000D01*
%TO.N,Net-(J3-Pin_7)*%
X88800000Y-77280000D02*
X113030000Y-77280000D01*
X113030000Y-77280000D02*
X113130000Y-77380000D01*
%TO.N,Net-(J3-Pin_10)*%
X113030000Y-84900000D02*
X113130000Y-85000000D01*
X88800000Y-84900000D02*
X113030000Y-84900000D01*
%TO.N,Net-(J3-Pin_3)*%
X113130000Y-67220000D02*
X88900000Y-67220000D01*
X88900000Y-67220000D02*
X88800000Y-67120000D01*
%TO.N,Net-(J3-Pin_5)*%
X88800000Y-72200000D02*
X113030000Y-72200000D01*
X113030000Y-72200000D02*
X113130000Y-72300000D01*
%TO.N,Net-(J3-Pin_6)*%
X88800000Y-74740000D02*
X113030000Y-74740000D01*
X113030000Y-74740000D02*
X113130000Y-74840000D01*
%TO.N,Net-(J5-Pin_6)*%
X121000000Y-97700000D02*
X139080000Y-97700000D01*
X139080000Y-97700000D02*
X139400000Y-98020000D01*
%TO.N,Net-(J5-Pin_4)*%
X139080000Y-92620000D02*
X139400000Y-92940000D01*
X121000000Y-92620000D02*
X139080000Y-92620000D01*
%TO.N,CAN_RX*%
X127380000Y-79740000D02*
X125900000Y-79740000D01*
X125900000Y-79740000D02*
X121000000Y-74840000D01*
%TO.N,Net-(J5-Pin_5)*%
X139080000Y-95160000D02*
X139400000Y-95480000D01*
X121000000Y-95160000D02*
X139080000Y-95160000D01*
%TO.N,Net-(J5-Pin_3)*%
X139080000Y-90080000D02*
X139400000Y-90400000D01*
X121000000Y-90080000D02*
X139080000Y-90080000D01*
%TO.N,Net-(U1-RC1)*%
X109280000Y-92600000D02*
X113110000Y-92600000D01*
X113110000Y-92600000D02*
X113130000Y-92620000D01*
%TO.N,Net-(U1-RC2)*%
X112490000Y-95800000D02*
X113130000Y-95160000D01*
X109280000Y-95800000D02*
X112490000Y-95800000D01*
%TO.N,Net-(U1-RC3)*%
X110800000Y-97800000D02*
X113030000Y-97800000D01*
X109400000Y-99200000D02*
X110800000Y-97800000D01*
X113030000Y-97800000D02*
X113130000Y-97700000D01*
%TD*%
%TA.AperFunction,Conductor*%
%TO.N,GND*%
G36*
X115015994Y-52034725D02*
G01*
X115029835Y-52043446D01*
X115153567Y-52133343D01*
X115228988Y-52171772D01*
X115364003Y-52240566D01*
X115364005Y-52240566D01*
X115364008Y-52240568D01*
X115484412Y-52279689D01*
X115588631Y-52313553D01*
X115811929Y-52348920D01*
X115875064Y-52378849D01*
X115880212Y-52383712D01*
X117173181Y-53676680D01*
X117206666Y-53738003D01*
X117209500Y-53764361D01*
X117209500Y-62998696D01*
X117244103Y-63172659D01*
X117244106Y-63172669D01*
X117247131Y-63179972D01*
X117274605Y-63246297D01*
X117311984Y-63336541D01*
X117311988Y-63336548D01*
X117371063Y-63424960D01*
X117371064Y-63424961D01*
X117410534Y-63484034D01*
X117463181Y-63536681D01*
X117496666Y-63598004D01*
X117499500Y-63624362D01*
X117499500Y-84688696D01*
X117534103Y-84862658D01*
X117534106Y-84862670D01*
X117553846Y-84910325D01*
X117601985Y-85026544D01*
X117661063Y-85114960D01*
X117700537Y-85174038D01*
X117700540Y-85174041D01*
X118100536Y-85574035D01*
X118181906Y-85655405D01*
X118225966Y-85699465D01*
X118373446Y-85798009D01*
X118373459Y-85798016D01*
X118467140Y-85836819D01*
X118537334Y-85865894D01*
X118537336Y-85865894D01*
X118537341Y-85865896D01*
X118711304Y-85900499D01*
X118711307Y-85900500D01*
X118711309Y-85900500D01*
X119830664Y-85900500D01*
X119897703Y-85920185D01*
X119918345Y-85936819D01*
X119935354Y-85953828D01*
X120054784Y-86040600D01*
X120094596Y-86069525D01*
X120271763Y-86159795D01*
X120322560Y-86207769D01*
X120339355Y-86275590D01*
X120316818Y-86341725D01*
X120271764Y-86380765D01*
X120094856Y-86470904D01*
X119935678Y-86586555D01*
X119796555Y-86725678D01*
X119680904Y-86884856D01*
X119591581Y-87060162D01*
X119530781Y-87247283D01*
X119524016Y-87290000D01*
X120670910Y-87290000D01*
X120617941Y-87381746D01*
X120590000Y-87486022D01*
X120590000Y-87593978D01*
X120617941Y-87698254D01*
X120670910Y-87790000D01*
X119524016Y-87790000D01*
X119530781Y-87832716D01*
X119591581Y-88019837D01*
X119680904Y-88195143D01*
X119796555Y-88354321D01*
X119935678Y-88493444D01*
X120094856Y-88609095D01*
X120271764Y-88699234D01*
X120322560Y-88747208D01*
X120339355Y-88815029D01*
X120316818Y-88881164D01*
X120271764Y-88920204D01*
X120094594Y-89010476D01*
X120003741Y-89076485D01*
X119935354Y-89126172D01*
X119935352Y-89126174D01*
X119935351Y-89126174D01*
X119796174Y-89265351D01*
X119796174Y-89265352D01*
X119796172Y-89265354D01*
X119795219Y-89266666D01*
X119680476Y-89424594D01*
X119591117Y-89599970D01*
X119530290Y-89787173D01*
X119499500Y-89981577D01*
X119499500Y-90178422D01*
X119530290Y-90372826D01*
X119591117Y-90560029D01*
X119680476Y-90735405D01*
X119796172Y-90894646D01*
X119935354Y-91033828D01*
X120094595Y-91149524D01*
X120182866Y-91194500D01*
X120271213Y-91239515D01*
X120322009Y-91287489D01*
X120338804Y-91355310D01*
X120316267Y-91421445D01*
X120271213Y-91460485D01*
X120094594Y-91550476D01*
X120003741Y-91616485D01*
X119935354Y-91666172D01*
X119935352Y-91666174D01*
X119935351Y-91666174D01*
X119796174Y-91805351D01*
X119796174Y-91805352D01*
X119796172Y-91805354D01*
X119746485Y-91873741D01*
X119680476Y-91964594D01*
X119591117Y-92139970D01*
X119530290Y-92327173D01*
X119499500Y-92521577D01*
X119499500Y-92718422D01*
X119530290Y-92912826D01*
X119591117Y-93100029D01*
X119680476Y-93275405D01*
X119796172Y-93434646D01*
X119935354Y-93573828D01*
X120094595Y-93689524D01*
X120217992Y-93752397D01*
X120271213Y-93779515D01*
X120322009Y-93827489D01*
X120338804Y-93895310D01*
X120316267Y-93961445D01*
X120271213Y-94000485D01*
X120094594Y-94090476D01*
X120003741Y-94156485D01*
X119935354Y-94206172D01*
X119935352Y-94206174D01*
X119935351Y-94206174D01*
X119796174Y-94345351D01*
X119796174Y-94345352D01*
X119796172Y-94345354D01*
X119746485Y-94413741D01*
X119680476Y-94504594D01*
X119591117Y-94679970D01*
X119530290Y-94867173D01*
X119499500Y-95061577D01*
X119499500Y-95258422D01*
X119530290Y-95452826D01*
X119591117Y-95640029D01*
X119672624Y-95799994D01*
X119680476Y-95815405D01*
X119796172Y-95974646D01*
X119935354Y-96113828D01*
X120094595Y-96229524D01*
X120210769Y-96288717D01*
X120271213Y-96319515D01*
X120322009Y-96367489D01*
X120338804Y-96435310D01*
X120316267Y-96501445D01*
X120271213Y-96540485D01*
X120094594Y-96630476D01*
X120003741Y-96696485D01*
X119935354Y-96746172D01*
X119935352Y-96746174D01*
X119935351Y-96746174D01*
X119796174Y-96885351D01*
X119796174Y-96885352D01*
X119796172Y-96885354D01*
X119779909Y-96907738D01*
X119680476Y-97044594D01*
X119591117Y-97219970D01*
X119530290Y-97407173D01*
X119499500Y-97601577D01*
X119499500Y-97798422D01*
X119530290Y-97992826D01*
X119591117Y-98180029D01*
X119639617Y-98275215D01*
X119680476Y-98355405D01*
X119796172Y-98514646D01*
X119935354Y-98653828D01*
X120094595Y-98769524D01*
X120177455Y-98811743D01*
X120269970Y-98858882D01*
X120269972Y-98858882D01*
X120269975Y-98858884D01*
X120370317Y-98891487D01*
X120457173Y-98919709D01*
X120651578Y-98950500D01*
X120651583Y-98950500D01*
X121348422Y-98950500D01*
X121542826Y-98919709D01*
X121730025Y-98858884D01*
X121905405Y-98769524D01*
X122064646Y-98653828D01*
X122081655Y-98636819D01*
X122142978Y-98603334D01*
X122169336Y-98600500D01*
X137685741Y-98600500D01*
X137752780Y-98620185D01*
X137796226Y-98668205D01*
X137826736Y-98728084D01*
X137866657Y-98806433D01*
X138005483Y-98997510D01*
X138172490Y-99164517D01*
X138363567Y-99303343D01*
X138462991Y-99354002D01*
X138574003Y-99410566D01*
X138574005Y-99410566D01*
X138574008Y-99410568D01*
X138681844Y-99445606D01*
X138798631Y-99483553D01*
X139031903Y-99520500D01*
X139031908Y-99520500D01*
X139263645Y-99520500D01*
X139330684Y-99540185D01*
X139376439Y-99592989D01*
X139386383Y-99662147D01*
X139357358Y-99725703D01*
X139351327Y-99732179D01*
X138233093Y-100850413D01*
X137150325Y-101933181D01*
X137089002Y-101966666D01*
X137062644Y-101969500D01*
X127692204Y-101969500D01*
X127518239Y-102004103D01*
X127518223Y-102004108D01*
X127402353Y-102052102D01*
X127402354Y-102052103D01*
X127354354Y-102071986D01*
X127288039Y-102116297D01*
X127206865Y-102170535D01*
X127206861Y-102170538D01*
X125537775Y-103839624D01*
X125476452Y-103873109D01*
X125406760Y-103868125D01*
X125362413Y-103839624D01*
X123732165Y-102209375D01*
X123732161Y-102209372D01*
X123592866Y-102116297D01*
X123592863Y-102116296D01*
X123483416Y-102070962D01*
X123483414Y-102070961D01*
X123438086Y-102052185D01*
X123438074Y-102052182D01*
X123273771Y-102019500D01*
X123273767Y-102019500D01*
X120566233Y-102019500D01*
X120566228Y-102019500D01*
X120401925Y-102052182D01*
X120401913Y-102052185D01*
X120356583Y-102070962D01*
X120247143Y-102116292D01*
X120247135Y-102116297D01*
X120107838Y-102209372D01*
X120107834Y-102209375D01*
X117514630Y-104802581D01*
X117453307Y-104836066D01*
X117426949Y-104838900D01*
X115963357Y-104838900D01*
X115896318Y-104819215D01*
X115855970Y-104776899D01*
X115811887Y-104700545D01*
X115811886Y-104700543D01*
X115648305Y-104495419D01*
X115648304Y-104495418D01*
X115648301Y-104495414D01*
X115455979Y-104316967D01*
X115448683Y-104311993D01*
X115239204Y-104169172D01*
X115239200Y-104169170D01*
X115239197Y-104169168D01*
X115239196Y-104169167D01*
X115002825Y-104055338D01*
X115002827Y-104055338D01*
X114752123Y-103978006D01*
X114752119Y-103978005D01*
X114752115Y-103978004D01*
X114627323Y-103959194D01*
X114492687Y-103938900D01*
X114492682Y-103938900D01*
X114230318Y-103938900D01*
X114230312Y-103938900D01*
X114068747Y-103963253D01*
X113970885Y-103978004D01*
X113970882Y-103978005D01*
X113970876Y-103978006D01*
X113720173Y-104055338D01*
X113483803Y-104169167D01*
X113483802Y-104169168D01*
X113483796Y-104169171D01*
X113483796Y-104169172D01*
X113305850Y-104290493D01*
X113239372Y-104311993D01*
X113171822Y-104294139D01*
X113124648Y-104242599D01*
X113112000Y-104188039D01*
X113112000Y-101502150D01*
X113131685Y-101435111D01*
X113148319Y-101414469D01*
X115540620Y-99022168D01*
X115540626Y-99022162D01*
X115633704Y-98882863D01*
X115697816Y-98728081D01*
X115701190Y-98711118D01*
X115703302Y-98700502D01*
X115703302Y-98700500D01*
X115730500Y-98563767D01*
X115730500Y-96826233D01*
X115697816Y-96661918D01*
X115679037Y-96616584D01*
X115633704Y-96507137D01*
X115600545Y-96457512D01*
X115540627Y-96367838D01*
X115540624Y-96367834D01*
X114647926Y-95475137D01*
X114614441Y-95413814D01*
X114613134Y-95368061D01*
X114624802Y-95294394D01*
X114630500Y-95258421D01*
X114630500Y-95061577D01*
X114599709Y-94867173D01*
X114538882Y-94679970D01*
X114486104Y-94576388D01*
X114449524Y-94504595D01*
X114333828Y-94345354D01*
X114194646Y-94206172D01*
X114115025Y-94148324D01*
X114035403Y-94090474D01*
X113858787Y-94000485D01*
X113807990Y-93952511D01*
X113791195Y-93884690D01*
X113813732Y-93818555D01*
X113858787Y-93779515D01*
X114035403Y-93689525D01*
X114035402Y-93689525D01*
X114035405Y-93689524D01*
X114194646Y-93573828D01*
X114333828Y-93434646D01*
X114449524Y-93275405D01*
X114538884Y-93100025D01*
X114599709Y-92912826D01*
X114610006Y-92847812D01*
X114630500Y-92718422D01*
X114630500Y-92521577D01*
X114599709Y-92327173D01*
X114538882Y-92139970D01*
X114449523Y-91964594D01*
X114333828Y-91805354D01*
X114194646Y-91666172D01*
X114115025Y-91608324D01*
X114035403Y-91550474D01*
X113858787Y-91460485D01*
X113807990Y-91412511D01*
X113791195Y-91344690D01*
X113813732Y-91278555D01*
X113858787Y-91239515D01*
X114035403Y-91149525D01*
X114035402Y-91149525D01*
X114035405Y-91149524D01*
X114194646Y-91033828D01*
X114333828Y-90894646D01*
X114449524Y-90735405D01*
X114538884Y-90560025D01*
X114599709Y-90372826D01*
X114607318Y-90324785D01*
X114630500Y-90178422D01*
X114630500Y-89981577D01*
X114599709Y-89787173D01*
X114538882Y-89599970D01*
X114449523Y-89424594D01*
X114333828Y-89265354D01*
X114194646Y-89126172D01*
X114115025Y-89068324D01*
X114035403Y-89010474D01*
X113858787Y-88920485D01*
X113807990Y-88872511D01*
X113791195Y-88804690D01*
X113813732Y-88738555D01*
X113858787Y-88699515D01*
X114035403Y-88609525D01*
X114035402Y-88609525D01*
X114035405Y-88609524D01*
X114194646Y-88493828D01*
X114333828Y-88354646D01*
X114449524Y-88195405D01*
X114538884Y-88020025D01*
X114599709Y-87832826D01*
X114599726Y-87832716D01*
X114630500Y-87638422D01*
X114630500Y-87441577D01*
X114599709Y-87247173D01*
X114554721Y-87108716D01*
X114538884Y-87059975D01*
X114538882Y-87059972D01*
X114538882Y-87059970D01*
X114469185Y-86923182D01*
X114449524Y-86884595D01*
X114333828Y-86725354D01*
X114194646Y-86586172D01*
X114075075Y-86499298D01*
X114035403Y-86470474D01*
X113858787Y-86380485D01*
X113807990Y-86332511D01*
X113791195Y-86264690D01*
X113813732Y-86198555D01*
X113858787Y-86159515D01*
X114035403Y-86069525D01*
X114035402Y-86069525D01*
X114035405Y-86069524D01*
X114194646Y-85953828D01*
X114333828Y-85814646D01*
X114449524Y-85655405D01*
X114538884Y-85480025D01*
X114599709Y-85292826D01*
X114605831Y-85254174D01*
X114630500Y-85098422D01*
X114630500Y-84901577D01*
X114599709Y-84707173D01*
X114538882Y-84519970D01*
X114474885Y-84394369D01*
X114449524Y-84344595D01*
X114333828Y-84185354D01*
X114194646Y-84046172D01*
X114035405Y-83930476D01*
X113860025Y-83841116D01*
X113860024Y-83841115D01*
X113858235Y-83840204D01*
X113807439Y-83792230D01*
X113790644Y-83724409D01*
X113813181Y-83658274D01*
X113858236Y-83619234D01*
X114035141Y-83529097D01*
X114194321Y-83413444D01*
X114333444Y-83274321D01*
X114449095Y-83115143D01*
X114538418Y-82939837D01*
X114599218Y-82752716D01*
X114605984Y-82710000D01*
X113459090Y-82710000D01*
X113512059Y-82618254D01*
X113540000Y-82513978D01*
X113540000Y-82406022D01*
X113512059Y-82301746D01*
X113459090Y-82210000D01*
X114605984Y-82210000D01*
X114599218Y-82167283D01*
X114538418Y-81980162D01*
X114449095Y-81804856D01*
X114333444Y-81645678D01*
X114194321Y-81506555D01*
X114035143Y-81390904D01*
X113858235Y-81300765D01*
X113807439Y-81252790D01*
X113790644Y-81184969D01*
X113813181Y-81118835D01*
X113858236Y-81079795D01*
X113860022Y-81078884D01*
X113860025Y-81078884D01*
X114035405Y-80989524D01*
X114194646Y-80873828D01*
X114333828Y-80734646D01*
X114449524Y-80575405D01*
X114538884Y-80400025D01*
X114599709Y-80212826D01*
X114607162Y-80165770D01*
X114630500Y-80018422D01*
X114630500Y-79821577D01*
X114599709Y-79627173D01*
X114571487Y-79540317D01*
X114538884Y-79439975D01*
X114538882Y-79439972D01*
X114538882Y-79439970D01*
X114473229Y-79311119D01*
X114449524Y-79264595D01*
X114333828Y-79105354D01*
X114194646Y-78966172D01*
X114097813Y-78895818D01*
X114035403Y-78850474D01*
X113858787Y-78760485D01*
X113807990Y-78712511D01*
X113791195Y-78644690D01*
X113813732Y-78578555D01*
X113858787Y-78539515D01*
X114035403Y-78449525D01*
X114035402Y-78449525D01*
X114035405Y-78449524D01*
X114194646Y-78333828D01*
X114333828Y-78194646D01*
X114449524Y-78035405D01*
X114538884Y-77860025D01*
X114599709Y-77672826D01*
X114607162Y-77625770D01*
X114630500Y-77478422D01*
X114630500Y-77281577D01*
X114599709Y-77087173D01*
X114540504Y-76904962D01*
X114538884Y-76899975D01*
X114538882Y-76899972D01*
X114538882Y-76899970D01*
X114449523Y-76724594D01*
X114432218Y-76700776D01*
X114333828Y-76565354D01*
X114194646Y-76426172D01*
X114097813Y-76355818D01*
X114035403Y-76310474D01*
X113858787Y-76220485D01*
X113807990Y-76172511D01*
X113791195Y-76104690D01*
X113813732Y-76038555D01*
X113858787Y-75999515D01*
X114035403Y-75909525D01*
X114035402Y-75909525D01*
X114035405Y-75909524D01*
X114194646Y-75793828D01*
X114333828Y-75654646D01*
X114449524Y-75495405D01*
X114538884Y-75320025D01*
X114599709Y-75132826D01*
X114602565Y-75114795D01*
X114630500Y-74938422D01*
X114630500Y-74741577D01*
X114599709Y-74547173D01*
X114538882Y-74359970D01*
X114491743Y-74267455D01*
X114449524Y-74184595D01*
X114333828Y-74025354D01*
X114194646Y-73886172D01*
X114097813Y-73815818D01*
X114035403Y-73770474D01*
X113858787Y-73680485D01*
X113807990Y-73632511D01*
X113791195Y-73564690D01*
X113813732Y-73498555D01*
X113858787Y-73459515D01*
X114035403Y-73369525D01*
X114035402Y-73369525D01*
X114035405Y-73369524D01*
X114194646Y-73253828D01*
X114333828Y-73114646D01*
X114449524Y-72955405D01*
X114538884Y-72780025D01*
X114599709Y-72592826D01*
X114607162Y-72545770D01*
X114630500Y-72398422D01*
X114630500Y-72201577D01*
X114599709Y-72007173D01*
X114538882Y-71819970D01*
X114449523Y-71644594D01*
X114333828Y-71485354D01*
X114194646Y-71346172D01*
X114097813Y-71275818D01*
X114035403Y-71230474D01*
X113858787Y-71140485D01*
X113807990Y-71092511D01*
X113791195Y-71024690D01*
X113813732Y-70958555D01*
X113858787Y-70919515D01*
X114035403Y-70829525D01*
X114035402Y-70829525D01*
X114035405Y-70829524D01*
X114194646Y-70713828D01*
X114333828Y-70574646D01*
X114449524Y-70415405D01*
X114538884Y-70240025D01*
X114599709Y-70052826D01*
X114607162Y-70005770D01*
X114630500Y-69858422D01*
X114630500Y-69661577D01*
X114599709Y-69467173D01*
X114544308Y-69296669D01*
X114538884Y-69279975D01*
X114538882Y-69279972D01*
X114538882Y-69279970D01*
X114475108Y-69154807D01*
X114449524Y-69104595D01*
X114333828Y-68945354D01*
X114194646Y-68806172D01*
X114097813Y-68735818D01*
X114035403Y-68690474D01*
X113858787Y-68600485D01*
X113807990Y-68552511D01*
X113791195Y-68484690D01*
X113813732Y-68418555D01*
X113858787Y-68379515D01*
X114035403Y-68289525D01*
X114035402Y-68289525D01*
X114035405Y-68289524D01*
X114194646Y-68173828D01*
X114333828Y-68034646D01*
X114449524Y-67875405D01*
X114538884Y-67700025D01*
X114599709Y-67512826D01*
X114607162Y-67465770D01*
X114630500Y-67318422D01*
X114630500Y-67121577D01*
X114599709Y-66927173D01*
X114538882Y-66739970D01*
X114491743Y-66647455D01*
X114449524Y-66564595D01*
X114333828Y-66405354D01*
X114194646Y-66266172D01*
X114041377Y-66154815D01*
X113998714Y-66099487D01*
X113992735Y-66029873D01*
X114025341Y-65968078D01*
X114086180Y-65933721D01*
X114114264Y-65930499D01*
X114177872Y-65930499D01*
X114237483Y-65924091D01*
X114372331Y-65873796D01*
X114487546Y-65787546D01*
X114573796Y-65672331D01*
X114624091Y-65537483D01*
X114630500Y-65477873D01*
X114630499Y-63882128D01*
X114624091Y-63822517D01*
X114617477Y-63804785D01*
X114573797Y-63687671D01*
X114573793Y-63687664D01*
X114487547Y-63572455D01*
X114390188Y-63499571D01*
X114348318Y-63443637D01*
X114340500Y-63400305D01*
X114340500Y-52473426D01*
X114360185Y-52406387D01*
X114412989Y-52360632D01*
X114451245Y-52350136D01*
X114507483Y-52344091D01*
X114642331Y-52293796D01*
X114757546Y-52207546D01*
X114843796Y-52092331D01*
X114843797Y-52092326D01*
X114848047Y-52084546D01*
X114851380Y-52086366D01*
X114882292Y-52044766D01*
X114947669Y-52020116D01*
X115015994Y-52034725D01*
G37*
%TD.AperFunction*%
%TA.AperFunction,Conductor*%
G36*
X172642677Y-46920185D02*
G01*
X172663319Y-46936819D01*
X174323181Y-48596680D01*
X174356666Y-48658003D01*
X174359500Y-48684361D01*
X174359500Y-85876638D01*
X174339815Y-85943677D01*
X174323181Y-85964319D01*
X171502681Y-88784819D01*
X171441358Y-88818304D01*
X171371666Y-88813320D01*
X171315733Y-88771448D01*
X171291316Y-88705984D01*
X171291000Y-88697138D01*
X171291000Y-87720000D01*
X169891001Y-87720000D01*
X169916021Y-87659598D01*
X169941000Y-87534019D01*
X169941000Y-87405981D01*
X169916021Y-87280402D01*
X169891001Y-87220000D01*
X171291000Y-87220000D01*
X171291000Y-85922172D01*
X171290999Y-85922155D01*
X171284598Y-85862627D01*
X171284596Y-85862620D01*
X171234354Y-85727913D01*
X171234350Y-85727906D01*
X171148190Y-85612812D01*
X171148187Y-85612809D01*
X171033093Y-85526649D01*
X171033086Y-85526645D01*
X170898379Y-85476403D01*
X170898372Y-85476401D01*
X170838844Y-85470000D01*
X169541000Y-85470000D01*
X169541000Y-86869998D01*
X169480598Y-86844979D01*
X169355019Y-86820000D01*
X169226981Y-86820000D01*
X169101402Y-86844979D01*
X169041000Y-86869998D01*
X169041000Y-85470000D01*
X167743155Y-85470000D01*
X167683627Y-85476401D01*
X167683620Y-85476403D01*
X167548913Y-85526645D01*
X167548906Y-85526649D01*
X167433812Y-85612809D01*
X167433809Y-85612812D01*
X167347649Y-85727906D01*
X167347645Y-85727913D01*
X167297403Y-85862620D01*
X167297401Y-85862627D01*
X167291000Y-85922155D01*
X167291000Y-87220000D01*
X168690999Y-87220000D01*
X168665979Y-87280402D01*
X168641000Y-87405981D01*
X168641000Y-87534019D01*
X168665979Y-87659598D01*
X168690999Y-87720000D01*
X167291000Y-87720000D01*
X167291000Y-89017844D01*
X167297401Y-89077372D01*
X167297403Y-89077382D01*
X167306648Y-89102168D01*
X167311632Y-89171859D01*
X167278146Y-89233182D01*
X167216823Y-89266666D01*
X167190466Y-89269500D01*
X142824500Y-89269500D01*
X142757461Y-89249815D01*
X142711706Y-89197011D01*
X142700500Y-89145500D01*
X142700500Y-88121308D01*
X142700319Y-88120399D01*
X142700317Y-88120387D01*
X142679858Y-88017537D01*
X142665895Y-87947334D01*
X142615863Y-87826547D01*
X142615863Y-87826546D01*
X142598016Y-87783459D01*
X142598009Y-87783446D01*
X142499465Y-87635966D01*
X142457477Y-87593978D01*
X142374035Y-87510536D01*
X142305076Y-87441577D01*
X142024041Y-87160540D01*
X142024038Y-87160537D01*
X141946480Y-87108715D01*
X141876544Y-87061985D01*
X141876542Y-87061984D01*
X141794607Y-87028046D01*
X141794606Y-87028046D01*
X141712666Y-86994105D01*
X141712658Y-86994103D01*
X141538696Y-86959500D01*
X141538692Y-86959500D01*
X141538691Y-86959500D01*
X141002627Y-86959500D01*
X140935588Y-86939815D01*
X140889833Y-86887011D01*
X140879889Y-86817853D01*
X140908914Y-86754297D01*
X140928316Y-86736234D01*
X141007187Y-86677190D01*
X141007190Y-86677187D01*
X141093350Y-86562093D01*
X141093354Y-86562086D01*
X141143596Y-86427379D01*
X141143598Y-86427372D01*
X141149999Y-86367844D01*
X141150000Y-86367827D01*
X141150000Y-85570000D01*
X139833012Y-85570000D01*
X139865925Y-85512993D01*
X139900000Y-85385826D01*
X139900000Y-85254174D01*
X139865925Y-85127007D01*
X139833012Y-85070000D01*
X141150000Y-85070000D01*
X141150000Y-84272172D01*
X141149999Y-84272155D01*
X141143598Y-84212627D01*
X141143596Y-84212620D01*
X141093354Y-84077913D01*
X141093350Y-84077906D01*
X141007190Y-83962812D01*
X141007187Y-83962809D01*
X140892093Y-83876649D01*
X140892086Y-83876645D01*
X140757379Y-83826403D01*
X140757372Y-83826401D01*
X140697844Y-83820000D01*
X139650000Y-83820000D01*
X139650000Y-84886988D01*
X139592993Y-84854075D01*
X139465826Y-84820000D01*
X139334174Y-84820000D01*
X139207007Y-84854075D01*
X139150000Y-84886988D01*
X139150000Y-83820000D01*
X138102155Y-83820000D01*
X138042627Y-83826401D01*
X138042620Y-83826403D01*
X137907913Y-83876645D01*
X137907906Y-83876649D01*
X137792812Y-83962809D01*
X137792809Y-83962812D01*
X137706649Y-84077906D01*
X137706645Y-84077913D01*
X137656403Y-84212620D01*
X137656401Y-84212627D01*
X137650000Y-84272155D01*
X137650000Y-85070000D01*
X138966988Y-85070000D01*
X138934075Y-85127007D01*
X138900000Y-85254174D01*
X138900000Y-85385826D01*
X138934075Y-85512993D01*
X138966988Y-85570000D01*
X137650000Y-85570000D01*
X137650000Y-86367844D01*
X137656401Y-86427372D01*
X137656403Y-86427379D01*
X137706645Y-86562086D01*
X137706649Y-86562093D01*
X137792809Y-86677187D01*
X137792812Y-86677190D01*
X137871684Y-86736234D01*
X137913555Y-86792167D01*
X137918539Y-86861859D01*
X137885053Y-86923182D01*
X137823730Y-86956666D01*
X137797373Y-86959500D01*
X136624500Y-86959500D01*
X136557461Y-86939815D01*
X136511706Y-86887011D01*
X136500500Y-86835500D01*
X136500500Y-84981306D01*
X136500499Y-84981304D01*
X136465896Y-84807341D01*
X136465893Y-84807332D01*
X136398016Y-84643459D01*
X136398009Y-84643446D01*
X136299464Y-84495965D01*
X136299461Y-84495961D01*
X136174038Y-84370538D01*
X136174034Y-84370535D01*
X136026553Y-84271990D01*
X136026540Y-84271983D01*
X135862667Y-84204106D01*
X135862658Y-84204103D01*
X135688694Y-84169500D01*
X135688691Y-84169500D01*
X122239336Y-84169500D01*
X122172297Y-84149815D01*
X122151655Y-84133181D01*
X122064648Y-84046174D01*
X122064646Y-84046172D01*
X121967375Y-83975500D01*
X121905403Y-83930474D01*
X121728787Y-83840485D01*
X121677990Y-83792511D01*
X121661195Y-83724690D01*
X121683732Y-83658555D01*
X121728787Y-83619515D01*
X121905403Y-83529525D01*
X121905402Y-83529525D01*
X121905405Y-83529524D01*
X122064646Y-83413828D01*
X122131655Y-83346819D01*
X122192978Y-83313334D01*
X122219336Y-83310500D01*
X129113768Y-83310500D01*
X129113769Y-83310499D01*
X129278082Y-83277816D01*
X129325893Y-83258012D01*
X129432863Y-83213704D01*
X129572162Y-83120627D01*
X133087819Y-79604968D01*
X133149142Y-79571484D01*
X133218834Y-79576468D01*
X133274767Y-79618340D01*
X133299184Y-79683804D01*
X133299500Y-79692650D01*
X133299500Y-79842351D01*
X133331522Y-80044534D01*
X133394781Y-80239223D01*
X133487715Y-80421613D01*
X133608028Y-80587213D01*
X133752786Y-80731971D01*
X133907749Y-80844556D01*
X133918390Y-80852287D01*
X134027219Y-80907738D01*
X134100776Y-80945218D01*
X134100778Y-80945218D01*
X134100781Y-80945220D01*
X134205137Y-80979127D01*
X134295465Y-81008477D01*
X134396557Y-81024488D01*
X134497648Y-81040500D01*
X134497649Y-81040500D01*
X135502351Y-81040500D01*
X135502352Y-81040500D01*
X135704534Y-81008477D01*
X135899219Y-80945220D01*
X136081610Y-80852287D01*
X136213013Y-80756818D01*
X136247213Y-80731971D01*
X136247215Y-80731968D01*
X136247219Y-80731966D01*
X136302366Y-80676819D01*
X136363689Y-80643334D01*
X136390047Y-80640500D01*
X138089664Y-80640500D01*
X138156703Y-80660185D01*
X138193472Y-80696677D01*
X138211836Y-80724785D01*
X138380256Y-80907738D01*
X138576491Y-81060474D01*
X138576493Y-81060475D01*
X138787848Y-81174855D01*
X138795190Y-81178828D01*
X139030386Y-81259571D01*
X139275665Y-81300500D01*
X139524335Y-81300500D01*
X139769614Y-81259571D01*
X140004810Y-81178828D01*
X140223509Y-81060474D01*
X140419744Y-80907738D01*
X140588164Y-80724785D01*
X140724173Y-80516607D01*
X140824063Y-80288881D01*
X140885108Y-80047821D01*
X140885109Y-80047812D01*
X140905643Y-79800005D01*
X140905643Y-79799994D01*
X140885109Y-79552187D01*
X140885107Y-79552175D01*
X140824063Y-79311118D01*
X140724173Y-79083393D01*
X140588166Y-78875217D01*
X140521852Y-78803181D01*
X140419744Y-78692262D01*
X140223509Y-78539526D01*
X140223507Y-78539525D01*
X140223506Y-78539524D01*
X140004811Y-78421172D01*
X140004802Y-78421169D01*
X139769616Y-78340429D01*
X139524335Y-78299500D01*
X139275665Y-78299500D01*
X139030383Y-78340429D01*
X138795197Y-78421169D01*
X138795188Y-78421172D01*
X138576493Y-78539524D01*
X138380255Y-78692262D01*
X138380252Y-78692265D01*
X138281551Y-78799483D01*
X138221664Y-78835474D01*
X138190322Y-78839500D01*
X136390047Y-78839500D01*
X136323008Y-78819815D01*
X136302366Y-78803181D01*
X136247213Y-78748028D01*
X136081614Y-78627715D01*
X136026649Y-78599709D01*
X135988917Y-78580483D01*
X135938123Y-78532511D01*
X135921328Y-78464690D01*
X135943865Y-78398555D01*
X135988917Y-78359516D01*
X136081610Y-78312287D01*
X136192608Y-78231643D01*
X136247213Y-78191971D01*
X136247215Y-78191968D01*
X136247219Y-78191966D01*
X136352366Y-78086819D01*
X136413689Y-78053334D01*
X136440047Y-78050500D01*
X154393349Y-78050500D01*
X154460388Y-78070185D01*
X154481030Y-78086819D01*
X158286169Y-81891957D01*
X158319654Y-81953280D01*
X158319379Y-82007231D01*
X158284197Y-82161372D01*
X158264592Y-82422995D01*
X158264592Y-82423004D01*
X158284196Y-82684620D01*
X158284197Y-82684625D01*
X158342576Y-82940402D01*
X158342578Y-82940411D01*
X158342580Y-82940416D01*
X158438432Y-83184643D01*
X158569614Y-83411857D01*
X158691691Y-83564937D01*
X158733198Y-83616985D01*
X158876016Y-83749499D01*
X158925521Y-83795433D01*
X159142296Y-83943228D01*
X159142301Y-83943230D01*
X159142302Y-83943231D01*
X159142303Y-83943232D01*
X159258727Y-83999298D01*
X159378673Y-84057061D01*
X159378674Y-84057061D01*
X159378677Y-84057063D01*
X159629385Y-84134396D01*
X159888818Y-84173500D01*
X160151182Y-84173500D01*
X160410615Y-84134396D01*
X160661323Y-84057063D01*
X160897704Y-83943228D01*
X161114479Y-83795433D01*
X161306805Y-83616981D01*
X161470386Y-83411857D01*
X161514470Y-83335501D01*
X161565036Y-83287285D01*
X161621857Y-83273500D01*
X167376864Y-83273500D01*
X167443903Y-83293185D01*
X167485696Y-83338073D01*
X167603770Y-83554309D01*
X167603775Y-83554317D01*
X167775254Y-83783387D01*
X167775270Y-83783405D01*
X167977594Y-83985729D01*
X167977612Y-83985745D01*
X168206682Y-84157224D01*
X168206690Y-84157229D01*
X168457833Y-84294364D01*
X168457832Y-84294364D01*
X168457836Y-84294365D01*
X168457839Y-84294367D01*
X168725954Y-84394369D01*
X168725960Y-84394370D01*
X168725962Y-84394371D01*
X169005566Y-84455195D01*
X169005568Y-84455195D01*
X169005572Y-84455196D01*
X169259220Y-84473337D01*
X169290999Y-84475610D01*
X169291000Y-84475610D01*
X169291001Y-84475610D01*
X169319595Y-84473564D01*
X169576428Y-84455196D01*
X169856046Y-84394369D01*
X170124161Y-84294367D01*
X170375315Y-84157226D01*
X170604395Y-83985739D01*
X170806739Y-83783395D01*
X170978226Y-83554315D01*
X171115367Y-83303161D01*
X171215369Y-83035046D01*
X171235954Y-82940416D01*
X171276195Y-82755433D01*
X171276195Y-82755432D01*
X171276196Y-82755428D01*
X171296610Y-82470000D01*
X171276196Y-82184572D01*
X171272411Y-82167174D01*
X171215371Y-81904962D01*
X171215370Y-81904960D01*
X171215369Y-81904954D01*
X171115367Y-81636839D01*
X171098891Y-81606666D01*
X170978229Y-81385690D01*
X170978224Y-81385682D01*
X170806745Y-81156612D01*
X170806729Y-81156594D01*
X170604405Y-80954270D01*
X170604387Y-80954254D01*
X170375317Y-80782775D01*
X170375309Y-80782770D01*
X170124166Y-80645635D01*
X170124167Y-80645635D01*
X169967531Y-80587213D01*
X169856046Y-80545631D01*
X169856043Y-80545630D01*
X169856037Y-80545628D01*
X169576433Y-80484804D01*
X169291001Y-80464390D01*
X169290999Y-80464390D01*
X169005566Y-80484804D01*
X168725962Y-80545628D01*
X168457833Y-80645635D01*
X168206690Y-80782770D01*
X168206682Y-80782775D01*
X167977612Y-80954254D01*
X167977594Y-80954270D01*
X167775270Y-81156594D01*
X167775254Y-81156612D01*
X167603775Y-81385682D01*
X167603770Y-81385690D01*
X167537024Y-81507927D01*
X167487619Y-81557332D01*
X167428192Y-81572500D01*
X162372651Y-81572500D01*
X162305612Y-81552815D01*
X162259857Y-81500011D01*
X162249913Y-81430853D01*
X162278938Y-81367297D01*
X162284970Y-81360819D01*
X164842608Y-78803181D01*
X167407318Y-76238469D01*
X167468641Y-76204985D01*
X167538333Y-76209969D01*
X167594266Y-76251841D01*
X167618683Y-76317305D01*
X167603831Y-76385578D01*
X167466635Y-76636832D01*
X167366628Y-76904962D01*
X167305804Y-77184566D01*
X167285390Y-77469998D01*
X167285390Y-77470001D01*
X167305804Y-77755433D01*
X167366628Y-78035037D01*
X167366630Y-78035043D01*
X167366631Y-78035046D01*
X167460910Y-78287816D01*
X167466635Y-78303166D01*
X167603770Y-78554309D01*
X167603775Y-78554317D01*
X167775254Y-78783387D01*
X167775270Y-78783405D01*
X167977594Y-78985729D01*
X167977612Y-78985745D01*
X168206682Y-79157224D01*
X168206690Y-79157229D01*
X168457833Y-79294364D01*
X168457832Y-79294364D01*
X168457836Y-79294365D01*
X168457839Y-79294367D01*
X168725954Y-79394369D01*
X168725960Y-79394370D01*
X168725962Y-79394371D01*
X169005566Y-79455195D01*
X169005568Y-79455195D01*
X169005572Y-79455196D01*
X169259220Y-79473337D01*
X169290999Y-79475610D01*
X169291000Y-79475610D01*
X169291001Y-79475610D01*
X169319595Y-79473564D01*
X169576428Y-79455196D01*
X169667131Y-79435465D01*
X169856037Y-79394371D01*
X169856037Y-79394370D01*
X169856046Y-79394369D01*
X170124161Y-79294367D01*
X170375315Y-79157226D01*
X170604395Y-78985739D01*
X170806739Y-78783395D01*
X170978226Y-78554315D01*
X171115367Y-78303161D01*
X171215369Y-78035046D01*
X171276196Y-77755428D01*
X171296610Y-77470000D01*
X171276196Y-77184572D01*
X171265343Y-77134683D01*
X171222766Y-76938957D01*
X171215369Y-76904954D01*
X171200692Y-76865606D01*
X171195709Y-76795915D01*
X171229192Y-76734595D01*
X172557627Y-75406162D01*
X172650704Y-75266862D01*
X172714816Y-75112081D01*
X172725176Y-75060000D01*
X172747499Y-74947770D01*
X172747500Y-74947767D01*
X172747500Y-69613201D01*
X172747499Y-69613197D01*
X172714818Y-69448894D01*
X172714815Y-69448885D01*
X172691327Y-69392179D01*
X172650707Y-69294112D01*
X172650705Y-69294109D01*
X172650704Y-69294106D01*
X172557626Y-69154807D01*
X172557622Y-69154803D01*
X172557620Y-69154800D01*
X172557619Y-69154799D01*
X171531196Y-68128375D01*
X171531192Y-68128372D01*
X171391897Y-68035297D01*
X171391894Y-68035296D01*
X171282447Y-67989962D01*
X171282445Y-67989961D01*
X171237117Y-67971185D01*
X171237105Y-67971182D01*
X171072802Y-67938500D01*
X171072798Y-67938500D01*
X169621202Y-67938500D01*
X169621197Y-67938500D01*
X169456894Y-67971182D01*
X169456882Y-67971185D01*
X169392774Y-67997739D01*
X169392775Y-67997740D01*
X169302109Y-68035294D01*
X169302100Y-68035299D01*
X169162807Y-68128372D01*
X169162803Y-68128375D01*
X168288997Y-69002181D01*
X168227674Y-69035666D01*
X168201316Y-69038500D01*
X166959129Y-69038500D01*
X166959123Y-69038501D01*
X166899516Y-69044908D01*
X166764671Y-69095202D01*
X166764664Y-69095206D01*
X166649455Y-69181452D01*
X166649452Y-69181455D01*
X166563206Y-69296664D01*
X166563202Y-69296671D01*
X166512908Y-69431517D01*
X166506501Y-69491116D01*
X166506500Y-69491135D01*
X166506500Y-69836846D01*
X166486815Y-69903885D01*
X166434011Y-69949640D01*
X166429953Y-69951407D01*
X166348139Y-69985295D01*
X166208837Y-70078373D01*
X166208834Y-70078376D01*
X160553624Y-75733585D01*
X160492301Y-75767070D01*
X160429398Y-75764396D01*
X160410632Y-75758608D01*
X160410620Y-75758605D01*
X160410615Y-75758604D01*
X160285823Y-75739794D01*
X160151187Y-75719500D01*
X160151182Y-75719500D01*
X159888818Y-75719500D01*
X159888812Y-75719500D01*
X159727247Y-75743853D01*
X159629385Y-75758604D01*
X159629382Y-75758605D01*
X159629376Y-75758606D01*
X159378673Y-75835938D01*
X159142303Y-75949767D01*
X159142302Y-75949768D01*
X158925520Y-76097567D01*
X158733198Y-76276014D01*
X158569612Y-76481145D01*
X158525530Y-76557499D01*
X158474964Y-76605715D01*
X158418143Y-76619500D01*
X157883650Y-76619500D01*
X157816611Y-76599815D01*
X157795969Y-76583181D01*
X155212165Y-73999375D01*
X155212161Y-73999372D01*
X155072866Y-73906297D01*
X155072863Y-73906296D01*
X154945084Y-73853368D01*
X154945084Y-73853369D01*
X154945082Y-73853368D01*
X154918082Y-73842184D01*
X154918077Y-73842183D01*
X154918074Y-73842182D01*
X154753771Y-73809500D01*
X154753767Y-73809500D01*
X136440047Y-73809500D01*
X136373008Y-73789815D01*
X136352366Y-73773181D01*
X136247213Y-73668028D01*
X136081614Y-73547715D01*
X136026649Y-73519709D01*
X135988917Y-73500483D01*
X135938123Y-73452511D01*
X135921328Y-73384690D01*
X135943865Y-73318555D01*
X135988917Y-73279516D01*
X136081610Y-73232287D01*
X136102770Y-73216913D01*
X136247213Y-73111971D01*
X136247215Y-73111968D01*
X136247219Y-73111966D01*
X136391966Y-72967219D01*
X136391968Y-72967215D01*
X136391971Y-72967213D01*
X136456910Y-72877830D01*
X136512287Y-72801610D01*
X136605220Y-72619219D01*
X136668477Y-72424534D01*
X136700500Y-72222352D01*
X136700500Y-72017648D01*
X136669191Y-71819975D01*
X136668477Y-71815465D01*
X136639127Y-71725137D01*
X136605220Y-71620781D01*
X136605218Y-71620778D01*
X136605218Y-71620776D01*
X136560348Y-71532715D01*
X136512287Y-71438390D01*
X136445289Y-71346174D01*
X136391971Y-71272786D01*
X136247213Y-71128028D01*
X136081613Y-71007715D01*
X136081612Y-71007714D01*
X136081610Y-71007713D01*
X136002666Y-70967489D01*
X135899223Y-70914781D01*
X135704534Y-70851522D01*
X135529995Y-70823878D01*
X135502352Y-70819500D01*
X134497648Y-70819500D01*
X134473329Y-70823351D01*
X134295465Y-70851522D01*
X134100776Y-70914781D01*
X133918386Y-71007715D01*
X133752786Y-71128028D01*
X133608028Y-71272786D01*
X133487715Y-71438386D01*
X133394781Y-71620776D01*
X133331522Y-71815465D01*
X133299500Y-72017648D01*
X133299500Y-72166348D01*
X133279815Y-72233387D01*
X133263181Y-72254029D01*
X132389375Y-73127834D01*
X132389372Y-73127838D01*
X132296297Y-73267133D01*
X132296296Y-73267136D01*
X132252018Y-73374034D01*
X132252018Y-73374035D01*
X132232184Y-73421917D01*
X132232182Y-73421925D01*
X132199500Y-73586228D01*
X132199500Y-78036349D01*
X132179815Y-78103388D01*
X132163181Y-78124030D01*
X128714030Y-81573181D01*
X128652707Y-81606666D01*
X128626349Y-81609500D01*
X122219336Y-81609500D01*
X122152297Y-81589815D01*
X122131655Y-81573181D01*
X122064648Y-81506174D01*
X122064646Y-81506172D01*
X121960979Y-81430853D01*
X121905403Y-81390474D01*
X121728787Y-81300485D01*
X121677990Y-81252511D01*
X121661195Y-81184690D01*
X121683732Y-81118555D01*
X121728787Y-81079515D01*
X121905403Y-80989525D01*
X121905402Y-80989525D01*
X121905405Y-80989524D01*
X122064646Y-80873828D01*
X122203828Y-80734646D01*
X122319524Y-80575405D01*
X122408884Y-80400025D01*
X122469709Y-80212826D01*
X122477162Y-80165770D01*
X122500500Y-80018422D01*
X122500500Y-79821577D01*
X122469709Y-79627173D01*
X122441487Y-79540317D01*
X122408884Y-79439975D01*
X122408882Y-79439972D01*
X122408882Y-79439970D01*
X122343229Y-79311119D01*
X122319524Y-79264595D01*
X122203828Y-79105354D01*
X122064646Y-78966172D01*
X121967813Y-78895818D01*
X121905403Y-78850474D01*
X121728787Y-78760485D01*
X121677990Y-78712511D01*
X121661195Y-78644690D01*
X121683732Y-78578555D01*
X121728787Y-78539515D01*
X121905403Y-78449525D01*
X121905402Y-78449525D01*
X121905405Y-78449524D01*
X122064646Y-78333828D01*
X122203828Y-78194646D01*
X122319524Y-78035405D01*
X122408884Y-77860025D01*
X122429157Y-77797628D01*
X122468595Y-77739955D01*
X122532954Y-77712757D01*
X122601800Y-77724672D01*
X122634769Y-77748268D01*
X125200536Y-80314035D01*
X125286526Y-80400025D01*
X125325966Y-80439465D01*
X125473446Y-80538009D01*
X125473459Y-80538016D01*
X125563726Y-80575405D01*
X125637334Y-80605894D01*
X125637336Y-80605894D01*
X125637341Y-80605896D01*
X125811304Y-80640499D01*
X125811307Y-80640500D01*
X125811309Y-80640500D01*
X125989953Y-80640500D01*
X126056992Y-80660185D01*
X126077634Y-80676819D01*
X126132786Y-80731971D01*
X126287749Y-80844556D01*
X126298390Y-80852287D01*
X126407219Y-80907738D01*
X126480776Y-80945218D01*
X126480778Y-80945218D01*
X126480781Y-80945220D01*
X126585137Y-80979127D01*
X126675465Y-81008477D01*
X126776557Y-81024488D01*
X126877648Y-81040500D01*
X126877649Y-81040500D01*
X127882351Y-81040500D01*
X127882352Y-81040500D01*
X128084534Y-81008477D01*
X128279219Y-80945220D01*
X128461610Y-80852287D01*
X128593013Y-80756818D01*
X128627213Y-80731971D01*
X128627215Y-80731968D01*
X128627219Y-80731966D01*
X128771966Y-80587219D01*
X128771968Y-80587215D01*
X128771971Y-80587213D01*
X128846374Y-80484804D01*
X128892287Y-80421610D01*
X128985220Y-80239219D01*
X129048477Y-80044534D01*
X129080500Y-79842352D01*
X129080500Y-79637648D01*
X129070810Y-79576468D01*
X129048477Y-79435465D01*
X129002630Y-79294364D01*
X128985220Y-79240781D01*
X128985218Y-79240778D01*
X128985218Y-79240776D01*
X128942648Y-79157229D01*
X128892287Y-79058390D01*
X128839508Y-78985745D01*
X128771971Y-78892786D01*
X128627213Y-78748028D01*
X128461614Y-78627715D01*
X128406649Y-78599709D01*
X128368917Y-78580483D01*
X128318123Y-78532511D01*
X128301328Y-78464690D01*
X128323865Y-78398555D01*
X128368917Y-78359516D01*
X128461610Y-78312287D01*
X128572608Y-78231643D01*
X128627213Y-78191971D01*
X128627215Y-78191968D01*
X128627219Y-78191966D01*
X128682366Y-78136819D01*
X128743689Y-78103334D01*
X128770047Y-78100500D01*
X129898693Y-78100500D01*
X129898694Y-78100499D01*
X130072666Y-78065895D01*
X130154606Y-78031953D01*
X130236547Y-77998013D01*
X130236549Y-77998011D01*
X130236552Y-77998010D01*
X130324955Y-77938939D01*
X130324955Y-77938938D01*
X130324959Y-77938936D01*
X130384036Y-77899464D01*
X131509464Y-76774035D01*
X131545236Y-76720499D01*
X131608013Y-76626547D01*
X131633361Y-76565351D01*
X131644121Y-76539375D01*
X131644121Y-76539374D01*
X131652813Y-76518390D01*
X131675895Y-76462666D01*
X131710500Y-76288691D01*
X131710500Y-76111308D01*
X131710500Y-70274361D01*
X131730185Y-70207322D01*
X131746819Y-70186680D01*
X135099464Y-66834035D01*
X135162313Y-66739975D01*
X135162316Y-66739970D01*
X135198013Y-66686547D01*
X135248527Y-66564595D01*
X135248528Y-66564594D01*
X135265893Y-66522670D01*
X135265895Y-66522666D01*
X135300500Y-66348691D01*
X135300500Y-66171308D01*
X135300500Y-65661169D01*
X135320185Y-65594130D01*
X135348338Y-65563315D01*
X135419744Y-65507738D01*
X135588164Y-65324785D01*
X135724173Y-65116607D01*
X135824063Y-64888881D01*
X135885108Y-64647821D01*
X135885116Y-64647729D01*
X135905643Y-64400005D01*
X135905643Y-64399994D01*
X135885109Y-64152187D01*
X135885107Y-64152175D01*
X135824063Y-63911118D01*
X135724173Y-63683393D01*
X135588166Y-63475217D01*
X135541821Y-63424873D01*
X135419744Y-63292262D01*
X135362295Y-63247547D01*
X135348337Y-63236683D01*
X135307524Y-63179972D01*
X135300500Y-63138830D01*
X135300500Y-61004144D01*
X135320185Y-60937105D01*
X135348336Y-60906291D01*
X135389162Y-60874516D01*
X135512516Y-60740517D01*
X135572403Y-60704527D01*
X135603746Y-60700500D01*
X142519447Y-60700500D01*
X142586486Y-60720185D01*
X142631829Y-60772095D01*
X142669431Y-60852732D01*
X142669432Y-60852734D01*
X142799954Y-61039141D01*
X142960858Y-61200045D01*
X142960861Y-61200047D01*
X143147266Y-61330568D01*
X143353504Y-61426739D01*
X143573308Y-61485635D01*
X143735230Y-61499801D01*
X143799998Y-61505468D01*
X143800000Y-61505468D01*
X143800002Y-61505468D01*
X143856673Y-61500509D01*
X144026692Y-61485635D01*
X144246496Y-61426739D01*
X144452734Y-61330568D01*
X144639139Y-61200047D01*
X144800047Y-61039139D01*
X144930568Y-60852734D01*
X145026739Y-60646496D01*
X145085635Y-60426692D01*
X145104599Y-60209924D01*
X145130051Y-60144857D01*
X145140438Y-60133060D01*
X149284156Y-55989341D01*
X149345477Y-55955858D01*
X149415169Y-55960842D01*
X149471102Y-56002714D01*
X149495519Y-56068178D01*
X149495412Y-56087258D01*
X149494357Y-56099997D01*
X149494357Y-56100005D01*
X149514890Y-56347812D01*
X149514892Y-56347824D01*
X149575936Y-56588881D01*
X149675826Y-56816606D01*
X149811833Y-57024782D01*
X149811836Y-57024785D01*
X149980256Y-57207738D01*
X150176491Y-57360474D01*
X150395190Y-57478828D01*
X150630386Y-57559571D01*
X150875665Y-57600500D01*
X151124336Y-57600500D01*
X151130595Y-57599455D01*
X151149358Y-57596324D01*
X151218722Y-57604704D01*
X151257451Y-57630951D01*
X151383181Y-57756681D01*
X151416666Y-57818004D01*
X151419500Y-57844362D01*
X151419500Y-58491744D01*
X151399815Y-58558783D01*
X151383461Y-58578241D01*
X151383730Y-58578489D01*
X151380258Y-58582260D01*
X151380256Y-58582262D01*
X151318373Y-58649484D01*
X151211833Y-58765217D01*
X151075826Y-58973393D01*
X150975936Y-59201118D01*
X150914892Y-59442175D01*
X150914890Y-59442187D01*
X150894357Y-59689994D01*
X150894357Y-59690005D01*
X150914890Y-59937812D01*
X150914892Y-59937824D01*
X150975936Y-60178881D01*
X151075826Y-60406606D01*
X151211833Y-60614782D01*
X151211836Y-60614785D01*
X151380256Y-60797738D01*
X151380258Y-60797739D01*
X151383730Y-60801511D01*
X151382728Y-60802433D01*
X151415470Y-60856897D01*
X151419500Y-60888255D01*
X151419500Y-62738830D01*
X151399815Y-62805869D01*
X151371663Y-62836683D01*
X151300258Y-62892260D01*
X151300256Y-62892261D01*
X151300256Y-62892262D01*
X151146317Y-63059483D01*
X151086432Y-63095473D01*
X151055089Y-63099500D01*
X149431304Y-63099500D01*
X149257339Y-63134103D01*
X149257323Y-63134108D01*
X149141453Y-63182102D01*
X149141454Y-63182103D01*
X149093454Y-63201986D01*
X149027139Y-63246297D01*
X148945965Y-63300535D01*
X148945961Y-63300538D01*
X144528522Y-67717977D01*
X143543319Y-68703181D01*
X143481996Y-68736666D01*
X143455638Y-68739500D01*
X140664911Y-68739500D01*
X140597872Y-68719815D01*
X140573684Y-68699485D01*
X140419744Y-68532262D01*
X140223509Y-68379526D01*
X140223507Y-68379525D01*
X140223506Y-68379524D01*
X140004811Y-68261172D01*
X140004802Y-68261169D01*
X139769616Y-68180429D01*
X139524335Y-68139500D01*
X139275665Y-68139500D01*
X139030383Y-68180429D01*
X138795197Y-68261169D01*
X138795188Y-68261172D01*
X138576493Y-68379524D01*
X138380257Y-68532261D01*
X138211833Y-68715217D01*
X138075826Y-68923393D01*
X137975936Y-69151118D01*
X137914892Y-69392175D01*
X137914890Y-69392187D01*
X137894357Y-69639994D01*
X137894357Y-69640005D01*
X137914890Y-69887812D01*
X137914892Y-69887824D01*
X137975936Y-70128881D01*
X138075826Y-70356606D01*
X138211833Y-70564782D01*
X138226013Y-70580185D01*
X138380256Y-70747738D01*
X138576491Y-70900474D01*
X138576493Y-70900475D01*
X138787848Y-71014855D01*
X138795190Y-71018828D01*
X139030386Y-71099571D01*
X139275665Y-71140500D01*
X139524335Y-71140500D01*
X139769614Y-71099571D01*
X140004810Y-71018828D01*
X140223509Y-70900474D01*
X140419744Y-70747738D01*
X140573682Y-70580516D01*
X140633568Y-70544527D01*
X140664911Y-70540500D01*
X143968693Y-70540500D01*
X143968694Y-70540499D01*
X144142666Y-70505895D01*
X144236005Y-70467232D01*
X144306547Y-70438013D01*
X144394959Y-70378936D01*
X144454036Y-70339464D01*
X145819464Y-68974036D01*
X145819464Y-68974035D01*
X149856680Y-64936819D01*
X149918003Y-64903334D01*
X149944361Y-64900500D01*
X151055089Y-64900500D01*
X151122128Y-64920185D01*
X151146315Y-64940514D01*
X151300256Y-65107738D01*
X151496491Y-65260474D01*
X151715190Y-65378828D01*
X151950386Y-65459571D01*
X152195665Y-65500500D01*
X152444335Y-65500500D01*
X152689614Y-65459571D01*
X152924810Y-65378828D01*
X153143509Y-65260474D01*
X153339744Y-65107738D01*
X153508164Y-64924785D01*
X153644173Y-64716607D01*
X153744063Y-64488881D01*
X153805108Y-64247821D01*
X153813026Y-64152270D01*
X153825643Y-64000005D01*
X160974357Y-64000005D01*
X160994890Y-64247812D01*
X160994892Y-64247824D01*
X161055936Y-64488881D01*
X161155826Y-64716606D01*
X161291833Y-64924782D01*
X161291836Y-64924785D01*
X161460256Y-65107738D01*
X161656491Y-65260474D01*
X161875190Y-65378828D01*
X162110386Y-65459571D01*
X162355665Y-65500500D01*
X162604335Y-65500500D01*
X162849614Y-65459571D01*
X163084810Y-65378828D01*
X163303509Y-65260474D01*
X163499744Y-65107738D01*
X163668164Y-64924785D01*
X163679995Y-64906675D01*
X163733141Y-64861321D01*
X163783802Y-64850500D01*
X167009768Y-64850500D01*
X167009769Y-64850499D01*
X167174082Y-64817816D01*
X167221890Y-64798013D01*
X167317224Y-64758524D01*
X167386691Y-64751056D01*
X167402977Y-64755151D01*
X167502466Y-64787477D01*
X167704648Y-64819500D01*
X167704649Y-64819500D01*
X167909351Y-64819500D01*
X167909352Y-64819500D01*
X168111534Y-64787477D01*
X168306219Y-64724220D01*
X168488610Y-64631287D01*
X168649804Y-64514174D01*
X168654213Y-64510971D01*
X168654215Y-64510968D01*
X168654219Y-64510966D01*
X168798966Y-64366219D01*
X168798968Y-64366215D01*
X168798971Y-64366213D01*
X168919284Y-64200614D01*
X168919285Y-64200613D01*
X168919287Y-64200610D01*
X168966516Y-64107917D01*
X169014489Y-64057123D01*
X169082310Y-64040328D01*
X169148445Y-64062865D01*
X169187483Y-64107917D01*
X169204072Y-64140474D01*
X169234715Y-64200614D01*
X169355028Y-64366213D01*
X169499786Y-64510971D01*
X169654749Y-64623556D01*
X169665390Y-64631287D01*
X169781607Y-64690503D01*
X169847776Y-64724218D01*
X169847778Y-64724218D01*
X169847781Y-64724220D01*
X169942989Y-64755155D01*
X170042465Y-64787477D01*
X170108999Y-64798015D01*
X170244648Y-64819500D01*
X170244649Y-64819500D01*
X170449351Y-64819500D01*
X170449352Y-64819500D01*
X170651534Y-64787477D01*
X170846219Y-64724220D01*
X171028610Y-64631287D01*
X171189804Y-64514174D01*
X171194213Y-64510971D01*
X171194215Y-64510968D01*
X171194219Y-64510966D01*
X171338966Y-64366219D01*
X171338968Y-64366215D01*
X171338971Y-64366213D01*
X171424993Y-64247812D01*
X171459287Y-64200610D01*
X171552220Y-64018219D01*
X171615477Y-63823534D01*
X171647500Y-63621352D01*
X171647500Y-62616648D01*
X171615477Y-62414466D01*
X171552220Y-62219781D01*
X171552218Y-62219778D01*
X171552218Y-62219776D01*
X171497297Y-62111989D01*
X171459287Y-62037390D01*
X171417228Y-61979500D01*
X171338971Y-61871786D01*
X171194215Y-61727030D01*
X171154448Y-61698139D01*
X171112771Y-61645273D01*
X171100703Y-61616137D01*
X171036528Y-61520092D01*
X171007627Y-61476839D01*
X170949288Y-61418500D01*
X170889162Y-61358374D01*
X170328526Y-60797738D01*
X168560165Y-59029375D01*
X168560161Y-59029372D01*
X168420866Y-58936297D01*
X168420863Y-58936296D01*
X168311416Y-58890962D01*
X168311414Y-58890961D01*
X168266086Y-58872185D01*
X168266074Y-58872182D01*
X168101771Y-58839500D01*
X168101767Y-58839500D01*
X163863802Y-58839500D01*
X163796763Y-58819815D01*
X163759995Y-58783324D01*
X163748164Y-58765215D01*
X163579744Y-58582262D01*
X163383509Y-58429526D01*
X163383507Y-58429525D01*
X163383506Y-58429524D01*
X163164811Y-58311172D01*
X163164802Y-58311169D01*
X162929616Y-58230429D01*
X162684335Y-58189500D01*
X162435665Y-58189500D01*
X162190383Y-58230429D01*
X161955197Y-58311169D01*
X161955188Y-58311172D01*
X161736493Y-58429524D01*
X161540257Y-58582261D01*
X161371833Y-58765217D01*
X161235826Y-58973393D01*
X161135936Y-59201118D01*
X161074892Y-59442175D01*
X161074890Y-59442187D01*
X161054357Y-59689994D01*
X161054357Y-59690005D01*
X161074890Y-59937812D01*
X161074892Y-59937824D01*
X161135936Y-60178881D01*
X161235826Y-60406606D01*
X161371833Y-60614782D01*
X161371836Y-60614785D01*
X161540256Y-60797738D01*
X161736491Y-60950474D01*
X161736493Y-60950475D01*
X161900329Y-61039139D01*
X161955190Y-61068828D01*
X162190386Y-61149571D01*
X162435665Y-61190500D01*
X162684335Y-61190500D01*
X162929614Y-61149571D01*
X163164810Y-61068828D01*
X163383509Y-60950474D01*
X163579744Y-60797738D01*
X163748164Y-60614785D01*
X163759995Y-60596675D01*
X163813141Y-60551321D01*
X163863802Y-60540500D01*
X167614349Y-60540500D01*
X167681388Y-60560185D01*
X167702030Y-60576819D01*
X168433938Y-61308727D01*
X168467423Y-61370050D01*
X168462439Y-61439742D01*
X168420567Y-61495675D01*
X168355103Y-61520092D01*
X168307938Y-61514339D01*
X168306221Y-61513781D01*
X168306219Y-61513780D01*
X168219598Y-61485635D01*
X168111534Y-61450522D01*
X167936995Y-61422878D01*
X167909352Y-61418500D01*
X167704648Y-61418500D01*
X167692469Y-61420429D01*
X167502465Y-61450522D01*
X167307776Y-61513781D01*
X167125386Y-61606715D01*
X166959786Y-61727028D01*
X166815028Y-61871786D01*
X166694715Y-62037386D01*
X166601781Y-62219776D01*
X166538522Y-62414465D01*
X166506500Y-62616648D01*
X166506500Y-63025500D01*
X166486815Y-63092539D01*
X166434011Y-63138294D01*
X166382500Y-63149500D01*
X163783802Y-63149500D01*
X163716763Y-63129815D01*
X163679995Y-63093324D01*
X163668164Y-63075215D01*
X163499744Y-62892262D01*
X163303509Y-62739526D01*
X163303507Y-62739525D01*
X163303506Y-62739524D01*
X163084811Y-62621172D01*
X163084802Y-62621169D01*
X162849616Y-62540429D01*
X162604335Y-62499500D01*
X162355665Y-62499500D01*
X162110383Y-62540429D01*
X161875197Y-62621169D01*
X161875188Y-62621172D01*
X161656493Y-62739524D01*
X161460257Y-62892261D01*
X161291833Y-63075217D01*
X161155826Y-63283393D01*
X161055936Y-63511118D01*
X160994892Y-63752175D01*
X160994890Y-63752187D01*
X160974357Y-63999994D01*
X160974357Y-64000005D01*
X153825643Y-64000005D01*
X153825643Y-63999994D01*
X153805109Y-63752187D01*
X153805107Y-63752175D01*
X153744063Y-63511118D01*
X153644173Y-63283393D01*
X153508166Y-63075217D01*
X153458837Y-63021632D01*
X153339744Y-62892262D01*
X153268337Y-62836683D01*
X153227524Y-62779972D01*
X153220500Y-62738830D01*
X153220500Y-61013435D01*
X153240185Y-60946396D01*
X153268334Y-60915584D01*
X153419744Y-60797738D01*
X153588164Y-60614785D01*
X153724173Y-60406607D01*
X153824063Y-60178881D01*
X153885108Y-59937821D01*
X153905643Y-59690000D01*
X153885108Y-59442179D01*
X153824063Y-59201119D01*
X153724173Y-58973393D01*
X153699937Y-58936297D01*
X153588166Y-58765217D01*
X153551587Y-58725482D01*
X153419744Y-58582262D01*
X153380500Y-58551717D01*
X153268337Y-58464416D01*
X153227524Y-58407705D01*
X153220500Y-58366563D01*
X153220500Y-57331307D01*
X153220499Y-57331303D01*
X153185896Y-57157341D01*
X153185895Y-57157334D01*
X153151953Y-57075393D01*
X153118013Y-56993453D01*
X153054242Y-56898013D01*
X153019464Y-56845964D01*
X153019462Y-56845961D01*
X153019461Y-56845960D01*
X152528520Y-56355020D01*
X152495035Y-56293697D01*
X152492625Y-56257098D01*
X152505643Y-56100004D01*
X152505643Y-56099994D01*
X152485109Y-55852187D01*
X152485107Y-55852175D01*
X152424063Y-55611118D01*
X152324174Y-55383396D01*
X152324173Y-55383393D01*
X152264672Y-55292320D01*
X152244486Y-55225432D01*
X152263666Y-55158246D01*
X152316124Y-55112096D01*
X152368482Y-55100500D01*
X156888693Y-55100500D01*
X156888694Y-55100499D01*
X157062666Y-55065895D01*
X157144606Y-55031953D01*
X157226547Y-54998013D01*
X157226549Y-54998011D01*
X157226552Y-54998010D01*
X157314955Y-54938939D01*
X157314955Y-54938938D01*
X157314959Y-54938936D01*
X157374036Y-54899464D01*
X164236681Y-48036817D01*
X164298004Y-48003333D01*
X164324362Y-48000499D01*
X166547871Y-48000499D01*
X166547872Y-48000499D01*
X166607483Y-47994091D01*
X166742331Y-47943796D01*
X166857546Y-47857546D01*
X166943796Y-47742331D01*
X166994091Y-47607483D01*
X167000500Y-47547873D01*
X167000500Y-47024500D01*
X167020185Y-46957461D01*
X167072989Y-46911706D01*
X167124500Y-46900500D01*
X172575638Y-46900500D01*
X172642677Y-46920185D01*
G37*
%TD.AperFunction*%
%TA.AperFunction,Conductor*%
G36*
X134642539Y-85990185D02*
G01*
X134688294Y-86042989D01*
X134699500Y-86094500D01*
X134699500Y-87948695D01*
X134734103Y-88122658D01*
X134734106Y-88122667D01*
X134801983Y-88286540D01*
X134801990Y-88286553D01*
X134900535Y-88434034D01*
X134900538Y-88434038D01*
X135025961Y-88559461D01*
X135025965Y-88559464D01*
X135173446Y-88658009D01*
X135173459Y-88658016D01*
X135234726Y-88683393D01*
X135337334Y-88725894D01*
X135337336Y-88725894D01*
X135337341Y-88725896D01*
X135511304Y-88760499D01*
X135511307Y-88760500D01*
X135511309Y-88760500D01*
X135688691Y-88760500D01*
X137886351Y-88760500D01*
X137953390Y-88780185D01*
X137986667Y-88811612D01*
X138005483Y-88837510D01*
X138005485Y-88837512D01*
X138135792Y-88967819D01*
X138169277Y-89029142D01*
X138164293Y-89098834D01*
X138122421Y-89154767D01*
X138056957Y-89179184D01*
X138048111Y-89179500D01*
X122169336Y-89179500D01*
X122102297Y-89159815D01*
X122081655Y-89143181D01*
X122064648Y-89126174D01*
X122064646Y-89126172D01*
X121905405Y-89010476D01*
X121730025Y-88921116D01*
X121730024Y-88921115D01*
X121728235Y-88920204D01*
X121677439Y-88872230D01*
X121660644Y-88804409D01*
X121683181Y-88738274D01*
X121728236Y-88699234D01*
X121905141Y-88609097D01*
X122064321Y-88493444D01*
X122203444Y-88354321D01*
X122319095Y-88195143D01*
X122408418Y-88019837D01*
X122469218Y-87832716D01*
X122475984Y-87790000D01*
X121329090Y-87790000D01*
X121382059Y-87698254D01*
X121410000Y-87593978D01*
X121410000Y-87486022D01*
X121382059Y-87381746D01*
X121329090Y-87290000D01*
X122475984Y-87290000D01*
X122469218Y-87247283D01*
X122408418Y-87060162D01*
X122319095Y-86884856D01*
X122203444Y-86725678D01*
X122064321Y-86586555D01*
X121905143Y-86470904D01*
X121728235Y-86380765D01*
X121677439Y-86332790D01*
X121660644Y-86264969D01*
X121683181Y-86198835D01*
X121728236Y-86159795D01*
X121730022Y-86158884D01*
X121730025Y-86158884D01*
X121905405Y-86069524D01*
X122009104Y-85994182D01*
X122074911Y-85970702D01*
X122081990Y-85970500D01*
X134575500Y-85970500D01*
X134642539Y-85990185D01*
G37*
%TD.AperFunction*%
%TA.AperFunction,Conductor*%
G36*
X111927702Y-80740185D02*
G01*
X111948344Y-80756818D01*
X112065354Y-80873828D01*
X112163616Y-80945220D01*
X112224596Y-80989525D01*
X112401763Y-81079795D01*
X112452560Y-81127769D01*
X112469355Y-81195590D01*
X112446818Y-81261725D01*
X112401764Y-81300765D01*
X112224856Y-81390904D01*
X112065678Y-81506555D01*
X111926555Y-81645678D01*
X111810904Y-81804856D01*
X111721581Y-81980162D01*
X111660781Y-82167283D01*
X111654016Y-82210000D01*
X112800910Y-82210000D01*
X112747941Y-82301746D01*
X112720000Y-82406022D01*
X112720000Y-82513978D01*
X112747941Y-82618254D01*
X112800910Y-82710000D01*
X111654016Y-82710000D01*
X111660781Y-82752716D01*
X111721581Y-82939837D01*
X111810904Y-83115143D01*
X111926555Y-83274321D01*
X112065678Y-83413444D01*
X112224856Y-83529095D01*
X112401764Y-83619234D01*
X112452560Y-83667208D01*
X112469355Y-83735029D01*
X112446818Y-83801164D01*
X112401764Y-83840204D01*
X112224591Y-83930478D01*
X112162186Y-83975818D01*
X112096380Y-83999298D01*
X112089301Y-83999500D01*
X89860758Y-83999500D01*
X89793719Y-83979815D01*
X89773077Y-83963181D01*
X89671402Y-83861506D01*
X89671401Y-83861505D01*
X89549746Y-83776321D01*
X89485841Y-83731574D01*
X89442216Y-83676997D01*
X89435024Y-83607498D01*
X89466546Y-83545144D01*
X89485836Y-83528428D01*
X89671401Y-83398495D01*
X89754546Y-83315348D01*
X89773339Y-83299927D01*
X89774035Y-83299463D01*
X89899463Y-83174035D01*
X89998012Y-83026546D01*
X90065894Y-82862666D01*
X90072137Y-82831273D01*
X90073978Y-82823382D01*
X90082872Y-82790189D01*
X90135063Y-82595408D01*
X90155659Y-82360000D01*
X90135063Y-82124592D01*
X90073903Y-81896337D01*
X89974035Y-81682171D01*
X89948483Y-81645678D01*
X89838494Y-81488597D01*
X89671402Y-81321506D01*
X89671396Y-81321501D01*
X89485842Y-81191575D01*
X89442217Y-81136998D01*
X89435023Y-81067500D01*
X89466546Y-81005145D01*
X89485842Y-80988425D01*
X89547548Y-80945218D01*
X89671401Y-80858495D01*
X89773077Y-80756819D01*
X89834400Y-80723334D01*
X89860758Y-80720500D01*
X111860663Y-80720500D01*
X111927702Y-80740185D01*
G37*
%TD.AperFunction*%
%TA.AperFunction,Conductor*%
G36*
X125664248Y-73040185D02*
G01*
X125710003Y-73092989D01*
X125713391Y-73101167D01*
X125736202Y-73162328D01*
X125736206Y-73162335D01*
X125822452Y-73277544D01*
X125822455Y-73277547D01*
X125937664Y-73363793D01*
X125937671Y-73363797D01*
X125965121Y-73374035D01*
X126072517Y-73414091D01*
X126110184Y-73418140D01*
X126174731Y-73444877D01*
X126214580Y-73502268D01*
X126217075Y-73572094D01*
X126181423Y-73632183D01*
X126169813Y-73641746D01*
X126133107Y-73668414D01*
X125988417Y-73813104D01*
X125988417Y-73813105D01*
X125868140Y-73978650D01*
X125775244Y-74160970D01*
X125712009Y-74355586D01*
X125703391Y-74410000D01*
X127064314Y-74410000D01*
X127059920Y-74414394D01*
X127007259Y-74505606D01*
X126980000Y-74607339D01*
X126980000Y-74712661D01*
X127007259Y-74814394D01*
X127059920Y-74905606D01*
X127064314Y-74910000D01*
X125703391Y-74910000D01*
X125712009Y-74964413D01*
X125775244Y-75159029D01*
X125868140Y-75341349D01*
X125988417Y-75506894D01*
X125988417Y-75506895D01*
X126133104Y-75651582D01*
X126298652Y-75771861D01*
X126391628Y-75819234D01*
X126442425Y-75867208D01*
X126459220Y-75935029D01*
X126436683Y-76001164D01*
X126391630Y-76040203D01*
X126298388Y-76087713D01*
X126132786Y-76208028D01*
X125988028Y-76352786D01*
X125867715Y-76518386D01*
X125774781Y-76700776D01*
X125711522Y-76895465D01*
X125679500Y-77097648D01*
X125679500Y-77302351D01*
X125711522Y-77504534D01*
X125774781Y-77699223D01*
X125867715Y-77881613D01*
X125988028Y-78047213D01*
X126132786Y-78191971D01*
X126264708Y-78287816D01*
X126298390Y-78312287D01*
X126389840Y-78358883D01*
X126391080Y-78359515D01*
X126441876Y-78407490D01*
X126458671Y-78475311D01*
X126436134Y-78541446D01*
X126391080Y-78580485D01*
X126298391Y-78627712D01*
X126298389Y-78627713D01*
X126246696Y-78665270D01*
X126180889Y-78688749D01*
X126112836Y-78672923D01*
X126086131Y-78652632D01*
X122527594Y-75094094D01*
X122494109Y-75032771D01*
X122492802Y-74987019D01*
X122500500Y-74938417D01*
X122500500Y-74741583D01*
X122500500Y-74741577D01*
X122469709Y-74547173D01*
X122408882Y-74359970D01*
X122361743Y-74267455D01*
X122319524Y-74184595D01*
X122203828Y-74025354D01*
X122064646Y-73886172D01*
X121967813Y-73815818D01*
X121905403Y-73770474D01*
X121728787Y-73680485D01*
X121677990Y-73632511D01*
X121661195Y-73564690D01*
X121683732Y-73498555D01*
X121728787Y-73459515D01*
X121905403Y-73369525D01*
X121905402Y-73369525D01*
X121905405Y-73369524D01*
X122064646Y-73253828D01*
X122203828Y-73114646D01*
X122235093Y-73071613D01*
X122290422Y-73028949D01*
X122335410Y-73020500D01*
X125597209Y-73020500D01*
X125664248Y-73040185D01*
G37*
%TD.AperFunction*%
%TA.AperFunction,Conductor*%
G36*
X111844795Y-49170185D02*
G01*
X111890550Y-49222989D01*
X111901045Y-49287752D01*
X111899500Y-49302127D01*
X111899500Y-49302133D01*
X111899500Y-49302134D01*
X111899500Y-51897870D01*
X111899501Y-51897876D01*
X111905908Y-51957483D01*
X111956202Y-52092328D01*
X111956206Y-52092335D01*
X112042452Y-52207544D01*
X112042455Y-52207547D01*
X112157664Y-52293793D01*
X112157671Y-52293797D01*
X112202618Y-52310561D01*
X112292517Y-52344091D01*
X112352127Y-52350500D01*
X112415500Y-52350499D01*
X112482538Y-52370183D01*
X112528294Y-52422986D01*
X112539500Y-52474499D01*
X112539500Y-62516637D01*
X112519815Y-62583676D01*
X112467011Y-62629431D01*
X112397853Y-62639375D01*
X112334297Y-62610350D01*
X112327819Y-62604318D01*
X111904038Y-62180537D01*
X111878216Y-62163284D01*
X111801446Y-62111988D01*
X111801444Y-62111987D01*
X111801444Y-62111986D01*
X111756544Y-62081985D01*
X111756542Y-62081984D01*
X111665092Y-62044105D01*
X111592666Y-62014105D01*
X111592658Y-62014103D01*
X111418696Y-61979500D01*
X111418692Y-61979500D01*
X111418691Y-61979500D01*
X104064911Y-61979500D01*
X103997872Y-61959815D01*
X103973684Y-61939485D01*
X103819744Y-61772262D01*
X103623509Y-61619526D01*
X103623507Y-61619525D01*
X103623506Y-61619524D01*
X103404811Y-61501172D01*
X103404802Y-61501169D01*
X103169616Y-61420429D01*
X102924335Y-61379500D01*
X102675665Y-61379500D01*
X102430383Y-61420429D01*
X102195197Y-61501169D01*
X102195188Y-61501172D01*
X101976493Y-61619524D01*
X101780257Y-61772261D01*
X101611833Y-61955217D01*
X101475826Y-62163393D01*
X101375936Y-62391118D01*
X101314892Y-62632175D01*
X101314890Y-62632187D01*
X101294357Y-62879994D01*
X101294357Y-62880005D01*
X101314890Y-63127812D01*
X101314892Y-63127824D01*
X101375936Y-63368881D01*
X101475826Y-63596606D01*
X101611833Y-63804782D01*
X101628159Y-63822517D01*
X101780256Y-63987738D01*
X101976491Y-64140474D01*
X102195190Y-64258828D01*
X102430386Y-64339571D01*
X102675665Y-64380500D01*
X102924335Y-64380500D01*
X103169614Y-64339571D01*
X103404810Y-64258828D01*
X103623509Y-64140474D01*
X103819744Y-63987738D01*
X103973682Y-63820516D01*
X104033568Y-63784527D01*
X104064911Y-63780500D01*
X110905638Y-63780500D01*
X110972677Y-63800185D01*
X110993319Y-63816819D01*
X111593181Y-64416680D01*
X111626666Y-64478003D01*
X111629500Y-64504361D01*
X111629500Y-65477870D01*
X111629501Y-65477876D01*
X111635908Y-65537483D01*
X111686202Y-65672328D01*
X111686206Y-65672335D01*
X111772452Y-65787544D01*
X111772455Y-65787547D01*
X111887664Y-65873793D01*
X111887671Y-65873797D01*
X112022517Y-65924091D01*
X112022516Y-65924091D01*
X112029444Y-65924835D01*
X112082127Y-65930500D01*
X112145733Y-65930499D01*
X112212770Y-65950183D01*
X112258526Y-66002986D01*
X112268470Y-66072144D01*
X112239446Y-66135700D01*
X112218619Y-66154816D01*
X112065354Y-66266171D01*
X112065351Y-66266174D01*
X112048345Y-66283181D01*
X111987022Y-66316666D01*
X111960664Y-66319500D01*
X89952691Y-66319500D01*
X89885652Y-66299815D01*
X89851116Y-66266624D01*
X89850801Y-66266174D01*
X89838495Y-66248599D01*
X89838493Y-66248597D01*
X89838491Y-66248594D01*
X89671402Y-66081506D01*
X89671401Y-66081505D01*
X89485405Y-65951269D01*
X89441781Y-65896692D01*
X89434588Y-65827193D01*
X89466110Y-65764839D01*
X89485405Y-65748119D01*
X89671082Y-65618105D01*
X89838105Y-65451082D01*
X89973600Y-65257578D01*
X90073429Y-65043492D01*
X90073432Y-65043486D01*
X90130636Y-64830000D01*
X89233012Y-64830000D01*
X89265925Y-64772993D01*
X89300000Y-64645826D01*
X89300000Y-64514174D01*
X89265925Y-64387007D01*
X89233012Y-64330000D01*
X90130636Y-64330000D01*
X90130635Y-64329999D01*
X90073432Y-64116513D01*
X90073429Y-64116507D01*
X89973600Y-63902422D01*
X89973599Y-63902420D01*
X89838113Y-63708926D01*
X89838108Y-63708920D01*
X89716053Y-63586865D01*
X89682568Y-63525542D01*
X89687552Y-63455850D01*
X89729424Y-63399917D01*
X89760400Y-63383002D01*
X89849847Y-63349641D01*
X89892326Y-63333798D01*
X89892326Y-63333797D01*
X89892331Y-63333796D01*
X90007546Y-63247546D01*
X90093796Y-63132331D01*
X90144091Y-62997483D01*
X90150500Y-62937873D01*
X90150499Y-62014360D01*
X90170183Y-61947322D01*
X90186813Y-61926685D01*
X98456680Y-53656819D01*
X98518003Y-53623334D01*
X98544361Y-53620500D01*
X101535089Y-53620500D01*
X101602128Y-53640185D01*
X101626315Y-53660514D01*
X101780256Y-53827738D01*
X101976491Y-53980474D01*
X102195190Y-54098828D01*
X102430386Y-54179571D01*
X102675665Y-54220500D01*
X102924335Y-54220500D01*
X103169614Y-54179571D01*
X103404810Y-54098828D01*
X103623509Y-53980474D01*
X103819744Y-53827738D01*
X103988164Y-53644785D01*
X104124173Y-53436607D01*
X104224063Y-53208881D01*
X104285108Y-52967821D01*
X104289614Y-52913446D01*
X104305643Y-52720006D01*
X104305643Y-52719993D01*
X104296700Y-52612082D01*
X104292625Y-52562898D01*
X104306705Y-52494463D01*
X104328517Y-52464981D01*
X107606680Y-49186819D01*
X107668003Y-49153334D01*
X107694361Y-49150500D01*
X111777756Y-49150500D01*
X111844795Y-49170185D01*
G37*
%TD.AperFunction*%
%TA.AperFunction,Conductor*%
G36*
X176942539Y-37020185D02*
G01*
X176988294Y-37072989D01*
X176999500Y-37124500D01*
X176999500Y-113875500D01*
X176979815Y-113942539D01*
X176927011Y-113988294D01*
X176875500Y-113999500D01*
X79124500Y-113999500D01*
X79057461Y-113979815D01*
X79011706Y-113927011D01*
X79000500Y-113875500D01*
X79000500Y-110000000D01*
X80394747Y-110000000D01*
X80413741Y-110314023D01*
X80413741Y-110314028D01*
X80413742Y-110314029D01*
X80470451Y-110623478D01*
X80470452Y-110623482D01*
X80470453Y-110623486D01*
X80564039Y-110923816D01*
X80564043Y-110923827D01*
X80564044Y-110923830D01*
X80564046Y-110923835D01*
X80693163Y-111210721D01*
X80855919Y-111479952D01*
X80855924Y-111479960D01*
X81049942Y-111727605D01*
X81272394Y-111950057D01*
X81520039Y-112144075D01*
X81520044Y-112144078D01*
X81520048Y-112144081D01*
X81789279Y-112306837D01*
X82076165Y-112435954D01*
X82076175Y-112435957D01*
X82076183Y-112435960D01*
X82276403Y-112498350D01*
X82376522Y-112529549D01*
X82685971Y-112586258D01*
X83000000Y-112605253D01*
X83314029Y-112586258D01*
X83623478Y-112529549D01*
X83923835Y-112435954D01*
X84210721Y-112306837D01*
X84479952Y-112144081D01*
X84727602Y-111950060D01*
X84950060Y-111727602D01*
X85144081Y-111479952D01*
X85306837Y-111210721D01*
X85435954Y-110923835D01*
X85529549Y-110623478D01*
X85586258Y-110314029D01*
X85605253Y-110000000D01*
X85586258Y-109685971D01*
X85529549Y-109376522D01*
X85498350Y-109276403D01*
X85435960Y-109076183D01*
X85435956Y-109076172D01*
X85435954Y-109076165D01*
X85306837Y-108789279D01*
X85144081Y-108520048D01*
X85144078Y-108520044D01*
X85144075Y-108520039D01*
X84950057Y-108272394D01*
X84727605Y-108049942D01*
X84479960Y-107855924D01*
X84463929Y-107846233D01*
X84210721Y-107693163D01*
X83923835Y-107564046D01*
X83923830Y-107564044D01*
X83923827Y-107564043D01*
X83923816Y-107564039D01*
X83623486Y-107470453D01*
X83623482Y-107470452D01*
X83623478Y-107470451D01*
X83314029Y-107413742D01*
X83314028Y-107413741D01*
X83314023Y-107413741D01*
X83000000Y-107394747D01*
X82685976Y-107413741D01*
X82685971Y-107413742D01*
X82376522Y-107470451D01*
X82376519Y-107470451D01*
X82376513Y-107470453D01*
X82076183Y-107564039D01*
X82076172Y-107564043D01*
X81789283Y-107693161D01*
X81789281Y-107693162D01*
X81520039Y-107855924D01*
X81272394Y-108049942D01*
X81049942Y-108272394D01*
X80855924Y-108520039D01*
X80693162Y-108789281D01*
X80693161Y-108789283D01*
X80564043Y-109076172D01*
X80564039Y-109076183D01*
X80470453Y-109376513D01*
X80413741Y-109685976D01*
X80394747Y-110000000D01*
X79000500Y-110000000D01*
X79000500Y-99200005D01*
X97534859Y-99200005D01*
X97555385Y-99447729D01*
X97555387Y-99447738D01*
X97616412Y-99688717D01*
X97716266Y-99916364D01*
X97816564Y-100069882D01*
X98640000Y-99246446D01*
X98640000Y-99252661D01*
X98667259Y-99354394D01*
X98719920Y-99445606D01*
X98794394Y-99520080D01*
X98885606Y-99572741D01*
X98987339Y-99600000D01*
X98993553Y-99600000D01*
X98169942Y-100423609D01*
X98216768Y-100460055D01*
X98216770Y-100460056D01*
X98435385Y-100578364D01*
X98435396Y-100578369D01*
X98670506Y-100659083D01*
X98915707Y-100700000D01*
X99164293Y-100700000D01*
X99409493Y-100659083D01*
X99644603Y-100578369D01*
X99644614Y-100578364D01*
X99863228Y-100460057D01*
X99863231Y-100460055D01*
X99910056Y-100423609D01*
X99086447Y-99600000D01*
X99092661Y-99600000D01*
X99194394Y-99572741D01*
X99285606Y-99520080D01*
X99360080Y-99445606D01*
X99412741Y-99354394D01*
X99440000Y-99252661D01*
X99440000Y-99246448D01*
X100263434Y-100069882D01*
X100363731Y-99916369D01*
X100463587Y-99688717D01*
X100524612Y-99447738D01*
X100524614Y-99447729D01*
X100545141Y-99200005D01*
X100545141Y-99199994D01*
X100524614Y-98952270D01*
X100524612Y-98952261D01*
X100463587Y-98711282D01*
X100363731Y-98483630D01*
X100263434Y-98330116D01*
X99440000Y-99153551D01*
X99440000Y-99147339D01*
X99412741Y-99045606D01*
X99360080Y-98954394D01*
X99285606Y-98879920D01*
X99194394Y-98827259D01*
X99092661Y-98800000D01*
X99086448Y-98800000D01*
X99910057Y-97976390D01*
X99910056Y-97976389D01*
X99863229Y-97939943D01*
X99644614Y-97821635D01*
X99644603Y-97821630D01*
X99409493Y-97740916D01*
X99164293Y-97700000D01*
X98915707Y-97700000D01*
X98670506Y-97740916D01*
X98435396Y-97821630D01*
X98435390Y-97821632D01*
X98216761Y-97939949D01*
X98169942Y-97976388D01*
X98169942Y-97976390D01*
X98993553Y-98800000D01*
X98987339Y-98800000D01*
X98885606Y-98827259D01*
X98794394Y-98879920D01*
X98719920Y-98954394D01*
X98667259Y-99045606D01*
X98640000Y-99147339D01*
X98640000Y-99153552D01*
X97816564Y-98330116D01*
X97716267Y-98483632D01*
X97616412Y-98711282D01*
X97555387Y-98952261D01*
X97555385Y-98952270D01*
X97534859Y-99199994D01*
X97534859Y-99200005D01*
X79000500Y-99200005D01*
X79000500Y-92600005D01*
X83694357Y-92600005D01*
X83714890Y-92847812D01*
X83714892Y-92847824D01*
X83775936Y-93088881D01*
X83875826Y-93316606D01*
X84011833Y-93524782D01*
X84011836Y-93524785D01*
X84125656Y-93648427D01*
X84156578Y-93711081D01*
X84148718Y-93780507D01*
X84112788Y-93828510D01*
X83989247Y-93929246D01*
X83860721Y-94086870D01*
X83766557Y-94267138D01*
X83710609Y-94462671D01*
X83710608Y-94462674D01*
X83700000Y-94581999D01*
X83700000Y-94890000D01*
X84884314Y-94890000D01*
X84879920Y-94894394D01*
X84827259Y-94985606D01*
X84800000Y-95087339D01*
X84800000Y-95192661D01*
X84827259Y-95294394D01*
X84879920Y-95385606D01*
X84884314Y-95390000D01*
X83700000Y-95390000D01*
X83700000Y-95698000D01*
X83710608Y-95817325D01*
X83710609Y-95817328D01*
X83766557Y-96012861D01*
X83860721Y-96193129D01*
X83989246Y-96350753D01*
X84146870Y-96479278D01*
X84327138Y-96573442D01*
X84522671Y-96629390D01*
X84522674Y-96629391D01*
X84641999Y-96639999D01*
X84642002Y-96640000D01*
X84950000Y-96640000D01*
X84950000Y-95455686D01*
X84954394Y-95460080D01*
X85045606Y-95512741D01*
X85147339Y-95540000D01*
X85252661Y-95540000D01*
X85354394Y-95512741D01*
X85445606Y-95460080D01*
X85450000Y-95455686D01*
X85450000Y-96640000D01*
X85757998Y-96640000D01*
X85758000Y-96639999D01*
X85877325Y-96629391D01*
X85877328Y-96629390D01*
X86072861Y-96573442D01*
X86253129Y-96479278D01*
X86410753Y-96350753D01*
X86539278Y-96193129D01*
X86633442Y-96012861D01*
X86689390Y-95817328D01*
X86689391Y-95817325D01*
X86699999Y-95698000D01*
X86700000Y-95697998D01*
X86700000Y-95390000D01*
X85515686Y-95390000D01*
X85520080Y-95385606D01*
X85572741Y-95294394D01*
X85600000Y-95192661D01*
X85600000Y-95087339D01*
X85572741Y-94985606D01*
X85520080Y-94894394D01*
X85515686Y-94890000D01*
X86700000Y-94890000D01*
X86700000Y-94582002D01*
X86699999Y-94581999D01*
X86689391Y-94462674D01*
X86689390Y-94462671D01*
X86633442Y-94267138D01*
X86539278Y-94086870D01*
X86410750Y-93929243D01*
X86287212Y-93828510D01*
X86247695Y-93770889D01*
X86245604Y-93701051D01*
X86274343Y-93648427D01*
X86388164Y-93524785D01*
X86524173Y-93316607D01*
X86624063Y-93088881D01*
X86685108Y-92847821D01*
X86685109Y-92847812D01*
X86705643Y-92600004D01*
X86705643Y-92599995D01*
X86692625Y-92442899D01*
X86706706Y-92374463D01*
X86728517Y-92344981D01*
X88736680Y-90336819D01*
X88798003Y-90303334D01*
X88824361Y-90300500D01*
X97855089Y-90300500D01*
X97922128Y-90320185D01*
X97946315Y-90340514D01*
X98100256Y-90507738D01*
X98296491Y-90660474D01*
X98515190Y-90778828D01*
X98750386Y-90859571D01*
X98809661Y-90869462D01*
X98858974Y-90877691D01*
X98921860Y-90908141D01*
X98958299Y-90967756D01*
X98956724Y-91037608D01*
X98917635Y-91095520D01*
X98858974Y-91122309D01*
X98750383Y-91140429D01*
X98515197Y-91221169D01*
X98515188Y-91221172D01*
X98296493Y-91339524D01*
X98141083Y-91460485D01*
X98100256Y-91492262D01*
X97946317Y-91659483D01*
X97886432Y-91695473D01*
X97855089Y-91699500D01*
X94664911Y-91699500D01*
X94597872Y-91679815D01*
X94573684Y-91659485D01*
X94419744Y-91492262D01*
X94223509Y-91339526D01*
X94223507Y-91339525D01*
X94223506Y-91339524D01*
X94004811Y-91221172D01*
X94004802Y-91221169D01*
X93769616Y-91140429D01*
X93524335Y-91099500D01*
X93275665Y-91099500D01*
X93030383Y-91140429D01*
X92795197Y-91221169D01*
X92795188Y-91221172D01*
X92576493Y-91339524D01*
X92380257Y-91492261D01*
X92211833Y-91675217D01*
X92075826Y-91883393D01*
X91975936Y-92111118D01*
X91914892Y-92352175D01*
X91914890Y-92352187D01*
X91894357Y-92599994D01*
X91894357Y-92600005D01*
X91914890Y-92847812D01*
X91914892Y-92847824D01*
X91975936Y-93088881D01*
X92075826Y-93316606D01*
X92211833Y-93524782D01*
X92211836Y-93524785D01*
X92325656Y-93648427D01*
X92356578Y-93711081D01*
X92348718Y-93780507D01*
X92312788Y-93828510D01*
X92189247Y-93929246D01*
X92060721Y-94086870D01*
X91966557Y-94267138D01*
X91910609Y-94462671D01*
X91910608Y-94462674D01*
X91900000Y-94581999D01*
X91900000Y-94890000D01*
X93084314Y-94890000D01*
X93079920Y-94894394D01*
X93027259Y-94985606D01*
X93000000Y-95087339D01*
X93000000Y-95192661D01*
X93027259Y-95294394D01*
X93079920Y-95385606D01*
X93084314Y-95390000D01*
X91900000Y-95390000D01*
X91900000Y-95698000D01*
X91910608Y-95817325D01*
X91910609Y-95817328D01*
X91966557Y-96012861D01*
X92060721Y-96193129D01*
X92189246Y-96350753D01*
X92346870Y-96479278D01*
X92527138Y-96573442D01*
X92722671Y-96629390D01*
X92722674Y-96629391D01*
X92841999Y-96639999D01*
X92842002Y-96640000D01*
X93150000Y-96640000D01*
X93150000Y-95455686D01*
X93154394Y-95460080D01*
X93245606Y-95512741D01*
X93347339Y-95540000D01*
X93452661Y-95540000D01*
X93554394Y-95512741D01*
X93645606Y-95460080D01*
X93650000Y-95455686D01*
X93650000Y-96640000D01*
X93957998Y-96640000D01*
X93958000Y-96639999D01*
X94077325Y-96629391D01*
X94077328Y-96629390D01*
X94272861Y-96573442D01*
X94453129Y-96479278D01*
X94610753Y-96350753D01*
X94739278Y-96193129D01*
X94833442Y-96012861D01*
X94889390Y-95817328D01*
X94889391Y-95817325D01*
X94899999Y-95698000D01*
X94900000Y-95697998D01*
X94900000Y-95390000D01*
X93715686Y-95390000D01*
X93720080Y-95385606D01*
X93772741Y-95294394D01*
X93800000Y-95192661D01*
X93800000Y-95087339D01*
X93772741Y-94985606D01*
X93720080Y-94894394D01*
X93715686Y-94890000D01*
X94900000Y-94890000D01*
X94900000Y-94582002D01*
X94899999Y-94581999D01*
X94889391Y-94462674D01*
X94889390Y-94462671D01*
X94833442Y-94267138D01*
X94739278Y-94086870D01*
X94610753Y-93929246D01*
X94487211Y-93828511D01*
X94447694Y-93770890D01*
X94445602Y-93701051D01*
X94474339Y-93648431D01*
X94573683Y-93540515D01*
X94633569Y-93504526D01*
X94664911Y-93500500D01*
X97855089Y-93500500D01*
X97922128Y-93520185D01*
X97946315Y-93540514D01*
X98100256Y-93707738D01*
X98296491Y-93860474D01*
X98341238Y-93884690D01*
X98423570Y-93929246D01*
X98515190Y-93978828D01*
X98750386Y-94059571D01*
X98860495Y-94077944D01*
X98923379Y-94108394D01*
X98959819Y-94168008D01*
X98958245Y-94237860D01*
X98919155Y-94295772D01*
X98860495Y-94322562D01*
X98750506Y-94340916D01*
X98515396Y-94421630D01*
X98515390Y-94421632D01*
X98296761Y-94539949D01*
X98249942Y-94576388D01*
X98249942Y-94576390D01*
X99073553Y-95400000D01*
X99067339Y-95400000D01*
X98965606Y-95427259D01*
X98874394Y-95479920D01*
X98799920Y-95554394D01*
X98747259Y-95645606D01*
X98720000Y-95747339D01*
X98720000Y-95753552D01*
X97896564Y-94930116D01*
X97796267Y-95083632D01*
X97696412Y-95311282D01*
X97635387Y-95552261D01*
X97635385Y-95552270D01*
X97614859Y-95799994D01*
X97614859Y-95800005D01*
X97635385Y-96047729D01*
X97635387Y-96047738D01*
X97696412Y-96288717D01*
X97796266Y-96516364D01*
X97896564Y-96669882D01*
X98720000Y-95846446D01*
X98720000Y-95852661D01*
X98747259Y-95954394D01*
X98799920Y-96045606D01*
X98874394Y-96120080D01*
X98965606Y-96172741D01*
X99067339Y-96200000D01*
X99073553Y-96200000D01*
X98249942Y-97023609D01*
X98296768Y-97060055D01*
X98296770Y-97060056D01*
X98515385Y-97178364D01*
X98515396Y-97178369D01*
X98750506Y-97259083D01*
X98995707Y-97300000D01*
X99244293Y-97300000D01*
X99489493Y-97259083D01*
X99724603Y-97178369D01*
X99724614Y-97178364D01*
X99943228Y-97060057D01*
X99943231Y-97060055D01*
X99990056Y-97023609D01*
X99166447Y-96200000D01*
X99172661Y-96200000D01*
X99274394Y-96172741D01*
X99365606Y-96120080D01*
X99440080Y-96045606D01*
X99492741Y-95954394D01*
X99520000Y-95852661D01*
X99520000Y-95846448D01*
X100343434Y-96669882D01*
X100443731Y-96516369D01*
X100543587Y-96288717D01*
X100604612Y-96047738D01*
X100604614Y-96047729D01*
X100625141Y-95800005D01*
X100625141Y-95799994D01*
X100604614Y-95552270D01*
X100604612Y-95552261D01*
X100543587Y-95311282D01*
X100443731Y-95083630D01*
X100343434Y-94930116D01*
X99520000Y-95753551D01*
X99520000Y-95747339D01*
X99492741Y-95645606D01*
X99440080Y-95554394D01*
X99365606Y-95479920D01*
X99274394Y-95427259D01*
X99172661Y-95400000D01*
X99166448Y-95400000D01*
X99990057Y-94576390D01*
X99990056Y-94576389D01*
X99943229Y-94539943D01*
X99724614Y-94421635D01*
X99724603Y-94421630D01*
X99489493Y-94340916D01*
X99379504Y-94322562D01*
X99316619Y-94292111D01*
X99280179Y-94232496D01*
X99281755Y-94162644D01*
X99320845Y-94104733D01*
X99379503Y-94077944D01*
X99489614Y-94059571D01*
X99724810Y-93978828D01*
X99943509Y-93860474D01*
X100139744Y-93707738D01*
X100308164Y-93524785D01*
X100444173Y-93316607D01*
X100544063Y-93088881D01*
X100605108Y-92847821D01*
X100605109Y-92847812D01*
X100625643Y-92600005D01*
X100625643Y-92599994D01*
X100605109Y-92352187D01*
X100605107Y-92352175D01*
X100544063Y-92111118D01*
X100444173Y-91883393D01*
X100308166Y-91675217D01*
X100274673Y-91638834D01*
X100139744Y-91492262D01*
X99943509Y-91339526D01*
X99943507Y-91339525D01*
X99943506Y-91339524D01*
X99724811Y-91221172D01*
X99724802Y-91221169D01*
X99489616Y-91140429D01*
X99381025Y-91122309D01*
X99318140Y-91091859D01*
X99281700Y-91032244D01*
X99283275Y-90962392D01*
X99322364Y-90904480D01*
X99381025Y-90877691D01*
X99390873Y-90876047D01*
X99489614Y-90859571D01*
X99724810Y-90778828D01*
X99943509Y-90660474D01*
X100139744Y-90507738D01*
X100308164Y-90324785D01*
X100444173Y-90116607D01*
X100544063Y-89888881D01*
X100605108Y-89647821D01*
X100623605Y-89424594D01*
X100625643Y-89400005D01*
X100625643Y-89399994D01*
X100605109Y-89152187D01*
X100605107Y-89152175D01*
X100544063Y-88911118D01*
X100444173Y-88683393D01*
X100319340Y-88492321D01*
X100299153Y-88425432D01*
X100318333Y-88358246D01*
X100370791Y-88312096D01*
X100423149Y-88300500D01*
X107976851Y-88300500D01*
X108043890Y-88320185D01*
X108089645Y-88372989D01*
X108099589Y-88442147D01*
X108080660Y-88492321D01*
X107955826Y-88683393D01*
X107855936Y-88911118D01*
X107794892Y-89152175D01*
X107794890Y-89152187D01*
X107774357Y-89399994D01*
X107774357Y-89400005D01*
X107794890Y-89647812D01*
X107794892Y-89647824D01*
X107855936Y-89888881D01*
X107955826Y-90116606D01*
X108091833Y-90324782D01*
X108091836Y-90324785D01*
X108260256Y-90507738D01*
X108456491Y-90660474D01*
X108675190Y-90778828D01*
X108910386Y-90859571D01*
X108969661Y-90869462D01*
X109018974Y-90877691D01*
X109081860Y-90908141D01*
X109118299Y-90967756D01*
X109116724Y-91037608D01*
X109077635Y-91095520D01*
X109018974Y-91122309D01*
X108910383Y-91140429D01*
X108675197Y-91221169D01*
X108675188Y-91221172D01*
X108456493Y-91339524D01*
X108260257Y-91492261D01*
X108091833Y-91675217D01*
X107955826Y-91883393D01*
X107855936Y-92111118D01*
X107794892Y-92352175D01*
X107794890Y-92352187D01*
X107774357Y-92599994D01*
X107774357Y-92600005D01*
X107794890Y-92847812D01*
X107794892Y-92847824D01*
X107855936Y-93088881D01*
X107955826Y-93316606D01*
X108091833Y-93524782D01*
X108091836Y-93524785D01*
X108260256Y-93707738D01*
X108456491Y-93860474D01*
X108501238Y-93884690D01*
X108583570Y-93929246D01*
X108675190Y-93978828D01*
X108910386Y-94059571D01*
X108984395Y-94071920D01*
X109018974Y-94077691D01*
X109081860Y-94108141D01*
X109118299Y-94167756D01*
X109116724Y-94237608D01*
X109077635Y-94295520D01*
X109018974Y-94322309D01*
X108910383Y-94340429D01*
X108675197Y-94421169D01*
X108675188Y-94421172D01*
X108456493Y-94539524D01*
X108260257Y-94692261D01*
X108091833Y-94875217D01*
X107955826Y-95083393D01*
X107855936Y-95311118D01*
X107794892Y-95552175D01*
X107794890Y-95552187D01*
X107774357Y-95799994D01*
X107774357Y-95800005D01*
X107794890Y-96047812D01*
X107794892Y-96047824D01*
X107855936Y-96288881D01*
X107955826Y-96516606D01*
X108091833Y-96724782D01*
X108091836Y-96724785D01*
X108260256Y-96907738D01*
X108456491Y-97060474D01*
X108456493Y-97060475D01*
X108674332Y-97178364D01*
X108675190Y-97178828D01*
X108795047Y-97219975D01*
X108908964Y-97259083D01*
X108910386Y-97259571D01*
X109155665Y-97300500D01*
X109404335Y-97300500D01*
X109649614Y-97259571D01*
X109685122Y-97247381D01*
X109778148Y-97215444D01*
X109847945Y-97212295D01*
X109908366Y-97247381D01*
X109940227Y-97309563D01*
X109933412Y-97379099D01*
X109906091Y-97420407D01*
X109628850Y-97697648D01*
X109567527Y-97731133D01*
X109520760Y-97732276D01*
X109324335Y-97699500D01*
X109075665Y-97699500D01*
X108830383Y-97740429D01*
X108595197Y-97821169D01*
X108595188Y-97821172D01*
X108376493Y-97939524D01*
X108180257Y-98092261D01*
X108011833Y-98275217D01*
X107875826Y-98483393D01*
X107775936Y-98711118D01*
X107714892Y-98952175D01*
X107714890Y-98952187D01*
X107694357Y-99199994D01*
X107694357Y-99200005D01*
X107714890Y-99447812D01*
X107714892Y-99447824D01*
X107775936Y-99688881D01*
X107875826Y-99916606D01*
X108011833Y-100124782D01*
X108011836Y-100124785D01*
X108180256Y-100307738D01*
X108301663Y-100402233D01*
X108342475Y-100458942D01*
X108349500Y-100500085D01*
X108349500Y-108013771D01*
X108382181Y-108178073D01*
X108382184Y-108178082D01*
X108446296Y-108332863D01*
X108446297Y-108332866D01*
X108539372Y-108472161D01*
X108539375Y-108472165D01*
X110917230Y-110850019D01*
X110917231Y-110850020D01*
X110917234Y-110850022D01*
X110917238Y-110850026D01*
X111056537Y-110943104D01*
X111165984Y-110988437D01*
X111211318Y-111007216D01*
X111375628Y-111039899D01*
X111375632Y-111039900D01*
X111375633Y-111039900D01*
X112759643Y-111039900D01*
X112826682Y-111059585D01*
X112867030Y-111101901D01*
X112911113Y-111178256D01*
X113074698Y-111383385D01*
X113256253Y-111551841D01*
X113267021Y-111561833D01*
X113483796Y-111709628D01*
X113483801Y-111709630D01*
X113483802Y-111709631D01*
X113483803Y-111709632D01*
X113609343Y-111770088D01*
X113720173Y-111823461D01*
X113720174Y-111823461D01*
X113720177Y-111823463D01*
X113970885Y-111900796D01*
X114230318Y-111939900D01*
X114492682Y-111939900D01*
X114752115Y-111900796D01*
X115002823Y-111823463D01*
X115239204Y-111709628D01*
X115455979Y-111561833D01*
X115648305Y-111383381D01*
X115811886Y-111178257D01*
X115943068Y-110951043D01*
X116038920Y-110706816D01*
X116097302Y-110451030D01*
X116116908Y-110189400D01*
X116097302Y-109927770D01*
X116038920Y-109671984D01*
X115943068Y-109427757D01*
X115811886Y-109200543D01*
X115648305Y-108995419D01*
X115648304Y-108995418D01*
X115648301Y-108995414D01*
X115496752Y-108854799D01*
X115460997Y-108794771D01*
X115463372Y-108724941D01*
X115503122Y-108667481D01*
X115567628Y-108640633D01*
X115581093Y-108639900D01*
X119641907Y-108639900D01*
X119708946Y-108659585D01*
X119754701Y-108712389D01*
X119764645Y-108781547D01*
X119735620Y-108845103D01*
X119726248Y-108854799D01*
X119574698Y-108995414D01*
X119411114Y-109200543D01*
X119279932Y-109427756D01*
X119184082Y-109671978D01*
X119184076Y-109671997D01*
X119125697Y-109927774D01*
X119125696Y-109927779D01*
X119106092Y-110189395D01*
X119106092Y-110189404D01*
X119125696Y-110451020D01*
X119125697Y-110451025D01*
X119184076Y-110706802D01*
X119184078Y-110706811D01*
X119184080Y-110706816D01*
X119279932Y-110951043D01*
X119411114Y-111178257D01*
X119543236Y-111343933D01*
X119574698Y-111383385D01*
X119756253Y-111551841D01*
X119767021Y-111561833D01*
X119983796Y-111709628D01*
X119983801Y-111709630D01*
X119983802Y-111709631D01*
X119983803Y-111709632D01*
X120109343Y-111770088D01*
X120220173Y-111823461D01*
X120220174Y-111823461D01*
X120220177Y-111823463D01*
X120470885Y-111900796D01*
X120730318Y-111939900D01*
X120992682Y-111939900D01*
X121252115Y-111900796D01*
X121502823Y-111823463D01*
X121739204Y-111709628D01*
X121955979Y-111561833D01*
X122148305Y-111383381D01*
X122311886Y-111178257D01*
X122443068Y-110951043D01*
X122538920Y-110706816D01*
X122597302Y-110451030D01*
X122616908Y-110189400D01*
X122597302Y-109927770D01*
X122538920Y-109671984D01*
X122443068Y-109427757D01*
X122311886Y-109200543D01*
X122148305Y-108995419D01*
X122148304Y-108995418D01*
X122148301Y-108995414D01*
X121996752Y-108854799D01*
X121960997Y-108794771D01*
X121963372Y-108724941D01*
X122003122Y-108667481D01*
X122067628Y-108640633D01*
X122081093Y-108639900D01*
X122157849Y-108639900D01*
X122224888Y-108659585D01*
X122245530Y-108676219D01*
X123227668Y-109658357D01*
X123261153Y-109719680D01*
X123260878Y-109773630D01*
X123225697Y-109927769D01*
X123225697Y-109927771D01*
X123206092Y-110189395D01*
X123206092Y-110189404D01*
X123225696Y-110451020D01*
X123225697Y-110451025D01*
X123284076Y-110706802D01*
X123284078Y-110706811D01*
X123284080Y-110706816D01*
X123379932Y-110951043D01*
X123511114Y-111178257D01*
X123643236Y-111343933D01*
X123674698Y-111383385D01*
X123856253Y-111551841D01*
X123867021Y-111561833D01*
X124083796Y-111709628D01*
X124083801Y-111709630D01*
X124083802Y-111709631D01*
X124083803Y-111709632D01*
X124209343Y-111770088D01*
X124320173Y-111823461D01*
X124320174Y-111823461D01*
X124320177Y-111823463D01*
X124570885Y-111900796D01*
X124830318Y-111939900D01*
X125092682Y-111939900D01*
X125352115Y-111900796D01*
X125602823Y-111823463D01*
X125839204Y-111709628D01*
X126055979Y-111561833D01*
X126248305Y-111383381D01*
X126411886Y-111178257D01*
X126543068Y-110951043D01*
X126638920Y-110706816D01*
X126697302Y-110451030D01*
X126716908Y-110189404D01*
X129706092Y-110189404D01*
X129725696Y-110451020D01*
X129725697Y-110451025D01*
X129784076Y-110706802D01*
X129784078Y-110706811D01*
X129784080Y-110706816D01*
X129879932Y-110951043D01*
X130011114Y-111178257D01*
X130143236Y-111343933D01*
X130174698Y-111383385D01*
X130356253Y-111551841D01*
X130367021Y-111561833D01*
X130583796Y-111709628D01*
X130583801Y-111709630D01*
X130583802Y-111709631D01*
X130583803Y-111709632D01*
X130709343Y-111770088D01*
X130820173Y-111823461D01*
X130820174Y-111823461D01*
X130820177Y-111823463D01*
X131070885Y-111900796D01*
X131330318Y-111939900D01*
X131592682Y-111939900D01*
X131852115Y-111900796D01*
X132102823Y-111823463D01*
X132339204Y-111709628D01*
X132555979Y-111561833D01*
X132748305Y-111383381D01*
X132911886Y-111178257D01*
X133043068Y-110951043D01*
X133138920Y-110706816D01*
X133197302Y-110451030D01*
X133216908Y-110189400D01*
X133202715Y-110000000D01*
X170394747Y-110000000D01*
X170413741Y-110314023D01*
X170413741Y-110314028D01*
X170413742Y-110314029D01*
X170470451Y-110623478D01*
X170470452Y-110623482D01*
X170470453Y-110623486D01*
X170564039Y-110923816D01*
X170564043Y-110923827D01*
X170564044Y-110923830D01*
X170564046Y-110923835D01*
X170693163Y-111210721D01*
X170855919Y-111479952D01*
X170855924Y-111479960D01*
X171049942Y-111727605D01*
X171272394Y-111950057D01*
X171520039Y-112144075D01*
X171520044Y-112144078D01*
X171520048Y-112144081D01*
X171789279Y-112306837D01*
X172076165Y-112435954D01*
X172076175Y-112435957D01*
X172076183Y-112435960D01*
X172276403Y-112498350D01*
X172376522Y-112529549D01*
X172685971Y-112586258D01*
X173000000Y-112605253D01*
X173314029Y-112586258D01*
X173623478Y-112529549D01*
X173923835Y-112435954D01*
X174210721Y-112306837D01*
X174479952Y-112144081D01*
X174727602Y-111950060D01*
X174950060Y-111727602D01*
X175144081Y-111479952D01*
X175306837Y-111210721D01*
X175435954Y-110923835D01*
X175529549Y-110623478D01*
X175586258Y-110314029D01*
X175605253Y-110000000D01*
X175586258Y-109685971D01*
X175529549Y-109376522D01*
X175498350Y-109276403D01*
X175435960Y-109076183D01*
X175435956Y-109076172D01*
X175435954Y-109076165D01*
X175306837Y-108789279D01*
X175144081Y-108520048D01*
X175144078Y-108520044D01*
X175144075Y-108520039D01*
X174950057Y-108272394D01*
X174727605Y-108049942D01*
X174479960Y-107855924D01*
X174463929Y-107846233D01*
X174210721Y-107693163D01*
X173923835Y-107564046D01*
X173923830Y-107564044D01*
X173923827Y-107564043D01*
X173923816Y-107564039D01*
X173623486Y-107470453D01*
X173623482Y-107470452D01*
X173623478Y-107470451D01*
X173314029Y-107413742D01*
X173314028Y-107413741D01*
X173314023Y-107413741D01*
X173000000Y-107394747D01*
X172685976Y-107413741D01*
X172685971Y-107413742D01*
X172376522Y-107470451D01*
X172376519Y-107470451D01*
X172376513Y-107470453D01*
X172076183Y-107564039D01*
X172076172Y-107564043D01*
X171789283Y-107693161D01*
X171789281Y-107693162D01*
X171520039Y-107855924D01*
X171272394Y-108049942D01*
X171049942Y-108272394D01*
X170855924Y-108520039D01*
X170693162Y-108789281D01*
X170693161Y-108789283D01*
X170564043Y-109076172D01*
X170564039Y-109076183D01*
X170470453Y-109376513D01*
X170413741Y-109685976D01*
X170394747Y-110000000D01*
X133202715Y-110000000D01*
X133197302Y-109927770D01*
X133138920Y-109671984D01*
X133043068Y-109427757D01*
X132911886Y-109200543D01*
X132748305Y-108995419D01*
X132748304Y-108995418D01*
X132748301Y-108995414D01*
X132555979Y-108816967D01*
X132339204Y-108669172D01*
X132339200Y-108669170D01*
X132339197Y-108669168D01*
X132339196Y-108669167D01*
X132102825Y-108555338D01*
X132102827Y-108555338D01*
X131852123Y-108478006D01*
X131852119Y-108478005D01*
X131852115Y-108478004D01*
X131727323Y-108459194D01*
X131592687Y-108438900D01*
X131592682Y-108438900D01*
X131330318Y-108438900D01*
X131330312Y-108438900D01*
X131168747Y-108463253D01*
X131070885Y-108478004D01*
X131070882Y-108478005D01*
X131070876Y-108478006D01*
X130820173Y-108555338D01*
X130583803Y-108669167D01*
X130583802Y-108669168D01*
X130367020Y-108816967D01*
X130174698Y-108995414D01*
X130011114Y-109200543D01*
X129879932Y-109427756D01*
X129784082Y-109671978D01*
X129784076Y-109671997D01*
X129725697Y-109927774D01*
X129725696Y-109927779D01*
X129706092Y-110189395D01*
X129706092Y-110189404D01*
X126716908Y-110189404D01*
X126716908Y-110189400D01*
X126697302Y-109927770D01*
X126638920Y-109671984D01*
X126543068Y-109427757D01*
X126411886Y-109200543D01*
X126248305Y-108995419D01*
X126248304Y-108995418D01*
X126248301Y-108995414D01*
X126055979Y-108816967D01*
X125839204Y-108669172D01*
X125839200Y-108669170D01*
X125839197Y-108669168D01*
X125839196Y-108669167D01*
X125602825Y-108555338D01*
X125602827Y-108555338D01*
X125352123Y-108478006D01*
X125352119Y-108478005D01*
X125352115Y-108478004D01*
X125227323Y-108459194D01*
X125092687Y-108438900D01*
X125092682Y-108438900D01*
X124830318Y-108438900D01*
X124830312Y-108438900D01*
X124650035Y-108466073D01*
X124570885Y-108478004D01*
X124570882Y-108478004D01*
X124570881Y-108478005D01*
X124552103Y-108483797D01*
X124482240Y-108484745D01*
X124427875Y-108452986D01*
X123103665Y-107128775D01*
X123103661Y-107128772D01*
X122964366Y-107035697D01*
X122964363Y-107035696D01*
X122854916Y-106990362D01*
X122854914Y-106990361D01*
X122809586Y-106971585D01*
X122809574Y-106971582D01*
X122645271Y-106938900D01*
X122645267Y-106938900D01*
X122361519Y-106938900D01*
X122294480Y-106919215D01*
X122248725Y-106866411D01*
X122238781Y-106797253D01*
X122264572Y-106737588D01*
X122292984Y-106701958D01*
X122311886Y-106678257D01*
X122443068Y-106451043D01*
X122538920Y-106206816D01*
X122597302Y-105951030D01*
X122601777Y-105891314D01*
X122616908Y-105689404D01*
X122616908Y-105689395D01*
X122597303Y-105427779D01*
X122597302Y-105427774D01*
X122597302Y-105427770D01*
X122538920Y-105171984D01*
X122443068Y-104927757D01*
X122311886Y-104700543D01*
X122148305Y-104495419D01*
X122148304Y-104495418D01*
X122148301Y-104495414D01*
X121955979Y-104316967D01*
X121948683Y-104311993D01*
X121739204Y-104169172D01*
X121739200Y-104169170D01*
X121739197Y-104169168D01*
X121739196Y-104169167D01*
X121502825Y-104055338D01*
X121502827Y-104055338D01*
X121252123Y-103978006D01*
X121252117Y-103978004D01*
X121212227Y-103971991D01*
X121179870Y-103967114D01*
X121116514Y-103937658D01*
X121079141Y-103878624D01*
X121079616Y-103808756D01*
X121117790Y-103750236D01*
X121181542Y-103721645D01*
X121198353Y-103720500D01*
X122786349Y-103720500D01*
X122853388Y-103740185D01*
X122874030Y-103756819D01*
X123568802Y-104451590D01*
X123602287Y-104512913D01*
X123597303Y-104582604D01*
X123578069Y-104616583D01*
X123511113Y-104700543D01*
X123379932Y-104927756D01*
X123284082Y-105171978D01*
X123284076Y-105171997D01*
X123225697Y-105427774D01*
X123225696Y-105427779D01*
X123206092Y-105689395D01*
X123206092Y-105689404D01*
X123225696Y-105951020D01*
X123225697Y-105951025D01*
X123284076Y-106206802D01*
X123284078Y-106206811D01*
X123284080Y-106206816D01*
X123379932Y-106451043D01*
X123511114Y-106678257D01*
X123558429Y-106737588D01*
X123674698Y-106883385D01*
X123789992Y-106990361D01*
X123867021Y-107061833D01*
X124083796Y-107209628D01*
X124083801Y-107209630D01*
X124083802Y-107209631D01*
X124083803Y-107209632D01*
X124199332Y-107265267D01*
X124320173Y-107323461D01*
X124320174Y-107323461D01*
X124320177Y-107323463D01*
X124570885Y-107400796D01*
X124830318Y-107439900D01*
X125092682Y-107439900D01*
X125352115Y-107400796D01*
X125602823Y-107323463D01*
X125839204Y-107209628D01*
X126055979Y-107061833D01*
X126248305Y-106883381D01*
X126411886Y-106678257D01*
X126543068Y-106451043D01*
X126638920Y-106206816D01*
X126697302Y-105951030D01*
X126701777Y-105891314D01*
X126716908Y-105689404D01*
X126716908Y-105689395D01*
X126697303Y-105427777D01*
X126697302Y-105427773D01*
X126697302Y-105427770D01*
X126675260Y-105331200D01*
X126679533Y-105261462D01*
X126708468Y-105215929D01*
X128117580Y-103806819D01*
X128178903Y-103773334D01*
X128205261Y-103770500D01*
X130920910Y-103770500D01*
X130987949Y-103790185D01*
X131033704Y-103842989D01*
X131043648Y-103912147D01*
X131014623Y-103975703D01*
X130957460Y-104012991D01*
X130820173Y-104055338D01*
X130583803Y-104169167D01*
X130583802Y-104169168D01*
X130367020Y-104316967D01*
X130174698Y-104495414D01*
X130011114Y-104700543D01*
X129879932Y-104927756D01*
X129784082Y-105171978D01*
X129784076Y-105171997D01*
X129725697Y-105427774D01*
X129725696Y-105427779D01*
X129706092Y-105689395D01*
X129706092Y-105689404D01*
X129725696Y-105951020D01*
X129725697Y-105951025D01*
X129784076Y-106206802D01*
X129784078Y-106206811D01*
X129784080Y-106206816D01*
X129879932Y-106451043D01*
X130011114Y-106678257D01*
X130058429Y-106737588D01*
X130174698Y-106883385D01*
X130289992Y-106990361D01*
X130367021Y-107061833D01*
X130583796Y-107209628D01*
X130583801Y-107209630D01*
X130583802Y-107209631D01*
X130583803Y-107209632D01*
X130699332Y-107265267D01*
X130820173Y-107323461D01*
X130820174Y-107323461D01*
X130820177Y-107323463D01*
X131070885Y-107400796D01*
X131330318Y-107439900D01*
X131592682Y-107439900D01*
X131852115Y-107400796D01*
X132102823Y-107323463D01*
X132339204Y-107209628D01*
X132555979Y-107061833D01*
X132748305Y-106883381D01*
X132911886Y-106678257D01*
X133043068Y-106451043D01*
X133138920Y-106206816D01*
X133197302Y-105951030D01*
X133201777Y-105891314D01*
X133216908Y-105689404D01*
X133216908Y-105689395D01*
X133197303Y-105427779D01*
X133197302Y-105427774D01*
X133197302Y-105427770D01*
X133138920Y-105171984D01*
X133043068Y-104927757D01*
X132911886Y-104700543D01*
X132748305Y-104495419D01*
X132748304Y-104495418D01*
X132748301Y-104495414D01*
X132555979Y-104316967D01*
X132548683Y-104311993D01*
X132339204Y-104169172D01*
X132339200Y-104169170D01*
X132339197Y-104169168D01*
X132339196Y-104169167D01*
X132102825Y-104055338D01*
X132102827Y-104055338D01*
X131965540Y-104012991D01*
X131907281Y-103974421D01*
X131879123Y-103910476D01*
X131890007Y-103841459D01*
X131936476Y-103789282D01*
X132002090Y-103770500D01*
X137575699Y-103770500D01*
X137575700Y-103770499D01*
X137749672Y-103735895D01*
X137831612Y-103701953D01*
X137913553Y-103668013D01*
X137913555Y-103668011D01*
X137913558Y-103668010D01*
X138001961Y-103608939D01*
X138001961Y-103608938D01*
X138001965Y-103608936D01*
X138061042Y-103569464D01*
X142499464Y-99131041D01*
X142572215Y-99022162D01*
X142598013Y-98983553D01*
X142624458Y-98919709D01*
X142665895Y-98819672D01*
X142700500Y-98645697D01*
X142700500Y-98468314D01*
X142700500Y-93597755D01*
X150875702Y-93597755D01*
X150875702Y-104016315D01*
X168118098Y-104016315D01*
X168118098Y-93597755D01*
X150875702Y-93597755D01*
X142700500Y-93597755D01*
X142700500Y-91194500D01*
X142720185Y-91127461D01*
X142772989Y-91081706D01*
X142824500Y-91070500D01*
X171479693Y-91070500D01*
X171479694Y-91070499D01*
X171653666Y-91035895D01*
X171735606Y-91001953D01*
X171817547Y-90968013D01*
X171952241Y-90878013D01*
X171952241Y-90878012D01*
X171952243Y-90878012D01*
X171958594Y-90873767D01*
X171965036Y-90869464D01*
X173962248Y-88872251D01*
X175959457Y-86875043D01*
X175959458Y-86875040D01*
X175959463Y-86875036D01*
X175987706Y-86832768D01*
X176058013Y-86727547D01*
X176125894Y-86563666D01*
X176133511Y-86525374D01*
X176144431Y-86470476D01*
X176160500Y-86389694D01*
X176160500Y-48171311D01*
X176158510Y-48161304D01*
X176158510Y-48161303D01*
X176146979Y-48103333D01*
X176125895Y-47997334D01*
X176077895Y-47881452D01*
X176067992Y-47857544D01*
X176058014Y-47833455D01*
X175959465Y-47685966D01*
X175921372Y-47647873D01*
X175834035Y-47560536D01*
X175273499Y-47000000D01*
X173574039Y-45300538D01*
X173574038Y-45300537D01*
X173555189Y-45287943D01*
X173499150Y-45250499D01*
X173426547Y-45201987D01*
X173426548Y-45201987D01*
X173426546Y-45201986D01*
X173341692Y-45166839D01*
X173262666Y-45134105D01*
X173262658Y-45134103D01*
X173088696Y-45099500D01*
X173088692Y-45099500D01*
X173088691Y-45099500D01*
X167124499Y-45099500D01*
X167057460Y-45079815D01*
X167011705Y-45027011D01*
X167000499Y-44975500D01*
X167000499Y-44452129D01*
X167000498Y-44452123D01*
X167000497Y-44452116D01*
X166994091Y-44392517D01*
X166964506Y-44313196D01*
X166943797Y-44257671D01*
X166943793Y-44257664D01*
X166857547Y-44142455D01*
X166857544Y-44142452D01*
X166742335Y-44056206D01*
X166742328Y-44056202D01*
X166607482Y-44005908D01*
X166607483Y-44005908D01*
X166547883Y-43999501D01*
X166547881Y-43999500D01*
X166547873Y-43999500D01*
X166547864Y-43999500D01*
X163452129Y-43999500D01*
X163452123Y-43999501D01*
X163392516Y-44005908D01*
X163257671Y-44056202D01*
X163257664Y-44056206D01*
X163142455Y-44142452D01*
X163142452Y-44142455D01*
X163056206Y-44257664D01*
X163056202Y-44257671D01*
X163005908Y-44392517D01*
X162999501Y-44452116D01*
X162999501Y-44452123D01*
X162999500Y-44452135D01*
X162999500Y-46675637D01*
X162979815Y-46742676D01*
X162963181Y-46763318D01*
X156463319Y-53263181D01*
X156401996Y-53296666D01*
X156375638Y-53299500D01*
X149711305Y-53299500D01*
X149702745Y-53301203D01*
X149702740Y-53301204D01*
X149537341Y-53334103D01*
X149537332Y-53334106D01*
X149373459Y-53401983D01*
X149373446Y-53401990D01*
X149225966Y-53500534D01*
X149225964Y-53500537D01*
X143866945Y-58859553D01*
X143805622Y-58893038D01*
X143790071Y-58895400D01*
X143584082Y-58913422D01*
X143549086Y-58911512D01*
X143488692Y-58899500D01*
X143488691Y-58899500D01*
X135603746Y-58899500D01*
X135536707Y-58879815D01*
X135512516Y-58859483D01*
X135442406Y-58783323D01*
X135389162Y-58725484D01*
X135256891Y-58622534D01*
X135216081Y-58565827D01*
X135212406Y-58496054D01*
X135237315Y-58452405D01*
X135237989Y-58441543D01*
X134636008Y-57839560D01*
X134700785Y-57812729D01*
X134804789Y-57743236D01*
X134893236Y-57654789D01*
X134962729Y-57550785D01*
X134989560Y-57486007D01*
X135590923Y-58087370D01*
X135684019Y-57944878D01*
X135780881Y-57724057D01*
X135840075Y-57490302D01*
X135859987Y-57250006D01*
X135859987Y-57249993D01*
X135840075Y-57009697D01*
X135780881Y-56775942D01*
X135684020Y-56555123D01*
X135552137Y-56353259D01*
X135514237Y-56312090D01*
X135483314Y-56249436D01*
X135491174Y-56180009D01*
X135535320Y-56125854D01*
X135562134Y-56111924D01*
X135597326Y-56098798D01*
X135597326Y-56098797D01*
X135597331Y-56098796D01*
X135712546Y-56012546D01*
X135798796Y-55897331D01*
X135849091Y-55762483D01*
X135855500Y-55702873D01*
X135855499Y-54569360D01*
X135875184Y-54502322D01*
X135891813Y-54481685D01*
X137036681Y-53336819D01*
X137098004Y-53303334D01*
X137124362Y-53300500D01*
X142375501Y-53300500D01*
X142442540Y-53320185D01*
X142488295Y-53372989D01*
X142499501Y-53424500D01*
X142499501Y-53427876D01*
X142505908Y-53487483D01*
X142556202Y-53622328D01*
X142556206Y-53622335D01*
X142642452Y-53737544D01*
X142642455Y-53737547D01*
X142757664Y-53823793D01*
X142757671Y-53823797D01*
X142892517Y-53874091D01*
X142892516Y-53874091D01*
X142899444Y-53874835D01*
X142952127Y-53880500D01*
X144647872Y-53880499D01*
X144707483Y-53874091D01*
X144842331Y-53823796D01*
X144957546Y-53737546D01*
X145043796Y-53622331D01*
X145094091Y-53487483D01*
X145100500Y-53427873D01*
X145100499Y-51732128D01*
X145094091Y-51672517D01*
X145089819Y-51661064D01*
X145043797Y-51537671D01*
X145043793Y-51537664D01*
X144957547Y-51422455D01*
X144957544Y-51422452D01*
X144842335Y-51336206D01*
X144842328Y-51336202D01*
X144781167Y-51313391D01*
X144725233Y-51271520D01*
X144700816Y-51206056D01*
X144700500Y-51197209D01*
X144700500Y-51100005D01*
X149494859Y-51100005D01*
X149515385Y-51347729D01*
X149515387Y-51347738D01*
X149576412Y-51588717D01*
X149676266Y-51816364D01*
X149776564Y-51969882D01*
X150600000Y-51146446D01*
X150600000Y-51152661D01*
X150627259Y-51254394D01*
X150679920Y-51345606D01*
X150754394Y-51420080D01*
X150845606Y-51472741D01*
X150947339Y-51500000D01*
X150953553Y-51500000D01*
X150129942Y-52323609D01*
X150176768Y-52360055D01*
X150176770Y-52360056D01*
X150395385Y-52478364D01*
X150395396Y-52478369D01*
X150630506Y-52559083D01*
X150875707Y-52600000D01*
X151124293Y-52600000D01*
X151369493Y-52559083D01*
X151604603Y-52478369D01*
X151604614Y-52478364D01*
X151823228Y-52360057D01*
X151823231Y-52360055D01*
X151870056Y-52323609D01*
X151046447Y-51500000D01*
X151052661Y-51500000D01*
X151154394Y-51472741D01*
X151245606Y-51420080D01*
X151320080Y-51345606D01*
X151372741Y-51254394D01*
X151400000Y-51152661D01*
X151400000Y-51146448D01*
X152223434Y-51969882D01*
X152323731Y-51816369D01*
X152423587Y-51588717D01*
X152484612Y-51347738D01*
X152484614Y-51347729D01*
X152505141Y-51100005D01*
X152505141Y-51099994D01*
X152484614Y-50852270D01*
X152484612Y-50852261D01*
X152423587Y-50611282D01*
X152323731Y-50383630D01*
X152223434Y-50230116D01*
X151400000Y-51053551D01*
X151400000Y-51047339D01*
X151372741Y-50945606D01*
X151320080Y-50854394D01*
X151245606Y-50779920D01*
X151154394Y-50727259D01*
X151052661Y-50700000D01*
X151046448Y-50700000D01*
X151870057Y-49876390D01*
X151870056Y-49876389D01*
X151823229Y-49839943D01*
X151604614Y-49721635D01*
X151604603Y-49721630D01*
X151369493Y-49640916D01*
X151124293Y-49600000D01*
X150875707Y-49600000D01*
X150630506Y-49640916D01*
X150395396Y-49721630D01*
X150395390Y-49721632D01*
X150176761Y-49839949D01*
X150129942Y-49876388D01*
X150129942Y-49876390D01*
X150953553Y-50700000D01*
X150947339Y-50700000D01*
X150845606Y-50727259D01*
X150754394Y-50779920D01*
X150679920Y-50854394D01*
X150627259Y-50945606D01*
X150600000Y-51047339D01*
X150600000Y-51053552D01*
X149776564Y-50230116D01*
X149676267Y-50383632D01*
X149576412Y-50611282D01*
X149515387Y-50852261D01*
X149515385Y-50852270D01*
X149494859Y-51099994D01*
X149494859Y-51100005D01*
X144700500Y-51100005D01*
X144700500Y-50641981D01*
X144720185Y-50574942D01*
X144736814Y-50554305D01*
X147154301Y-48136817D01*
X147215624Y-48103333D01*
X147241982Y-48100499D01*
X148465492Y-48100499D01*
X148465493Y-48100499D01*
X148525104Y-48094091D01*
X148659952Y-48043796D01*
X148775167Y-47957546D01*
X148861417Y-47842331D01*
X148861417Y-47842329D01*
X148863082Y-47840106D01*
X148919016Y-47798235D01*
X148988708Y-47793251D01*
X149038511Y-47816564D01*
X149094383Y-47860051D01*
X149094392Y-47860057D01*
X149313006Y-47978364D01*
X149313017Y-47978369D01*
X149548127Y-48059083D01*
X149793328Y-48100000D01*
X150041914Y-48100000D01*
X150287114Y-48059083D01*
X150522224Y-47978369D01*
X150522235Y-47978364D01*
X150740849Y-47860057D01*
X150740852Y-47860055D01*
X150787677Y-47823609D01*
X149964068Y-47000000D01*
X149970282Y-47000000D01*
X150072015Y-46972741D01*
X150163227Y-46920080D01*
X150237701Y-46845606D01*
X150290362Y-46754394D01*
X150317621Y-46652661D01*
X150317621Y-46646448D01*
X151141055Y-47469882D01*
X151241352Y-47316369D01*
X151341208Y-47088717D01*
X151402233Y-46847738D01*
X151402235Y-46847729D01*
X151422762Y-46600005D01*
X151422762Y-46599994D01*
X151402235Y-46352270D01*
X151402233Y-46352261D01*
X151341208Y-46111282D01*
X151241352Y-45883630D01*
X151141055Y-45730116D01*
X150317621Y-46553551D01*
X150317621Y-46547339D01*
X150290362Y-46445606D01*
X150237701Y-46354394D01*
X150163227Y-46279920D01*
X150072015Y-46227259D01*
X149970282Y-46200000D01*
X149964068Y-46200000D01*
X150727249Y-45436819D01*
X150788572Y-45403334D01*
X150814930Y-45400500D01*
X152929251Y-45400500D01*
X152996290Y-45420185D01*
X153042045Y-45472989D01*
X153051989Y-45542147D01*
X153050417Y-45550858D01*
X153014804Y-45714566D01*
X152994390Y-45999998D01*
X152994390Y-46000001D01*
X153014804Y-46285433D01*
X153075628Y-46565037D01*
X153075630Y-46565043D01*
X153075631Y-46565046D01*
X153149583Y-46763318D01*
X153175635Y-46833166D01*
X153312770Y-47084309D01*
X153312775Y-47084317D01*
X153484254Y-47313387D01*
X153484270Y-47313405D01*
X153686594Y-47515729D01*
X153686612Y-47515745D01*
X153915682Y-47687224D01*
X153915690Y-47687229D01*
X154166833Y-47824364D01*
X154166832Y-47824364D01*
X154166836Y-47824365D01*
X154166839Y-47824367D01*
X154434954Y-47924369D01*
X154434960Y-47924370D01*
X154434962Y-47924371D01*
X154714566Y-47985195D01*
X154714568Y-47985195D01*
X154714572Y-47985196D01*
X154968163Y-48003333D01*
X154999999Y-48005610D01*
X155000000Y-48005610D01*
X155000001Y-48005610D01*
X155031837Y-48003333D01*
X155285428Y-47985196D01*
X155316812Y-47978369D01*
X155565037Y-47924371D01*
X155565037Y-47924370D01*
X155565046Y-47924369D01*
X155833161Y-47824367D01*
X156084315Y-47687226D01*
X156313395Y-47515739D01*
X156515739Y-47313395D01*
X156687226Y-47084315D01*
X156824367Y-46833161D01*
X156924369Y-46565046D01*
X156970376Y-46353553D01*
X156985195Y-46285433D01*
X156985195Y-46285432D01*
X156985196Y-46285428D01*
X157005610Y-46000001D01*
X157994891Y-46000001D01*
X158015300Y-46285362D01*
X158076109Y-46564895D01*
X158176091Y-46832958D01*
X158313191Y-47084038D01*
X158313196Y-47084046D01*
X158419882Y-47226561D01*
X158419883Y-47226562D01*
X159398958Y-46247487D01*
X159423978Y-46307890D01*
X159495112Y-46414351D01*
X159585649Y-46504888D01*
X159692110Y-46576022D01*
X159752511Y-46601041D01*
X158773436Y-47580115D01*
X158915960Y-47686807D01*
X158915961Y-47686808D01*
X159167042Y-47823908D01*
X159167041Y-47823908D01*
X159435104Y-47923890D01*
X159714637Y-47984699D01*
X159999999Y-48005109D01*
X160000001Y-48005109D01*
X160285362Y-47984699D01*
X160564895Y-47923890D01*
X160832958Y-47823908D01*
X161084047Y-47686803D01*
X161226561Y-47580116D01*
X161226562Y-47580115D01*
X160247489Y-46601041D01*
X160307890Y-46576022D01*
X160414351Y-46504888D01*
X160504888Y-46414351D01*
X160576022Y-46307890D01*
X160601041Y-46247488D01*
X161580115Y-47226562D01*
X161580116Y-47226561D01*
X161686803Y-47084047D01*
X161823908Y-46832958D01*
X161923890Y-46564895D01*
X161984699Y-46285362D01*
X162005109Y-46000001D01*
X162005109Y-45999998D01*
X161984699Y-45714637D01*
X161923890Y-45435104D01*
X161823908Y-45167041D01*
X161686808Y-44915961D01*
X161686807Y-44915960D01*
X161580115Y-44773436D01*
X160601041Y-45752510D01*
X160576022Y-45692110D01*
X160504888Y-45585649D01*
X160414351Y-45495112D01*
X160307890Y-45423978D01*
X160247488Y-45398958D01*
X161226562Y-44419883D01*
X161226561Y-44419882D01*
X161084046Y-44313196D01*
X161084038Y-44313191D01*
X160832957Y-44176091D01*
X160832958Y-44176091D01*
X160564895Y-44076109D01*
X160285362Y-44015300D01*
X160000001Y-43994891D01*
X159999999Y-43994891D01*
X159714637Y-44015300D01*
X159435104Y-44076109D01*
X159167041Y-44176091D01*
X158915961Y-44313191D01*
X158915953Y-44313196D01*
X158773437Y-44419882D01*
X158773436Y-44419883D01*
X159752512Y-45398958D01*
X159692110Y-45423978D01*
X159585649Y-45495112D01*
X159495112Y-45585649D01*
X159423978Y-45692110D01*
X159398958Y-45752511D01*
X158419883Y-44773436D01*
X158419882Y-44773437D01*
X158313196Y-44915953D01*
X158313191Y-44915961D01*
X158176091Y-45167041D01*
X158076109Y-45435104D01*
X158015300Y-45714637D01*
X157994891Y-45999998D01*
X157994891Y-46000001D01*
X157005610Y-46000001D01*
X157005610Y-46000000D01*
X156985196Y-45714572D01*
X156979607Y-45688881D01*
X156924371Y-45434962D01*
X156924370Y-45434960D01*
X156924369Y-45434954D01*
X156824367Y-45166839D01*
X156786049Y-45096666D01*
X156687229Y-44915690D01*
X156687224Y-44915682D01*
X156515745Y-44686612D01*
X156515729Y-44686594D01*
X156313405Y-44484270D01*
X156313387Y-44484254D01*
X156084317Y-44312775D01*
X156084309Y-44312770D01*
X155833166Y-44175635D01*
X155833167Y-44175635D01*
X155725915Y-44135632D01*
X155565046Y-44075631D01*
X155565043Y-44075630D01*
X155565037Y-44075628D01*
X155285433Y-44014804D01*
X155000001Y-43994390D01*
X154999999Y-43994390D01*
X154714566Y-44014804D01*
X154430627Y-44076572D01*
X154404269Y-44079406D01*
X154404268Y-44079406D01*
X154337229Y-44059721D01*
X154316587Y-44043087D01*
X154074039Y-43800538D01*
X154074038Y-43800537D01*
X154051395Y-43785408D01*
X153984079Y-43740429D01*
X153984077Y-43740428D01*
X153984077Y-43740427D01*
X153926544Y-43701985D01*
X153926542Y-43701984D01*
X153844607Y-43668046D01*
X153844606Y-43668046D01*
X153762666Y-43634105D01*
X153762658Y-43634103D01*
X153588696Y-43599500D01*
X153588692Y-43599500D01*
X153588691Y-43599500D01*
X149419307Y-43599500D01*
X149241923Y-43599500D01*
X149241918Y-43599500D01*
X149067956Y-43634103D01*
X149067944Y-43634106D01*
X148986007Y-43668045D01*
X148986008Y-43668046D01*
X148904070Y-43701985D01*
X148846536Y-43740429D01*
X148846535Y-43740430D01*
X148756576Y-43800537D01*
X147493932Y-45063181D01*
X147432609Y-45096666D01*
X147406251Y-45099500D01*
X146369750Y-45099500D01*
X146369744Y-45099501D01*
X146310137Y-45105908D01*
X146175292Y-45156202D01*
X146175285Y-45156206D01*
X146060076Y-45242452D01*
X146060073Y-45242455D01*
X145973827Y-45357664D01*
X145973823Y-45357671D01*
X145923529Y-45492517D01*
X145917122Y-45552116D01*
X145917121Y-45552135D01*
X145917121Y-46775637D01*
X145897436Y-46842676D01*
X145880802Y-46863318D01*
X143100538Y-49643581D01*
X143100537Y-49643582D01*
X143063176Y-49699499D01*
X143063175Y-49699500D01*
X143001985Y-49791076D01*
X142968046Y-49873014D01*
X142934106Y-49954950D01*
X142934103Y-49954962D01*
X142899500Y-50128924D01*
X142899500Y-51197209D01*
X142879815Y-51264248D01*
X142827011Y-51310003D01*
X142818833Y-51313391D01*
X142757671Y-51336202D01*
X142757664Y-51336206D01*
X142642457Y-51422451D01*
X142642449Y-51422458D01*
X142621975Y-51449810D01*
X142566042Y-51491682D01*
X142522708Y-51499500D01*
X136611303Y-51499500D01*
X136437341Y-51534103D01*
X136437333Y-51534105D01*
X136369867Y-51562051D01*
X136273455Y-51601985D01*
X136273447Y-51601990D01*
X136185040Y-51661063D01*
X136185039Y-51661064D01*
X136125961Y-51700537D01*
X134618317Y-53208181D01*
X134556994Y-53241666D01*
X134530636Y-53244500D01*
X133397129Y-53244500D01*
X133397123Y-53244501D01*
X133337516Y-53250908D01*
X133202671Y-53301202D01*
X133202664Y-53301206D01*
X133087455Y-53387452D01*
X133087452Y-53387455D01*
X133001206Y-53502664D01*
X133001202Y-53502671D01*
X132950908Y-53637517D01*
X132944501Y-53697116D01*
X132944500Y-53697135D01*
X132944500Y-55702870D01*
X132944501Y-55702876D01*
X132950908Y-55762483D01*
X133001202Y-55897328D01*
X133001206Y-55897335D01*
X133087452Y-56012544D01*
X133087455Y-56012547D01*
X133202664Y-56098793D01*
X133202671Y-56098797D01*
X133237866Y-56111924D01*
X133293800Y-56153795D01*
X133318217Y-56219259D01*
X133303366Y-56287532D01*
X133285763Y-56312089D01*
X133247862Y-56353259D01*
X133115979Y-56555123D01*
X133019118Y-56775942D01*
X132959924Y-57009697D01*
X132940013Y-57249993D01*
X132940013Y-57250006D01*
X132959924Y-57490302D01*
X133019118Y-57724057D01*
X133115979Y-57944876D01*
X133209074Y-58087369D01*
X133810438Y-57486005D01*
X133837271Y-57550785D01*
X133906764Y-57654789D01*
X133995211Y-57743236D01*
X134099215Y-57812729D01*
X134163991Y-57839560D01*
X133562009Y-58441543D01*
X133562794Y-58454189D01*
X133583917Y-58483538D01*
X133587592Y-58553311D01*
X133552962Y-58613995D01*
X133543105Y-58622536D01*
X133410840Y-58725482D01*
X133247467Y-58902953D01*
X133115537Y-59104888D01*
X133018645Y-59325779D01*
X132959430Y-59559615D01*
X132939512Y-59799994D01*
X132939512Y-59800005D01*
X132959430Y-60040384D01*
X133018645Y-60274220D01*
X133076715Y-60406607D01*
X133115539Y-60495115D01*
X133168919Y-60576819D01*
X133246724Y-60695909D01*
X133247470Y-60697050D01*
X133410838Y-60874516D01*
X133451664Y-60906292D01*
X133492475Y-60962999D01*
X133499500Y-61004143D01*
X133499500Y-63138830D01*
X133479815Y-63205869D01*
X133451663Y-63236683D01*
X133380258Y-63292260D01*
X133380256Y-63292261D01*
X133380256Y-63292262D01*
X133359952Y-63314317D01*
X133211833Y-63475217D01*
X133075826Y-63683393D01*
X132975936Y-63911118D01*
X132914892Y-64152175D01*
X132914890Y-64152187D01*
X132894357Y-64399994D01*
X132894357Y-64400005D01*
X132914890Y-64647812D01*
X132914892Y-64647824D01*
X132975936Y-64888881D01*
X133075826Y-65116606D01*
X133211833Y-65324782D01*
X133211836Y-65324785D01*
X133380256Y-65507738D01*
X133418473Y-65537483D01*
X133451662Y-65563315D01*
X133492475Y-65620026D01*
X133499500Y-65661169D01*
X133499500Y-65835637D01*
X133479815Y-65902676D01*
X133463181Y-65923318D01*
X130110538Y-69275960D01*
X130110534Y-69275965D01*
X130098415Y-69294104D01*
X130098414Y-69294106D01*
X130011988Y-69423449D01*
X129983685Y-69491781D01*
X129944105Y-69587333D01*
X129944103Y-69587341D01*
X129909500Y-69761303D01*
X129909500Y-75775638D01*
X129889815Y-75842677D01*
X129873181Y-75863319D01*
X129473319Y-76263181D01*
X129411996Y-76296666D01*
X129385638Y-76299500D01*
X128770047Y-76299500D01*
X128703008Y-76279815D01*
X128682366Y-76263181D01*
X128627213Y-76208028D01*
X128461611Y-76087713D01*
X128368369Y-76040203D01*
X128317574Y-75992229D01*
X128300779Y-75924407D01*
X128323317Y-75858273D01*
X128368371Y-75819234D01*
X128461347Y-75771861D01*
X128626894Y-75651582D01*
X128626895Y-75651582D01*
X128771582Y-75506895D01*
X128771582Y-75506894D01*
X128891859Y-75341349D01*
X128984755Y-75159029D01*
X129047990Y-74964413D01*
X129056609Y-74910000D01*
X127695686Y-74910000D01*
X127700080Y-74905606D01*
X127752741Y-74814394D01*
X127780000Y-74712661D01*
X127780000Y-74607339D01*
X127752741Y-74505606D01*
X127700080Y-74414394D01*
X127695686Y-74410000D01*
X129056609Y-74410000D01*
X129047990Y-74355586D01*
X128984755Y-74160970D01*
X128891859Y-73978650D01*
X128771582Y-73813105D01*
X128771582Y-73813104D01*
X128626895Y-73668417D01*
X128590187Y-73641747D01*
X128547522Y-73586417D01*
X128541543Y-73516803D01*
X128574149Y-73455008D01*
X128634988Y-73420651D01*
X128649814Y-73418140D01*
X128687483Y-73414091D01*
X128822331Y-73363796D01*
X128937546Y-73277546D01*
X129023796Y-73162331D01*
X129074091Y-73027483D01*
X129080500Y-72967873D01*
X129080499Y-71272128D01*
X129074091Y-71212517D01*
X129055063Y-71161501D01*
X129023797Y-71077671D01*
X129023793Y-71077664D01*
X128937547Y-70962455D01*
X128937544Y-70962452D01*
X128822335Y-70876206D01*
X128822328Y-70876202D01*
X128687482Y-70825908D01*
X128687483Y-70825908D01*
X128627883Y-70819501D01*
X128627881Y-70819500D01*
X128627873Y-70819500D01*
X128627864Y-70819500D01*
X126132129Y-70819500D01*
X126132123Y-70819501D01*
X126072516Y-70825908D01*
X125937671Y-70876202D01*
X125937664Y-70876206D01*
X125822455Y-70962452D01*
X125822452Y-70962455D01*
X125736206Y-71077664D01*
X125736202Y-71077671D01*
X125713391Y-71138833D01*
X125671520Y-71194767D01*
X125606056Y-71219184D01*
X125597209Y-71219500D01*
X121913633Y-71219500D01*
X121857339Y-71205985D01*
X121728787Y-71140485D01*
X121677990Y-71092511D01*
X121661195Y-71024690D01*
X121683732Y-70958555D01*
X121728787Y-70919515D01*
X121905403Y-70829525D01*
X121905402Y-70829525D01*
X121905405Y-70829524D01*
X122064646Y-70713828D01*
X122203828Y-70574646D01*
X122319524Y-70415405D01*
X122408884Y-70240025D01*
X122469709Y-70052826D01*
X122477162Y-70005770D01*
X122500500Y-69858422D01*
X122500500Y-69661577D01*
X122469709Y-69467173D01*
X122414308Y-69296669D01*
X122408884Y-69279975D01*
X122408882Y-69279972D01*
X122408882Y-69279970D01*
X122345108Y-69154807D01*
X122319524Y-69104595D01*
X122203828Y-68945354D01*
X122064646Y-68806172D01*
X121967813Y-68735818D01*
X121905403Y-68690474D01*
X121728787Y-68600485D01*
X121677990Y-68552511D01*
X121661195Y-68484690D01*
X121683732Y-68418555D01*
X121728787Y-68379515D01*
X121905403Y-68289525D01*
X121905402Y-68289525D01*
X121905405Y-68289524D01*
X122064646Y-68173828D01*
X122203828Y-68034646D01*
X122319524Y-67875405D01*
X122408884Y-67700025D01*
X122469709Y-67512826D01*
X122477162Y-67465770D01*
X122500500Y-67318422D01*
X122500500Y-67121577D01*
X122492803Y-67072982D01*
X122501757Y-67003689D01*
X122527592Y-66965906D01*
X123499463Y-65994036D01*
X123499464Y-65994035D01*
X123598013Y-65846547D01*
X123665894Y-65682666D01*
X123667951Y-65672328D01*
X123700499Y-65508695D01*
X123700500Y-65508693D01*
X123700500Y-64400005D01*
X127894859Y-64400005D01*
X127915385Y-64647729D01*
X127915387Y-64647738D01*
X127976412Y-64888717D01*
X128076266Y-65116364D01*
X128176564Y-65269882D01*
X129000000Y-64446446D01*
X129000000Y-64452661D01*
X129027259Y-64554394D01*
X129079920Y-64645606D01*
X129154394Y-64720080D01*
X129245606Y-64772741D01*
X129347339Y-64800000D01*
X129353553Y-64800000D01*
X128529942Y-65623609D01*
X128576768Y-65660055D01*
X128576770Y-65660056D01*
X128795385Y-65778364D01*
X128795396Y-65778369D01*
X129030506Y-65859083D01*
X129275707Y-65900000D01*
X129524293Y-65900000D01*
X129769493Y-65859083D01*
X130004603Y-65778369D01*
X130004614Y-65778364D01*
X130223228Y-65660057D01*
X130223231Y-65660055D01*
X130270056Y-65623609D01*
X129446447Y-64800000D01*
X129452661Y-64800000D01*
X129554394Y-64772741D01*
X129645606Y-64720080D01*
X129720080Y-64645606D01*
X129772741Y-64554394D01*
X129800000Y-64452661D01*
X129800000Y-64446448D01*
X130623434Y-65269882D01*
X130723731Y-65116369D01*
X130823587Y-64888717D01*
X130884612Y-64647738D01*
X130884614Y-64647729D01*
X130905141Y-64400005D01*
X130905141Y-64399994D01*
X130884614Y-64152270D01*
X130884612Y-64152261D01*
X130823587Y-63911282D01*
X130723731Y-63683630D01*
X130623434Y-63530116D01*
X129800000Y-64353551D01*
X129800000Y-64347339D01*
X129772741Y-64245606D01*
X129720080Y-64154394D01*
X129645606Y-64079920D01*
X129554394Y-64027259D01*
X129452661Y-64000000D01*
X129446448Y-64000000D01*
X130270057Y-63176390D01*
X130270056Y-63176389D01*
X130223229Y-63139943D01*
X130004614Y-63021635D01*
X130004603Y-63021630D01*
X129769493Y-62940916D01*
X129524293Y-62900000D01*
X129275707Y-62900000D01*
X129030506Y-62940916D01*
X128795396Y-63021630D01*
X128795390Y-63021632D01*
X128576761Y-63139949D01*
X128529942Y-63176388D01*
X128529942Y-63176390D01*
X129353553Y-64000000D01*
X129347339Y-64000000D01*
X129245606Y-64027259D01*
X129154394Y-64079920D01*
X129079920Y-64154394D01*
X129027259Y-64245606D01*
X129000000Y-64347339D01*
X129000000Y-64353552D01*
X128176564Y-63530116D01*
X128076267Y-63683632D01*
X127976412Y-63911282D01*
X127915387Y-64152261D01*
X127915385Y-64152270D01*
X127894859Y-64399994D01*
X127894859Y-64400005D01*
X123700500Y-64400005D01*
X123700500Y-55807306D01*
X123720185Y-55740267D01*
X123736819Y-55719625D01*
X124179461Y-55276983D01*
X124179464Y-55276980D01*
X124213907Y-55225432D01*
X124247461Y-55175216D01*
X124247462Y-55175214D01*
X124278010Y-55129496D01*
X124278010Y-55129494D01*
X124278013Y-55129491D01*
X124311953Y-55047550D01*
X124345895Y-54965610D01*
X124380500Y-54791636D01*
X124380500Y-54614252D01*
X124380500Y-52171772D01*
X124400185Y-52104733D01*
X124431612Y-52071455D01*
X124537510Y-51994517D01*
X124704517Y-51827510D01*
X124729682Y-51792872D01*
X124785011Y-51750207D01*
X124854625Y-51744228D01*
X124916420Y-51776833D01*
X124930315Y-51792870D01*
X124955483Y-51827510D01*
X125122490Y-51994517D01*
X125313567Y-52133343D01*
X125388988Y-52171772D01*
X125524003Y-52240566D01*
X125524005Y-52240566D01*
X125524008Y-52240568D01*
X125644412Y-52279689D01*
X125748631Y-52313553D01*
X125981903Y-52350500D01*
X125981908Y-52350500D01*
X126218097Y-52350500D01*
X126451368Y-52313553D01*
X126452870Y-52313065D01*
X126675992Y-52240568D01*
X126886433Y-52133343D01*
X127077510Y-51994517D01*
X127244517Y-51827510D01*
X127383343Y-51636433D01*
X127490568Y-51425992D01*
X127563553Y-51201368D01*
X127564212Y-51197209D01*
X127600500Y-50968097D01*
X127600500Y-50231902D01*
X127563553Y-49998631D01*
X127522737Y-49873014D01*
X127490568Y-49774008D01*
X127490566Y-49774005D01*
X127490566Y-49774003D01*
X127422754Y-49640916D01*
X127383343Y-49563567D01*
X127244517Y-49372490D01*
X127077510Y-49205483D01*
X126886433Y-49066657D01*
X126675996Y-48959433D01*
X126451368Y-48886446D01*
X126218097Y-48849500D01*
X126218092Y-48849500D01*
X125981908Y-48849500D01*
X125981903Y-48849500D01*
X125748631Y-48886446D01*
X125524003Y-48959433D01*
X125313566Y-49066657D01*
X125204550Y-49145862D01*
X125122490Y-49205483D01*
X125122488Y-49205485D01*
X125122487Y-49205485D01*
X124955484Y-49372488D01*
X124930318Y-49407127D01*
X124874987Y-49449792D01*
X124805374Y-49455771D01*
X124743579Y-49423165D01*
X124729682Y-49407127D01*
X124704517Y-49372490D01*
X124537510Y-49205483D01*
X124346433Y-49066657D01*
X124135996Y-48959433D01*
X123911368Y-48886446D01*
X123678097Y-48849500D01*
X123678092Y-48849500D01*
X123441908Y-48849500D01*
X123441903Y-48849500D01*
X123208631Y-48886446D01*
X122984003Y-48959433D01*
X122773566Y-49066657D01*
X122664550Y-49145862D01*
X122582490Y-49205483D01*
X122582488Y-49205485D01*
X122582487Y-49205485D01*
X122415484Y-49372488D01*
X122390318Y-49407127D01*
X122334987Y-49449792D01*
X122265374Y-49455771D01*
X122203579Y-49423165D01*
X122189682Y-49407127D01*
X122164517Y-49372490D01*
X121997510Y-49205483D01*
X121806433Y-49066657D01*
X121595996Y-48959433D01*
X121371368Y-48886446D01*
X121138097Y-48849500D01*
X121138092Y-48849500D01*
X120901908Y-48849500D01*
X120901903Y-48849500D01*
X120668631Y-48886446D01*
X120444003Y-48959433D01*
X120233566Y-49066657D01*
X120124550Y-49145862D01*
X120042490Y-49205483D01*
X120042488Y-49205485D01*
X120042487Y-49205485D01*
X119875485Y-49372487D01*
X119875478Y-49372496D01*
X119850008Y-49407552D01*
X119794678Y-49450218D01*
X119725064Y-49456196D01*
X119663270Y-49423589D01*
X119649372Y-49407551D01*
X119624135Y-49372815D01*
X119457186Y-49205866D01*
X119266171Y-49067085D01*
X119055802Y-48959897D01*
X118831247Y-48886934D01*
X118730000Y-48870897D01*
X118730000Y-50166988D01*
X118672993Y-50134075D01*
X118545826Y-50100000D01*
X118414174Y-50100000D01*
X118287007Y-50134075D01*
X118230000Y-50166988D01*
X118230000Y-48870897D01*
X118128752Y-48886934D01*
X117904197Y-48959897D01*
X117693828Y-49067085D01*
X117502813Y-49205866D01*
X117335866Y-49372813D01*
X117335861Y-49372819D01*
X117310624Y-49407554D01*
X117255293Y-49450218D01*
X117185680Y-49456196D01*
X117123885Y-49423588D01*
X117109997Y-49407560D01*
X117084517Y-49372490D01*
X116917510Y-49205483D01*
X116917506Y-49205480D01*
X116891612Y-49186666D01*
X116848948Y-49131335D01*
X116840500Y-49086350D01*
X116840500Y-48721308D01*
X116840499Y-48721304D01*
X116805896Y-48547341D01*
X116805895Y-48547334D01*
X116740339Y-48389071D01*
X116738695Y-48384474D01*
X116639465Y-48235966D01*
X116639464Y-48235965D01*
X116514035Y-48110536D01*
X116381863Y-47978364D01*
X115954041Y-47550540D01*
X115954038Y-47550537D01*
X115879150Y-47500499D01*
X115806544Y-47451985D01*
X115806542Y-47451984D01*
X115724607Y-47418046D01*
X115724606Y-47418046D01*
X115642666Y-47384105D01*
X115642658Y-47384103D01*
X115468696Y-47349500D01*
X115468692Y-47349500D01*
X115468691Y-47349500D01*
X107358692Y-47349500D01*
X107181309Y-47349500D01*
X107181304Y-47349500D01*
X107007339Y-47384103D01*
X107007323Y-47384108D01*
X106891453Y-47432102D01*
X106891454Y-47432103D01*
X106843454Y-47451986D01*
X106843453Y-47451987D01*
X106770849Y-47500500D01*
X106695964Y-47550535D01*
X106695961Y-47550538D01*
X103912181Y-50334319D01*
X103850858Y-50367804D01*
X103781166Y-50362820D01*
X103725233Y-50320948D01*
X103700816Y-50255484D01*
X103700500Y-50246638D01*
X103700500Y-46461169D01*
X103720185Y-46394130D01*
X103748338Y-46363315D01*
X103819744Y-46307738D01*
X103988164Y-46124785D01*
X104124173Y-45916607D01*
X104224063Y-45688881D01*
X104285108Y-45447821D01*
X104287398Y-45420185D01*
X104305643Y-45200005D01*
X104305643Y-45199994D01*
X104285109Y-44952187D01*
X104285107Y-44952175D01*
X104224063Y-44711118D01*
X104124173Y-44483393D01*
X103988166Y-44275217D01*
X103966557Y-44251744D01*
X103819744Y-44092262D01*
X103623509Y-43939526D01*
X103623507Y-43939525D01*
X103623506Y-43939524D01*
X103404811Y-43821172D01*
X103404802Y-43821169D01*
X103169616Y-43740429D01*
X102924335Y-43699500D01*
X102675665Y-43699500D01*
X102430383Y-43740429D01*
X102195197Y-43821169D01*
X102195188Y-43821172D01*
X101976493Y-43939524D01*
X101780257Y-44092261D01*
X101611833Y-44275217D01*
X101475826Y-44483393D01*
X101375936Y-44711118D01*
X101314892Y-44952175D01*
X101314890Y-44952187D01*
X101294357Y-45199994D01*
X101294357Y-45200005D01*
X101314890Y-45447812D01*
X101314892Y-45447824D01*
X101375936Y-45688881D01*
X101475826Y-45916606D01*
X101611833Y-46124782D01*
X101611836Y-46124785D01*
X101780256Y-46307738D01*
X101840200Y-46354394D01*
X101851662Y-46363315D01*
X101892475Y-46420026D01*
X101899500Y-46461169D01*
X101899500Y-51458830D01*
X101879815Y-51525869D01*
X101851663Y-51556683D01*
X101780258Y-51612260D01*
X101780256Y-51612261D01*
X101780256Y-51612262D01*
X101626317Y-51779483D01*
X101566432Y-51815473D01*
X101535089Y-51819500D01*
X98031306Y-51819500D01*
X97857341Y-51854103D01*
X97857332Y-51854106D01*
X97693459Y-51921983D01*
X97693446Y-51921990D01*
X97545966Y-52020534D01*
X97545964Y-52020537D01*
X88913317Y-60653181D01*
X88851994Y-60686666D01*
X88825636Y-60689500D01*
X87902129Y-60689500D01*
X87902123Y-60689501D01*
X87842516Y-60695908D01*
X87707671Y-60746202D01*
X87707664Y-60746206D01*
X87592455Y-60832452D01*
X87592452Y-60832455D01*
X87506206Y-60947664D01*
X87506202Y-60947671D01*
X87455908Y-61082517D01*
X87449501Y-61142116D01*
X87449500Y-61142135D01*
X87449500Y-62937870D01*
X87449501Y-62937876D01*
X87455908Y-62997483D01*
X87506202Y-63132328D01*
X87506206Y-63132335D01*
X87592452Y-63247544D01*
X87592455Y-63247547D01*
X87707664Y-63333793D01*
X87707671Y-63333797D01*
X87769902Y-63357007D01*
X87839598Y-63383002D01*
X87895531Y-63424873D01*
X87919949Y-63490337D01*
X87905098Y-63558610D01*
X87883947Y-63586865D01*
X87761886Y-63708926D01*
X87626400Y-63902420D01*
X87626399Y-63902422D01*
X87526570Y-64116507D01*
X87526567Y-64116513D01*
X87469364Y-64329999D01*
X87469364Y-64330000D01*
X88366988Y-64330000D01*
X88334075Y-64387007D01*
X88300000Y-64514174D01*
X88300000Y-64645826D01*
X88334075Y-64772993D01*
X88366988Y-64830000D01*
X87469364Y-64830000D01*
X87526567Y-65043486D01*
X87526570Y-65043492D01*
X87626399Y-65257578D01*
X87761894Y-65451082D01*
X87928917Y-65618105D01*
X88114595Y-65748119D01*
X88158219Y-65802696D01*
X88165412Y-65872195D01*
X88133890Y-65934549D01*
X88114595Y-65951269D01*
X87928594Y-66081508D01*
X87761505Y-66248597D01*
X87625965Y-66442169D01*
X87625964Y-66442171D01*
X87526098Y-66656335D01*
X87526094Y-66656344D01*
X87464938Y-66884586D01*
X87464936Y-66884596D01*
X87444341Y-67119999D01*
X87444341Y-67120000D01*
X87464936Y-67355403D01*
X87464938Y-67355413D01*
X87526094Y-67583655D01*
X87526096Y-67583659D01*
X87526097Y-67583663D01*
X87580596Y-67700536D01*
X87625965Y-67797830D01*
X87625967Y-67797834D01*
X87724463Y-67938500D01*
X87760497Y-67989962D01*
X87761501Y-67991395D01*
X87761506Y-67991402D01*
X87928597Y-68158493D01*
X87928603Y-68158498D01*
X88114158Y-68288425D01*
X88157783Y-68343002D01*
X88164977Y-68412500D01*
X88133454Y-68474855D01*
X88114158Y-68491575D01*
X87928597Y-68621505D01*
X87761505Y-68788597D01*
X87625965Y-68982169D01*
X87625964Y-68982171D01*
X87526098Y-69196335D01*
X87526094Y-69196344D01*
X87464938Y-69424586D01*
X87464936Y-69424596D01*
X87444341Y-69659999D01*
X87444341Y-69660000D01*
X87464936Y-69895403D01*
X87464938Y-69895413D01*
X87526094Y-70123655D01*
X87526096Y-70123659D01*
X87526097Y-70123663D01*
X87580358Y-70240025D01*
X87625965Y-70337830D01*
X87625967Y-70337834D01*
X87696112Y-70438010D01*
X87743645Y-70505895D01*
X87761501Y-70531395D01*
X87761506Y-70531402D01*
X87928597Y-70698493D01*
X87928603Y-70698498D01*
X88114158Y-70828425D01*
X88157783Y-70883002D01*
X88164977Y-70952500D01*
X88133454Y-71014855D01*
X88114158Y-71031575D01*
X87928597Y-71161505D01*
X87761505Y-71328597D01*
X87625965Y-71522169D01*
X87625964Y-71522171D01*
X87526098Y-71736335D01*
X87526094Y-71736344D01*
X87464938Y-71964586D01*
X87464936Y-71964596D01*
X87444341Y-72199999D01*
X87444341Y-72200000D01*
X87464936Y-72435403D01*
X87464938Y-72435413D01*
X87526094Y-72663655D01*
X87526096Y-72663659D01*
X87526097Y-72663663D01*
X87594788Y-72810970D01*
X87625965Y-72877830D01*
X87625967Y-72877834D01*
X87761501Y-73071395D01*
X87761506Y-73071402D01*
X87928597Y-73238493D01*
X87928603Y-73238498D01*
X88114158Y-73368425D01*
X88157783Y-73423002D01*
X88164977Y-73492500D01*
X88133454Y-73554855D01*
X88114158Y-73571575D01*
X87928597Y-73701505D01*
X87761505Y-73868597D01*
X87625965Y-74062169D01*
X87625964Y-74062171D01*
X87526098Y-74276335D01*
X87526094Y-74276344D01*
X87464938Y-74504586D01*
X87464936Y-74504596D01*
X87444341Y-74739999D01*
X87444341Y-74740000D01*
X87464936Y-74975403D01*
X87464938Y-74975413D01*
X87526094Y-75203655D01*
X87526096Y-75203659D01*
X87526097Y-75203663D01*
X87555568Y-75266863D01*
X87625965Y-75417830D01*
X87625967Y-75417834D01*
X87761501Y-75611395D01*
X87761506Y-75611402D01*
X87928597Y-75778493D01*
X87928603Y-75778498D01*
X88114158Y-75908425D01*
X88157783Y-75963002D01*
X88164977Y-76032500D01*
X88133454Y-76094855D01*
X88114158Y-76111575D01*
X87928597Y-76241505D01*
X87761505Y-76408597D01*
X87625965Y-76602169D01*
X87625964Y-76602171D01*
X87526098Y-76816335D01*
X87526094Y-76816344D01*
X87464938Y-77044586D01*
X87464936Y-77044596D01*
X87444341Y-77279999D01*
X87444341Y-77280000D01*
X87464936Y-77515403D01*
X87464938Y-77515413D01*
X87526094Y-77743655D01*
X87526096Y-77743659D01*
X87526097Y-77743663D01*
X87617155Y-77938936D01*
X87625965Y-77957830D01*
X87625967Y-77957834D01*
X87761501Y-78151395D01*
X87761506Y-78151402D01*
X87928597Y-78318493D01*
X87928603Y-78318498D01*
X88114158Y-78448425D01*
X88157783Y-78503002D01*
X88164977Y-78572500D01*
X88133454Y-78634855D01*
X88114158Y-78651575D01*
X87928597Y-78781505D01*
X87761505Y-78948597D01*
X87625965Y-79142169D01*
X87625964Y-79142171D01*
X87526098Y-79356335D01*
X87526094Y-79356344D01*
X87464938Y-79584586D01*
X87464936Y-79584596D01*
X87444341Y-79819999D01*
X87444341Y-79820000D01*
X87464936Y-80055403D01*
X87464938Y-80055413D01*
X87526094Y-80283655D01*
X87526096Y-80283659D01*
X87526097Y-80283663D01*
X87598749Y-80439465D01*
X87625965Y-80497830D01*
X87625967Y-80497834D01*
X87725863Y-80640499D01*
X87758133Y-80686586D01*
X87761501Y-80691395D01*
X87761506Y-80691402D01*
X87928597Y-80858493D01*
X87928603Y-80858498D01*
X88114158Y-80988425D01*
X88157783Y-81043002D01*
X88164977Y-81112500D01*
X88133454Y-81174855D01*
X88114158Y-81191575D01*
X87928597Y-81321505D01*
X87761505Y-81488597D01*
X87625965Y-81682169D01*
X87625964Y-81682171D01*
X87526098Y-81896335D01*
X87526094Y-81896344D01*
X87464938Y-82124586D01*
X87464936Y-82124596D01*
X87444341Y-82359998D01*
X87444341Y-82360000D01*
X87444791Y-82365150D01*
X87445911Y-82377952D01*
X87432141Y-82446452D01*
X87410063Y-82476435D01*
X86350537Y-83535961D01*
X86331178Y-83564936D01*
X86331177Y-83564937D01*
X86251990Y-83683447D01*
X86251985Y-83683457D01*
X86224630Y-83749499D01*
X86184105Y-83847333D01*
X86184103Y-83847341D01*
X86149500Y-84021303D01*
X86149500Y-85713570D01*
X86184103Y-85887533D01*
X86184104Y-85887537D01*
X86184105Y-85887540D01*
X86204135Y-85935895D01*
X86251984Y-86051416D01*
X86251985Y-86051418D01*
X86311063Y-86139834D01*
X86350537Y-86198912D01*
X86350540Y-86198915D01*
X88125662Y-87974035D01*
X88197649Y-88046022D01*
X88251092Y-88099465D01*
X88398572Y-88198009D01*
X88398584Y-88198016D01*
X88520260Y-88248414D01*
X88550498Y-88260939D01*
X88604902Y-88304779D01*
X88626967Y-88371073D01*
X88609688Y-88438773D01*
X88558551Y-88486383D01*
X88503046Y-88499500D01*
X88311306Y-88499500D01*
X88137341Y-88534103D01*
X88137332Y-88534106D01*
X87973459Y-88601983D01*
X87973446Y-88601990D01*
X87825966Y-88700534D01*
X87825964Y-88700537D01*
X85457451Y-91069047D01*
X85396128Y-91102532D01*
X85349365Y-91103676D01*
X85333782Y-91101076D01*
X85324335Y-91099500D01*
X85075665Y-91099500D01*
X84830383Y-91140429D01*
X84595197Y-91221169D01*
X84595188Y-91221172D01*
X84376493Y-91339524D01*
X84180257Y-91492261D01*
X84011833Y-91675217D01*
X83875826Y-91883393D01*
X83775936Y-92111118D01*
X83714892Y-92352175D01*
X83714890Y-92352187D01*
X83694357Y-92599994D01*
X83694357Y-92600005D01*
X79000500Y-92600005D01*
X79000500Y-40000000D01*
X80394747Y-40000000D01*
X80413741Y-40314023D01*
X80413741Y-40314028D01*
X80413742Y-40314029D01*
X80470451Y-40623478D01*
X80470452Y-40623482D01*
X80470453Y-40623486D01*
X80564039Y-40923816D01*
X80564043Y-40923827D01*
X80564044Y-40923830D01*
X80564046Y-40923835D01*
X80693163Y-41210721D01*
X80843892Y-41460057D01*
X80855924Y-41479960D01*
X81049942Y-41727605D01*
X81272394Y-41950057D01*
X81520039Y-42144075D01*
X81520044Y-42144078D01*
X81520048Y-42144081D01*
X81789279Y-42306837D01*
X82076165Y-42435954D01*
X82076175Y-42435957D01*
X82076183Y-42435960D01*
X82276403Y-42498350D01*
X82376522Y-42529549D01*
X82685971Y-42586258D01*
X83000000Y-42605253D01*
X83314029Y-42586258D01*
X83623478Y-42529549D01*
X83923835Y-42435954D01*
X84210721Y-42306837D01*
X84479952Y-42144081D01*
X84727602Y-41950060D01*
X84950060Y-41727602D01*
X85144081Y-41479952D01*
X85306837Y-41210721D01*
X85435954Y-40923835D01*
X85438281Y-40916369D01*
X85448624Y-40883174D01*
X85529549Y-40623478D01*
X85586258Y-40314029D01*
X85593155Y-40200005D01*
X101294859Y-40200005D01*
X101315385Y-40447729D01*
X101315387Y-40447738D01*
X101376412Y-40688717D01*
X101476266Y-40916364D01*
X101576564Y-41069882D01*
X102400000Y-40246446D01*
X102400000Y-40252661D01*
X102427259Y-40354394D01*
X102479920Y-40445606D01*
X102554394Y-40520080D01*
X102645606Y-40572741D01*
X102747339Y-40600000D01*
X102753553Y-40600000D01*
X101929942Y-41423609D01*
X101976768Y-41460055D01*
X101976770Y-41460056D01*
X102195385Y-41578364D01*
X102195396Y-41578369D01*
X102430506Y-41659083D01*
X102675707Y-41700000D01*
X102924293Y-41700000D01*
X103169493Y-41659083D01*
X103404603Y-41578369D01*
X103404614Y-41578364D01*
X103623228Y-41460057D01*
X103623231Y-41460055D01*
X103670056Y-41423609D01*
X102846447Y-40600000D01*
X102852661Y-40600000D01*
X102954394Y-40572741D01*
X103045606Y-40520080D01*
X103120080Y-40445606D01*
X103172741Y-40354394D01*
X103200000Y-40252661D01*
X103200000Y-40246448D01*
X104023434Y-41069882D01*
X104123731Y-40916369D01*
X104223587Y-40688717D01*
X104284612Y-40447738D01*
X104284614Y-40447729D01*
X104305141Y-40200005D01*
X104305141Y-40199994D01*
X104288569Y-40000000D01*
X170394747Y-40000000D01*
X170413741Y-40314023D01*
X170413741Y-40314028D01*
X170413742Y-40314029D01*
X170470451Y-40623478D01*
X170470452Y-40623482D01*
X170470453Y-40623486D01*
X170564039Y-40923816D01*
X170564043Y-40923827D01*
X170564044Y-40923830D01*
X170564046Y-40923835D01*
X170693163Y-41210721D01*
X170843892Y-41460057D01*
X170855924Y-41479960D01*
X171049942Y-41727605D01*
X171272394Y-41950057D01*
X171520039Y-42144075D01*
X171520044Y-42144078D01*
X171520048Y-42144081D01*
X171789279Y-42306837D01*
X172076165Y-42435954D01*
X172076175Y-42435957D01*
X172076183Y-42435960D01*
X172276403Y-42498350D01*
X172376522Y-42529549D01*
X172685971Y-42586258D01*
X173000000Y-42605253D01*
X173314029Y-42586258D01*
X173623478Y-42529549D01*
X173923835Y-42435954D01*
X174210721Y-42306837D01*
X174479952Y-42144081D01*
X174727602Y-41950060D01*
X174950060Y-41727602D01*
X175144081Y-41479952D01*
X175306837Y-41210721D01*
X175435954Y-40923835D01*
X175438281Y-40916369D01*
X175448624Y-40883174D01*
X175529549Y-40623478D01*
X175586258Y-40314029D01*
X175605253Y-40000000D01*
X175586258Y-39685971D01*
X175529549Y-39376522D01*
X175435954Y-39076165D01*
X175306837Y-38789279D01*
X175144081Y-38520048D01*
X175144078Y-38520044D01*
X175144075Y-38520039D01*
X174950057Y-38272394D01*
X174727605Y-38049942D01*
X174479960Y-37855924D01*
X174479952Y-37855919D01*
X174210721Y-37693163D01*
X173923835Y-37564046D01*
X173923830Y-37564044D01*
X173923827Y-37564043D01*
X173923816Y-37564039D01*
X173623486Y-37470453D01*
X173623482Y-37470452D01*
X173623478Y-37470451D01*
X173314029Y-37413742D01*
X173314028Y-37413741D01*
X173314023Y-37413741D01*
X173000000Y-37394747D01*
X172685976Y-37413741D01*
X172685971Y-37413742D01*
X172376522Y-37470451D01*
X172376519Y-37470451D01*
X172376513Y-37470453D01*
X172076183Y-37564039D01*
X172076172Y-37564043D01*
X171789283Y-37693161D01*
X171789281Y-37693162D01*
X171520039Y-37855924D01*
X171272394Y-38049942D01*
X171049942Y-38272394D01*
X170855924Y-38520039D01*
X170855919Y-38520048D01*
X170722400Y-38740916D01*
X170693162Y-38789281D01*
X170693161Y-38789283D01*
X170564043Y-39076172D01*
X170564039Y-39076183D01*
X170470453Y-39376513D01*
X170413741Y-39685976D01*
X170394747Y-40000000D01*
X104288569Y-40000000D01*
X104284614Y-39952270D01*
X104284612Y-39952261D01*
X104223587Y-39711282D01*
X104123731Y-39483630D01*
X104023434Y-39330116D01*
X103200000Y-40153551D01*
X103200000Y-40147339D01*
X103172741Y-40045606D01*
X103120080Y-39954394D01*
X103045606Y-39879920D01*
X102954394Y-39827259D01*
X102852661Y-39800000D01*
X102846448Y-39800000D01*
X103670057Y-38976390D01*
X103670056Y-38976389D01*
X103623229Y-38939943D01*
X103404614Y-38821635D01*
X103404603Y-38821630D01*
X103169493Y-38740916D01*
X102924293Y-38700000D01*
X102675707Y-38700000D01*
X102430506Y-38740916D01*
X102195396Y-38821630D01*
X102195390Y-38821632D01*
X101976761Y-38939949D01*
X101929942Y-38976388D01*
X101929942Y-38976390D01*
X102753553Y-39800000D01*
X102747339Y-39800000D01*
X102645606Y-39827259D01*
X102554394Y-39879920D01*
X102479920Y-39954394D01*
X102427259Y-40045606D01*
X102400000Y-40147339D01*
X102400000Y-40153552D01*
X101576564Y-39330116D01*
X101476267Y-39483632D01*
X101376412Y-39711282D01*
X101315387Y-39952261D01*
X101315385Y-39952270D01*
X101294859Y-40199994D01*
X101294859Y-40200005D01*
X85593155Y-40200005D01*
X85605253Y-40000000D01*
X85586258Y-39685971D01*
X85529549Y-39376522D01*
X85435954Y-39076165D01*
X85306837Y-38789279D01*
X85144081Y-38520048D01*
X85144078Y-38520044D01*
X85144075Y-38520039D01*
X84950057Y-38272394D01*
X84727605Y-38049942D01*
X84479960Y-37855924D01*
X84479952Y-37855919D01*
X84210721Y-37693163D01*
X83923835Y-37564046D01*
X83923830Y-37564044D01*
X83923827Y-37564043D01*
X83923816Y-37564039D01*
X83623486Y-37470453D01*
X83623482Y-37470452D01*
X83623478Y-37470451D01*
X83314029Y-37413742D01*
X83314028Y-37413741D01*
X83314023Y-37413741D01*
X83000000Y-37394747D01*
X82685976Y-37413741D01*
X82685971Y-37413742D01*
X82376522Y-37470451D01*
X82376519Y-37470451D01*
X82376513Y-37470453D01*
X82076183Y-37564039D01*
X82076172Y-37564043D01*
X81789283Y-37693161D01*
X81789281Y-37693162D01*
X81520039Y-37855924D01*
X81272394Y-38049942D01*
X81049942Y-38272394D01*
X80855924Y-38520039D01*
X80855919Y-38520048D01*
X80722400Y-38740916D01*
X80693162Y-38789281D01*
X80693161Y-38789283D01*
X80564043Y-39076172D01*
X80564039Y-39076183D01*
X80470453Y-39376513D01*
X80413741Y-39685976D01*
X80394747Y-40000000D01*
X79000500Y-40000000D01*
X79000500Y-37124500D01*
X79020185Y-37057461D01*
X79072989Y-37011706D01*
X79124500Y-37000500D01*
X176875500Y-37000500D01*
X176942539Y-37020185D01*
G37*
%TD.AperFunction*%
%TD*%
M02*
