M48
; DRILL file {KiCad 8.0.0} date 2025-03-21T12:44:26+0100
; FORMAT={-:-/ absolute / inch / decimal}
; #@! TF.CreationDate,2025-03-21T12:44:26+01:00
; #@! TF.GenerationSoftware,Kicad,Pcbnew,8.0.0
; #@! TF.FileFunction,MixedPlating,1,2
FMAT,2
INCH
; #@! TA.AperFunction,Plated,PTH,ViaDrill
T1C0.0315
; #@! TA.AperFunction,Plated,PTH,ComponentDrill
T2C0.0315
; #@! TA.AperFunction,Plated,PTH,ComponentDrill
T3C0.0323
; #@! TA.AperFunction,Plated,PTH,ComponentDrill
T4C0.0394
; #@! TA.AperFunction,Plated,PTH,ComponentDrill
T5C0.0500
; #@! TA.AperFunction,Plated,PTH,ComponentDrill
T6C0.0512
; #@! TA.AperFunction,Plated,PTH,ComponentDrill
T7C0.1260
%
G90
G05
T1
X4.55Y-2.3
X4.95Y-2.3
X6.6709Y-1.7376
X6.6709Y-1.9876
T2
X3.3543Y-3.6457
X3.3543Y-3.7457
X3.6772Y-3.6457
X3.6772Y-3.7457
X3.8992Y-3.9055
X3.9024Y-3.5197
X3.9024Y-3.6457
X3.9024Y-3.7717
X4.0472Y-1.5827
X4.0472Y-1.7795
X4.0472Y-2.0756
X4.0472Y-2.4756
X4.2992Y-3.9055
X4.3024Y-3.5197
X4.3024Y-3.6457
X4.3024Y-3.7717
X5.015Y-2.8394
X5.015Y-2.9394
X5.015Y-3.0394
X5.015Y-3.1394
X5.0945Y-2.5354
X5.2913Y-2.5354
X5.315Y-2.8394
X5.315Y-2.9394
X5.315Y-3.0394
X5.315Y-3.1394
X5.4882Y-2.7417
X5.4882Y-3.1417
X5.6614Y-2.0701
X5.6614Y-2.3701
X5.8038Y-1.8346
X5.9023Y-1.8346
X5.9449Y-2.0118
X5.9449Y-2.2087
X5.9969Y-2.5197
X6.0Y-2.35
X6.3969Y-2.5197
X6.4Y-2.35
X6.6066Y-2.485
X6.6066Y-2.785
X6.7066Y-2.485
X6.7066Y-2.785
T3
X4.4539Y-2.5465
X4.4539Y-2.6465
X4.4539Y-2.7465
X4.4539Y-2.8465
X4.4539Y-2.9465
X4.4539Y-3.0465
X4.4539Y-3.1465
X4.4539Y-3.2465
X4.4539Y-3.3465
X4.4539Y-3.4465
X4.4539Y-3.5465
X4.4539Y-3.6465
X4.4539Y-3.7465
X4.4539Y-3.8465
X4.7638Y-2.5465
X4.7638Y-2.6465
X4.7638Y-2.7465
X4.7638Y-2.8465
X4.7638Y-2.9465
X4.7638Y-3.0465
X4.7638Y-3.1465
X4.7638Y-3.2465
X4.7638Y-3.3465
X4.7638Y-3.4465
X4.7638Y-3.5465
X4.7638Y-3.6465
X4.7638Y-3.7465
X4.7638Y-3.8465
T4
X3.4961Y-2.4425
X3.4961Y-2.5425
X3.4961Y-2.6425
X3.4961Y-2.7425
X3.4961Y-2.8425
X3.4961Y-2.9425
X3.4961Y-3.0425
X3.4961Y-3.1425
X3.4961Y-3.2425
X3.4961Y-3.3425
X4.4646Y-1.9921
X4.5024Y-4.161
X4.5024Y-4.3382
X4.5646Y-1.9921
X4.6646Y-1.9921
X4.7583Y-4.161
X4.7583Y-4.3382
X4.7646Y-1.9921
X4.8646Y-1.9921
X4.9197Y-4.161
X4.9197Y-4.3382
X4.9646Y-1.9921
X5.1756Y-4.161
X5.1756Y-4.3382
X5.4882Y-3.3591
X5.4882Y-3.4591
X5.4882Y-3.5591
X5.4882Y-3.6591
X5.4882Y-3.7591
X5.4882Y-3.8591
X6.3Y-3.05
X6.3Y-3.245
T5
X5.2913Y-2.1535
X5.2913Y-2.2539
X5.2913Y-2.3543
T6
X6.1024Y-1.811
X6.2992Y-1.811
X6.4961Y-1.811
X6.665Y-3.05
X6.665Y-3.2469
X6.665Y-3.4437
T7
X3.2677Y-1.5748
X3.2677Y-4.3307
X6.811Y-1.5748
X6.811Y-4.3307
M30
