M48
; DRILL file {KiCad 9.0.4} date 2025-10-29T13:03:56+0100
; FORMAT={-:-/ absolute / metric / decimal}
; #@! TF.CreationDate,2025-10-29T13:03:56+01:00
; #@! TF.GenerationSoftware,Kicad,Pcbnew,9.0.4
; #@! TF.FileFunction,Plated,1,2,PTH
FMAT,2
METRIC
; #@! TA.AperFunction,Plated,PTH,ViaDrill
T1C0.400
; #@! TA.AperFunction,Plated,PTH,ComponentDrill
T2C0.800
; #@! TA.AperFunction,Plated,PTH,ComponentDrill
T3C0.820
; #@! TA.AperFunction,Plated,PTH,ComponentDrill
T4C1.000
; #@! TA.AperFunction,Plated,PTH,ComponentDrill
T5C1.270
; #@! TA.AperFunction,Plated,PTH,ComponentDrill
T6C1.300
%
G90
G05
T1
X106.474Y-81.776
X107.25Y-87.75
X112.9Y-83.05
X113.25Y-87.75
X119.745Y-83.05
X122.5Y-108.0
X123.75Y-87.75
X127.0Y-113.25
X128.75Y-87.75
X130.25Y-83.0
X140.8Y-95.4
X140.8Y-97.84
X142.0Y-115.75
X142.0Y-118.25
X142.0Y-120.75
X143.0Y-113.0
X144.25Y-103.75
X144.5Y-113.0
X144.5Y-126.75
X146.75Y-113.0
X146.75Y-126.75
X148.25Y-113.0
X148.25Y-126.75
X148.5Y-80.75
X149.0Y-85.5
X154.0Y-72.75
X154.75Y-96.5
X161.25Y-65.5
X166.0Y-62.25
T2
X105.0Y-126.5
X105.0Y-129.04
X111.5Y-71.5
X114.0Y-71.5
X118.45Y-74.632
X118.5Y-104.42
X118.5Y-114.58
X126.07Y-74.632
X126.25Y-79.0
X126.25Y-89.16
X130.75Y-65.5
X130.75Y-70.5
X142.0Y-59.5
X142.0Y-64.5
X145.19Y-88.69
X145.19Y-96.31
X146.0Y-56.92
X146.0Y-67.08
X147.25Y-70.88
X147.25Y-78.5
X147.73Y-88.69
X147.73Y-96.31
X147.75Y-100.25
X149.79Y-70.88
X149.79Y-78.5
X150.05Y-56.92
X150.05Y-67.08
X150.27Y-88.69
X150.27Y-96.31
X152.75Y-100.25
X152.81Y-88.69
X152.81Y-96.31
X157.5Y-64.09
X157.5Y-74.25
T3
X130.5Y-89.02
X130.5Y-91.56
X130.5Y-94.1
X130.5Y-96.64
X130.5Y-99.18
X130.5Y-101.72
X130.5Y-104.26
X130.5Y-106.8
X130.5Y-109.34
X130.5Y-111.88
X130.5Y-114.42
X130.5Y-116.96
X130.5Y-119.5
X130.5Y-122.04
X138.37Y-89.02
X138.37Y-91.56
X138.37Y-94.1
X138.37Y-96.64
X138.37Y-99.18
X138.37Y-101.72
X138.37Y-104.26
X138.37Y-106.8
X138.37Y-109.34
X138.37Y-111.88
X138.37Y-114.42
X138.37Y-116.96
X138.37Y-119.5
X138.37Y-122.04
T4
X102.5Y-76.46
X102.5Y-79.0
X102.5Y-81.54
X102.5Y-84.08
X102.5Y-86.62
X102.5Y-89.16
X112.0Y-102.63
X112.0Y-105.17
X112.0Y-107.71
X112.0Y-110.25
X112.0Y-112.79
X112.0Y-117.38
X112.0Y-119.92
X112.0Y-122.46
X112.0Y-125.0
X112.0Y-127.54
X146.5Y-83.0
X150.5Y-83.0
X160.0Y-90.8
X160.0Y-93.34
X160.0Y-95.88
X160.0Y-98.42
X160.0Y-100.96
X160.0Y-103.5
X160.0Y-106.04
X160.0Y-108.58
X160.0Y-112.22
X160.0Y-114.76
X160.0Y-117.3
X160.0Y-119.84
X160.0Y-122.38
X160.0Y-124.92
X160.0Y-127.46
X160.0Y-130.0
T5
X119.9Y-69.5
X122.45Y-69.5
X125.0Y-69.5
T6
X103.25Y-60.0
X103.25Y-65.0
X103.25Y-70.0
X169.25Y-60.0
X169.25Y-65.0
X169.25Y-70.0
M30
