%TF.GenerationSoftware,KiCad,Pcbnew,9.0.4*%
%TF.CreationDate,2025-10-29T13:01:54+01:00*%
%TF.ProjectId,CAN,43414e2e-6b69-4636-9164-5f7063625858,rev?*%
%TF.SameCoordinates,Original*%
%TF.FileFunction,Legend,Top*%
%TF.FilePolarity,Positive*%
%FSLAX46Y46*%
G04 Gerber Fmt 4.6, Leading zero omitted, Abs format (unit mm)*
G04 Created by KiCad (PCBNEW 9.0.4) date 2025-10-29 13:01:54*
%MOMM*%
%LPD*%
G01*
G04 APERTURE LIST*
%ADD10C,0.200000*%
%ADD11C,0.300000*%
%ADD12C,0.150000*%
%ADD13C,0.120000*%
%ADD14C,0.127000*%
G04 APERTURE END LIST*
D10*
X103200000Y-92200000D02*
X102000000Y-92200000D01*
X102600000Y-91200000D01*
X103200000Y-92200000D01*
G36*
X103200000Y-92200000D02*
G01*
X102000000Y-92200000D01*
X102600000Y-91200000D01*
X103200000Y-92200000D01*
G37*
D11*
X166185912Y-130045489D02*
X164685912Y-130045489D01*
X164685912Y-130045489D02*
X164685912Y-129688346D01*
X164685912Y-129688346D02*
X164757341Y-129474060D01*
X164757341Y-129474060D02*
X164900198Y-129331203D01*
X164900198Y-129331203D02*
X165043055Y-129259774D01*
X165043055Y-129259774D02*
X165328769Y-129188346D01*
X165328769Y-129188346D02*
X165543055Y-129188346D01*
X165543055Y-129188346D02*
X165828769Y-129259774D01*
X165828769Y-129259774D02*
X165971626Y-129331203D01*
X165971626Y-129331203D02*
X166114484Y-129474060D01*
X166114484Y-129474060D02*
X166185912Y-129688346D01*
X166185912Y-129688346D02*
X166185912Y-130045489D01*
X165757341Y-128616917D02*
X165757341Y-127902632D01*
X166185912Y-128759774D02*
X164685912Y-128259774D01*
X164685912Y-128259774D02*
X166185912Y-127759774D01*
X166185912Y-126402632D02*
X165471626Y-126902632D01*
X166185912Y-127259775D02*
X164685912Y-127259775D01*
X164685912Y-127259775D02*
X164685912Y-126688346D01*
X164685912Y-126688346D02*
X164757341Y-126545489D01*
X164757341Y-126545489D02*
X164828769Y-126474060D01*
X164828769Y-126474060D02*
X164971626Y-126402632D01*
X164971626Y-126402632D02*
X165185912Y-126402632D01*
X165185912Y-126402632D02*
X165328769Y-126474060D01*
X165328769Y-126474060D02*
X165400198Y-126545489D01*
X165400198Y-126545489D02*
X165471626Y-126688346D01*
X165471626Y-126688346D02*
X165471626Y-127259775D01*
X164757341Y-124974060D02*
X164685912Y-125116918D01*
X164685912Y-125116918D02*
X164685912Y-125331203D01*
X164685912Y-125331203D02*
X164757341Y-125545489D01*
X164757341Y-125545489D02*
X164900198Y-125688346D01*
X164900198Y-125688346D02*
X165043055Y-125759775D01*
X165043055Y-125759775D02*
X165328769Y-125831203D01*
X165328769Y-125831203D02*
X165543055Y-125831203D01*
X165543055Y-125831203D02*
X165828769Y-125759775D01*
X165828769Y-125759775D02*
X165971626Y-125688346D01*
X165971626Y-125688346D02*
X166114484Y-125545489D01*
X166114484Y-125545489D02*
X166185912Y-125331203D01*
X166185912Y-125331203D02*
X166185912Y-125188346D01*
X166185912Y-125188346D02*
X166114484Y-124974060D01*
X166114484Y-124974060D02*
X166043055Y-124902632D01*
X166043055Y-124902632D02*
X165543055Y-124902632D01*
X165543055Y-124902632D02*
X165543055Y-125188346D01*
X165757341Y-124331203D02*
X165757341Y-123616918D01*
X166185912Y-124474060D02*
X164685912Y-123974060D01*
X164685912Y-123974060D02*
X166185912Y-123474060D01*
X164685912Y-122974061D02*
X165900198Y-122974061D01*
X165900198Y-122974061D02*
X166043055Y-122902632D01*
X166043055Y-122902632D02*
X166114484Y-122831204D01*
X166114484Y-122831204D02*
X166185912Y-122688346D01*
X166185912Y-122688346D02*
X166185912Y-122402632D01*
X166185912Y-122402632D02*
X166114484Y-122259775D01*
X166114484Y-122259775D02*
X166043055Y-122188346D01*
X166043055Y-122188346D02*
X165900198Y-122116918D01*
X165900198Y-122116918D02*
X164685912Y-122116918D01*
X166185912Y-121402632D02*
X164685912Y-121402632D01*
X164685912Y-121402632D02*
X164685912Y-121045489D01*
X164685912Y-121045489D02*
X164757341Y-120831203D01*
X164757341Y-120831203D02*
X164900198Y-120688346D01*
X164900198Y-120688346D02*
X165043055Y-120616917D01*
X165043055Y-120616917D02*
X165328769Y-120545489D01*
X165328769Y-120545489D02*
X165543055Y-120545489D01*
X165543055Y-120545489D02*
X165828769Y-120616917D01*
X165828769Y-120616917D02*
X165971626Y-120688346D01*
X165971626Y-120688346D02*
X166114484Y-120831203D01*
X166114484Y-120831203D02*
X166185912Y-121045489D01*
X166185912Y-121045489D02*
X166185912Y-121402632D01*
X165614484Y-118759775D02*
X165614484Y-117616918D01*
X166185912Y-115759775D02*
X164685912Y-115759775D01*
X164685912Y-115759775D02*
X164685912Y-115188346D01*
X164685912Y-115188346D02*
X164757341Y-115045489D01*
X164757341Y-115045489D02*
X164828769Y-114974060D01*
X164828769Y-114974060D02*
X164971626Y-114902632D01*
X164971626Y-114902632D02*
X165185912Y-114902632D01*
X165185912Y-114902632D02*
X165328769Y-114974060D01*
X165328769Y-114974060D02*
X165400198Y-115045489D01*
X165400198Y-115045489D02*
X165471626Y-115188346D01*
X165471626Y-115188346D02*
X165471626Y-115759775D01*
X166185912Y-113402632D02*
X165471626Y-113902632D01*
X166185912Y-114259775D02*
X164685912Y-114259775D01*
X164685912Y-114259775D02*
X164685912Y-113688346D01*
X164685912Y-113688346D02*
X164757341Y-113545489D01*
X164757341Y-113545489D02*
X164828769Y-113474060D01*
X164828769Y-113474060D02*
X164971626Y-113402632D01*
X164971626Y-113402632D02*
X165185912Y-113402632D01*
X165185912Y-113402632D02*
X165328769Y-113474060D01*
X165328769Y-113474060D02*
X165400198Y-113545489D01*
X165400198Y-113545489D02*
X165471626Y-113688346D01*
X165471626Y-113688346D02*
X165471626Y-114259775D01*
X165400198Y-112759775D02*
X165400198Y-112259775D01*
X166185912Y-112045489D02*
X166185912Y-112759775D01*
X166185912Y-112759775D02*
X164685912Y-112759775D01*
X164685912Y-112759775D02*
X164685912Y-112045489D01*
X164685912Y-111616917D02*
X164685912Y-110759775D01*
X166185912Y-111188346D02*
X164685912Y-111188346D01*
X164685912Y-109974060D02*
X164685912Y-109688346D01*
X164685912Y-109688346D02*
X164757341Y-109545489D01*
X164757341Y-109545489D02*
X164900198Y-109402632D01*
X164900198Y-109402632D02*
X165185912Y-109331203D01*
X165185912Y-109331203D02*
X165685912Y-109331203D01*
X165685912Y-109331203D02*
X165971626Y-109402632D01*
X165971626Y-109402632D02*
X166114484Y-109545489D01*
X166114484Y-109545489D02*
X166185912Y-109688346D01*
X166185912Y-109688346D02*
X166185912Y-109974060D01*
X166185912Y-109974060D02*
X166114484Y-110116918D01*
X166114484Y-110116918D02*
X165971626Y-110259775D01*
X165971626Y-110259775D02*
X165685912Y-110331203D01*
X165685912Y-110331203D02*
X165185912Y-110331203D01*
X165185912Y-110331203D02*
X164900198Y-110259775D01*
X164900198Y-110259775D02*
X164757341Y-110116918D01*
X164757341Y-110116918D02*
X164685912Y-109974060D01*
X164685912Y-108902631D02*
X164685912Y-108045489D01*
X166185912Y-108474060D02*
X164685912Y-108474060D01*
X164685912Y-107759774D02*
X164685912Y-106902632D01*
X166185912Y-107331203D02*
X164685912Y-107331203D01*
X164685912Y-106116917D02*
X164685912Y-105831203D01*
X164685912Y-105831203D02*
X164757341Y-105688346D01*
X164757341Y-105688346D02*
X164900198Y-105545489D01*
X164900198Y-105545489D02*
X165185912Y-105474060D01*
X165185912Y-105474060D02*
X165685912Y-105474060D01*
X165685912Y-105474060D02*
X165971626Y-105545489D01*
X165971626Y-105545489D02*
X166114484Y-105688346D01*
X166114484Y-105688346D02*
X166185912Y-105831203D01*
X166185912Y-105831203D02*
X166185912Y-106116917D01*
X166185912Y-106116917D02*
X166114484Y-106259775D01*
X166114484Y-106259775D02*
X165971626Y-106402632D01*
X165971626Y-106402632D02*
X165685912Y-106474060D01*
X165685912Y-106474060D02*
X165185912Y-106474060D01*
X165185912Y-106474060D02*
X164900198Y-106402632D01*
X164900198Y-106402632D02*
X164757341Y-106259775D01*
X164757341Y-106259775D02*
X164685912Y-106116917D01*
X167100828Y-130259774D02*
X168600828Y-129759774D01*
X168600828Y-129759774D02*
X167100828Y-129259774D01*
X167243685Y-128831203D02*
X167172257Y-128759775D01*
X167172257Y-128759775D02*
X167100828Y-128616918D01*
X167100828Y-128616918D02*
X167100828Y-128259775D01*
X167100828Y-128259775D02*
X167172257Y-128116918D01*
X167172257Y-128116918D02*
X167243685Y-128045489D01*
X167243685Y-128045489D02*
X167386542Y-127974060D01*
X167386542Y-127974060D02*
X167529400Y-127974060D01*
X167529400Y-127974060D02*
X167743685Y-128045489D01*
X167743685Y-128045489D02*
X168600828Y-128902632D01*
X168600828Y-128902632D02*
X168600828Y-127974060D01*
X168029400Y-126188347D02*
X168029400Y-125045490D01*
X167172257Y-122402632D02*
X167100828Y-122545490D01*
X167100828Y-122545490D02*
X167100828Y-122759775D01*
X167100828Y-122759775D02*
X167172257Y-122974061D01*
X167172257Y-122974061D02*
X167315114Y-123116918D01*
X167315114Y-123116918D02*
X167457971Y-123188347D01*
X167457971Y-123188347D02*
X167743685Y-123259775D01*
X167743685Y-123259775D02*
X167957971Y-123259775D01*
X167957971Y-123259775D02*
X168243685Y-123188347D01*
X168243685Y-123188347D02*
X168386542Y-123116918D01*
X168386542Y-123116918D02*
X168529400Y-122974061D01*
X168529400Y-122974061D02*
X168600828Y-122759775D01*
X168600828Y-122759775D02*
X168600828Y-122616918D01*
X168600828Y-122616918D02*
X168529400Y-122402632D01*
X168529400Y-122402632D02*
X168457971Y-122331204D01*
X168457971Y-122331204D02*
X167957971Y-122331204D01*
X167957971Y-122331204D02*
X167957971Y-122616918D01*
X168600828Y-121688347D02*
X167600828Y-121688347D01*
X167886542Y-121688347D02*
X167743685Y-121616918D01*
X167743685Y-121616918D02*
X167672257Y-121545490D01*
X167672257Y-121545490D02*
X167600828Y-121402632D01*
X167600828Y-121402632D02*
X167600828Y-121259775D01*
X168600828Y-120545490D02*
X168529400Y-120688347D01*
X168529400Y-120688347D02*
X168457971Y-120759776D01*
X168457971Y-120759776D02*
X168315114Y-120831204D01*
X168315114Y-120831204D02*
X167886542Y-120831204D01*
X167886542Y-120831204D02*
X167743685Y-120759776D01*
X167743685Y-120759776D02*
X167672257Y-120688347D01*
X167672257Y-120688347D02*
X167600828Y-120545490D01*
X167600828Y-120545490D02*
X167600828Y-120331204D01*
X167600828Y-120331204D02*
X167672257Y-120188347D01*
X167672257Y-120188347D02*
X167743685Y-120116919D01*
X167743685Y-120116919D02*
X167886542Y-120045490D01*
X167886542Y-120045490D02*
X168315114Y-120045490D01*
X168315114Y-120045490D02*
X168457971Y-120116919D01*
X168457971Y-120116919D02*
X168529400Y-120188347D01*
X168529400Y-120188347D02*
X168600828Y-120331204D01*
X168600828Y-120331204D02*
X168600828Y-120545490D01*
X167600828Y-118759776D02*
X168600828Y-118759776D01*
X167600828Y-119402633D02*
X168386542Y-119402633D01*
X168386542Y-119402633D02*
X168529400Y-119331204D01*
X168529400Y-119331204D02*
X168600828Y-119188347D01*
X168600828Y-119188347D02*
X168600828Y-118974061D01*
X168600828Y-118974061D02*
X168529400Y-118831204D01*
X168529400Y-118831204D02*
X168457971Y-118759776D01*
X167600828Y-118045490D02*
X169100828Y-118045490D01*
X167672257Y-118045490D02*
X167600828Y-117902633D01*
X167600828Y-117902633D02*
X167600828Y-117616918D01*
X167600828Y-117616918D02*
X167672257Y-117474061D01*
X167672257Y-117474061D02*
X167743685Y-117402633D01*
X167743685Y-117402633D02*
X167886542Y-117331204D01*
X167886542Y-117331204D02*
X168315114Y-117331204D01*
X168315114Y-117331204D02*
X168457971Y-117402633D01*
X168457971Y-117402633D02*
X168529400Y-117474061D01*
X168529400Y-117474061D02*
X168600828Y-117616918D01*
X168600828Y-117616918D02*
X168600828Y-117902633D01*
X168600828Y-117902633D02*
X168529400Y-118045490D01*
X168529400Y-116116918D02*
X168600828Y-116259775D01*
X168600828Y-116259775D02*
X168600828Y-116545490D01*
X168600828Y-116545490D02*
X168529400Y-116688347D01*
X168529400Y-116688347D02*
X168386542Y-116759775D01*
X168386542Y-116759775D02*
X167815114Y-116759775D01*
X167815114Y-116759775D02*
X167672257Y-116688347D01*
X167672257Y-116688347D02*
X167600828Y-116545490D01*
X167600828Y-116545490D02*
X167600828Y-116259775D01*
X167600828Y-116259775D02*
X167672257Y-116116918D01*
X167672257Y-116116918D02*
X167815114Y-116045490D01*
X167815114Y-116045490D02*
X167957971Y-116045490D01*
X167957971Y-116045490D02*
X168100828Y-116759775D01*
X167815114Y-113759776D02*
X167886542Y-113545490D01*
X167886542Y-113545490D02*
X167957971Y-113474061D01*
X167957971Y-113474061D02*
X168100828Y-113402633D01*
X168100828Y-113402633D02*
X168315114Y-113402633D01*
X168315114Y-113402633D02*
X168457971Y-113474061D01*
X168457971Y-113474061D02*
X168529400Y-113545490D01*
X168529400Y-113545490D02*
X168600828Y-113688347D01*
X168600828Y-113688347D02*
X168600828Y-114259776D01*
X168600828Y-114259776D02*
X167100828Y-114259776D01*
X167100828Y-114259776D02*
X167100828Y-113759776D01*
X167100828Y-113759776D02*
X167172257Y-113616919D01*
X167172257Y-113616919D02*
X167243685Y-113545490D01*
X167243685Y-113545490D02*
X167386542Y-113474061D01*
X167386542Y-113474061D02*
X167529400Y-113474061D01*
X167529400Y-113474061D02*
X167672257Y-113545490D01*
X167672257Y-113545490D02*
X167743685Y-113616919D01*
X167743685Y-113616919D02*
X167815114Y-113759776D01*
X167815114Y-113759776D02*
X167815114Y-114259776D01*
X167243685Y-111688347D02*
X167172257Y-111616919D01*
X167172257Y-111616919D02*
X167100828Y-111474062D01*
X167100828Y-111474062D02*
X167100828Y-111116919D01*
X167100828Y-111116919D02*
X167172257Y-110974062D01*
X167172257Y-110974062D02*
X167243685Y-110902633D01*
X167243685Y-110902633D02*
X167386542Y-110831204D01*
X167386542Y-110831204D02*
X167529400Y-110831204D01*
X167529400Y-110831204D02*
X167743685Y-110902633D01*
X167743685Y-110902633D02*
X168600828Y-111759776D01*
X168600828Y-111759776D02*
X168600828Y-110831204D01*
X167100828Y-109902633D02*
X167100828Y-109759776D01*
X167100828Y-109759776D02*
X167172257Y-109616919D01*
X167172257Y-109616919D02*
X167243685Y-109545491D01*
X167243685Y-109545491D02*
X167386542Y-109474062D01*
X167386542Y-109474062D02*
X167672257Y-109402633D01*
X167672257Y-109402633D02*
X168029400Y-109402633D01*
X168029400Y-109402633D02*
X168315114Y-109474062D01*
X168315114Y-109474062D02*
X168457971Y-109545491D01*
X168457971Y-109545491D02*
X168529400Y-109616919D01*
X168529400Y-109616919D02*
X168600828Y-109759776D01*
X168600828Y-109759776D02*
X168600828Y-109902633D01*
X168600828Y-109902633D02*
X168529400Y-110045491D01*
X168529400Y-110045491D02*
X168457971Y-110116919D01*
X168457971Y-110116919D02*
X168315114Y-110188348D01*
X168315114Y-110188348D02*
X168029400Y-110259776D01*
X168029400Y-110259776D02*
X167672257Y-110259776D01*
X167672257Y-110259776D02*
X167386542Y-110188348D01*
X167386542Y-110188348D02*
X167243685Y-110116919D01*
X167243685Y-110116919D02*
X167172257Y-110045491D01*
X167172257Y-110045491D02*
X167100828Y-109902633D01*
X167243685Y-108831205D02*
X167172257Y-108759777D01*
X167172257Y-108759777D02*
X167100828Y-108616920D01*
X167100828Y-108616920D02*
X167100828Y-108259777D01*
X167100828Y-108259777D02*
X167172257Y-108116920D01*
X167172257Y-108116920D02*
X167243685Y-108045491D01*
X167243685Y-108045491D02*
X167386542Y-107974062D01*
X167386542Y-107974062D02*
X167529400Y-107974062D01*
X167529400Y-107974062D02*
X167743685Y-108045491D01*
X167743685Y-108045491D02*
X168600828Y-108902634D01*
X168600828Y-108902634D02*
X168600828Y-107974062D01*
X167100828Y-106616920D02*
X167100828Y-107331206D01*
X167100828Y-107331206D02*
X167815114Y-107402634D01*
X167815114Y-107402634D02*
X167743685Y-107331206D01*
X167743685Y-107331206D02*
X167672257Y-107188349D01*
X167672257Y-107188349D02*
X167672257Y-106831206D01*
X167672257Y-106831206D02*
X167743685Y-106688349D01*
X167743685Y-106688349D02*
X167815114Y-106616920D01*
X167815114Y-106616920D02*
X167957971Y-106545491D01*
X167957971Y-106545491D02*
X168315114Y-106545491D01*
X168315114Y-106545491D02*
X168457971Y-106616920D01*
X168457971Y-106616920D02*
X168529400Y-106688349D01*
X168529400Y-106688349D02*
X168600828Y-106831206D01*
X168600828Y-106831206D02*
X168600828Y-107188349D01*
X168600828Y-107188349D02*
X168529400Y-107331206D01*
X168529400Y-107331206D02*
X168457971Y-107402634D01*
D12*
X144547200Y-76023332D02*
X144594819Y-75880475D01*
X144594819Y-75880475D02*
X144594819Y-75642380D01*
X144594819Y-75642380D02*
X144547200Y-75547142D01*
X144547200Y-75547142D02*
X144499580Y-75499523D01*
X144499580Y-75499523D02*
X144404342Y-75451904D01*
X144404342Y-75451904D02*
X144309104Y-75451904D01*
X144309104Y-75451904D02*
X144213866Y-75499523D01*
X144213866Y-75499523D02*
X144166247Y-75547142D01*
X144166247Y-75547142D02*
X144118628Y-75642380D01*
X144118628Y-75642380D02*
X144071009Y-75832856D01*
X144071009Y-75832856D02*
X144023390Y-75928094D01*
X144023390Y-75928094D02*
X143975771Y-75975713D01*
X143975771Y-75975713D02*
X143880533Y-76023332D01*
X143880533Y-76023332D02*
X143785295Y-76023332D01*
X143785295Y-76023332D02*
X143690057Y-75975713D01*
X143690057Y-75975713D02*
X143642438Y-75928094D01*
X143642438Y-75928094D02*
X143594819Y-75832856D01*
X143594819Y-75832856D02*
X143594819Y-75594761D01*
X143594819Y-75594761D02*
X143642438Y-75451904D01*
X143594819Y-75118570D02*
X144594819Y-74880475D01*
X144594819Y-74880475D02*
X143880533Y-74689999D01*
X143880533Y-74689999D02*
X144594819Y-74499523D01*
X144594819Y-74499523D02*
X143594819Y-74261428D01*
X143690057Y-73928094D02*
X143642438Y-73880475D01*
X143642438Y-73880475D02*
X143594819Y-73785237D01*
X143594819Y-73785237D02*
X143594819Y-73547142D01*
X143594819Y-73547142D02*
X143642438Y-73451904D01*
X143642438Y-73451904D02*
X143690057Y-73404285D01*
X143690057Y-73404285D02*
X143785295Y-73356666D01*
X143785295Y-73356666D02*
X143880533Y-73356666D01*
X143880533Y-73356666D02*
X144023390Y-73404285D01*
X144023390Y-73404285D02*
X144594819Y-73975713D01*
X144594819Y-73975713D02*
X144594819Y-73356666D01*
X145476190Y-72858819D02*
X145380952Y-72811200D01*
X145380952Y-72811200D02*
X145333333Y-72763580D01*
X145333333Y-72763580D02*
X145285714Y-72668342D01*
X145285714Y-72668342D02*
X145285714Y-72382628D01*
X145285714Y-72382628D02*
X145333333Y-72287390D01*
X145333333Y-72287390D02*
X145380952Y-72239771D01*
X145380952Y-72239771D02*
X145476190Y-72192152D01*
X145476190Y-72192152D02*
X145619047Y-72192152D01*
X145619047Y-72192152D02*
X145714285Y-72239771D01*
X145714285Y-72239771D02*
X145761904Y-72287390D01*
X145761904Y-72287390D02*
X145809523Y-72382628D01*
X145809523Y-72382628D02*
X145809523Y-72668342D01*
X145809523Y-72668342D02*
X145761904Y-72763580D01*
X145761904Y-72763580D02*
X145714285Y-72811200D01*
X145714285Y-72811200D02*
X145619047Y-72858819D01*
X145619047Y-72858819D02*
X145476190Y-72858819D01*
X146238095Y-72192152D02*
X146238095Y-72858819D01*
X146238095Y-72287390D02*
X146285714Y-72239771D01*
X146285714Y-72239771D02*
X146380952Y-72192152D01*
X146380952Y-72192152D02*
X146523809Y-72192152D01*
X146523809Y-72192152D02*
X146619047Y-72239771D01*
X146619047Y-72239771D02*
X146666666Y-72335009D01*
X146666666Y-72335009D02*
X146666666Y-72858819D01*
X104916666Y-89664819D02*
X104916666Y-90379104D01*
X104916666Y-90379104D02*
X104869047Y-90521961D01*
X104869047Y-90521961D02*
X104773809Y-90617200D01*
X104773809Y-90617200D02*
X104630952Y-90664819D01*
X104630952Y-90664819D02*
X104535714Y-90664819D01*
X105297619Y-89664819D02*
X105964285Y-89664819D01*
X105964285Y-89664819D02*
X105535714Y-90664819D01*
X133050439Y-85439460D02*
X133050439Y-86574732D01*
X133050439Y-86574732D02*
X133117220Y-86708293D01*
X133117220Y-86708293D02*
X133184000Y-86775074D01*
X133184000Y-86775074D02*
X133317562Y-86841854D01*
X133317562Y-86841854D02*
X133584684Y-86841854D01*
X133584684Y-86841854D02*
X133718246Y-86775074D01*
X133718246Y-86775074D02*
X133785026Y-86708293D01*
X133785026Y-86708293D02*
X133851807Y-86574732D01*
X133851807Y-86574732D02*
X133851807Y-85439460D01*
X135254201Y-86841854D02*
X134452833Y-86841854D01*
X134853517Y-86841854D02*
X134853517Y-85439460D01*
X134853517Y-85439460D02*
X134719956Y-85639802D01*
X134719956Y-85639802D02*
X134586395Y-85773364D01*
X134586395Y-85773364D02*
X134452833Y-85840144D01*
X127961905Y-75086819D02*
X127961905Y-74086819D01*
X127961905Y-74086819D02*
X128200000Y-74086819D01*
X128200000Y-74086819D02*
X128342857Y-74134438D01*
X128342857Y-74134438D02*
X128438095Y-74229676D01*
X128438095Y-74229676D02*
X128485714Y-74324914D01*
X128485714Y-74324914D02*
X128533333Y-74515390D01*
X128533333Y-74515390D02*
X128533333Y-74658247D01*
X128533333Y-74658247D02*
X128485714Y-74848723D01*
X128485714Y-74848723D02*
X128438095Y-74943961D01*
X128438095Y-74943961D02*
X128342857Y-75039200D01*
X128342857Y-75039200D02*
X128200000Y-75086819D01*
X128200000Y-75086819D02*
X127961905Y-75086819D01*
X129485714Y-75086819D02*
X128914286Y-75086819D01*
X129200000Y-75086819D02*
X129200000Y-74086819D01*
X129200000Y-74086819D02*
X129104762Y-74229676D01*
X129104762Y-74229676D02*
X129009524Y-74324914D01*
X129009524Y-74324914D02*
X128914286Y-74372533D01*
X116438095Y-75336819D02*
X116438095Y-74336819D01*
X117009523Y-75336819D02*
X116580952Y-74765390D01*
X117009523Y-74336819D02*
X116438095Y-74908247D01*
X152454819Y-83261904D02*
X152454819Y-82690476D01*
X153454819Y-82976190D02*
X152454819Y-82976190D01*
X153454819Y-82357142D02*
X152454819Y-82357142D01*
X152454819Y-82357142D02*
X152454819Y-81976190D01*
X152454819Y-81976190D02*
X152502438Y-81880952D01*
X152502438Y-81880952D02*
X152550057Y-81833333D01*
X152550057Y-81833333D02*
X152645295Y-81785714D01*
X152645295Y-81785714D02*
X152788152Y-81785714D01*
X152788152Y-81785714D02*
X152883390Y-81833333D01*
X152883390Y-81833333D02*
X152931009Y-81880952D01*
X152931009Y-81880952D02*
X152978628Y-81976190D01*
X152978628Y-81976190D02*
X152978628Y-82357142D01*
X152550057Y-81404761D02*
X152502438Y-81357142D01*
X152502438Y-81357142D02*
X152454819Y-81261904D01*
X152454819Y-81261904D02*
X152454819Y-81023809D01*
X152454819Y-81023809D02*
X152502438Y-80928571D01*
X152502438Y-80928571D02*
X152550057Y-80880952D01*
X152550057Y-80880952D02*
X152645295Y-80833333D01*
X152645295Y-80833333D02*
X152740533Y-80833333D01*
X152740533Y-80833333D02*
X152883390Y-80880952D01*
X152883390Y-80880952D02*
X153454819Y-81452380D01*
X153454819Y-81452380D02*
X153454819Y-80833333D01*
X146454819Y-62642857D02*
X145978628Y-62976190D01*
X146454819Y-63214285D02*
X145454819Y-63214285D01*
X145454819Y-63214285D02*
X145454819Y-62833333D01*
X145454819Y-62833333D02*
X145502438Y-62738095D01*
X145502438Y-62738095D02*
X145550057Y-62690476D01*
X145550057Y-62690476D02*
X145645295Y-62642857D01*
X145645295Y-62642857D02*
X145788152Y-62642857D01*
X145788152Y-62642857D02*
X145883390Y-62690476D01*
X145883390Y-62690476D02*
X145931009Y-62738095D01*
X145931009Y-62738095D02*
X145978628Y-62833333D01*
X145978628Y-62833333D02*
X145978628Y-63214285D01*
X146454819Y-61690476D02*
X146454819Y-62261904D01*
X146454819Y-61976190D02*
X145454819Y-61976190D01*
X145454819Y-61976190D02*
X145597676Y-62071428D01*
X145597676Y-62071428D02*
X145692914Y-62166666D01*
X145692914Y-62166666D02*
X145740533Y-62261904D01*
X145883390Y-61119047D02*
X145835771Y-61214285D01*
X145835771Y-61214285D02*
X145788152Y-61261904D01*
X145788152Y-61261904D02*
X145692914Y-61309523D01*
X145692914Y-61309523D02*
X145645295Y-61309523D01*
X145645295Y-61309523D02*
X145550057Y-61261904D01*
X145550057Y-61261904D02*
X145502438Y-61214285D01*
X145502438Y-61214285D02*
X145454819Y-61119047D01*
X145454819Y-61119047D02*
X145454819Y-60928571D01*
X145454819Y-60928571D02*
X145502438Y-60833333D01*
X145502438Y-60833333D02*
X145550057Y-60785714D01*
X145550057Y-60785714D02*
X145645295Y-60738095D01*
X145645295Y-60738095D02*
X145692914Y-60738095D01*
X145692914Y-60738095D02*
X145788152Y-60785714D01*
X145788152Y-60785714D02*
X145835771Y-60833333D01*
X145835771Y-60833333D02*
X145883390Y-60928571D01*
X145883390Y-60928571D02*
X145883390Y-61119047D01*
X145883390Y-61119047D02*
X145931009Y-61214285D01*
X145931009Y-61214285D02*
X145978628Y-61261904D01*
X145978628Y-61261904D02*
X146073866Y-61309523D01*
X146073866Y-61309523D02*
X146264342Y-61309523D01*
X146264342Y-61309523D02*
X146359580Y-61261904D01*
X146359580Y-61261904D02*
X146407200Y-61214285D01*
X146407200Y-61214285D02*
X146454819Y-61119047D01*
X146454819Y-61119047D02*
X146454819Y-60928571D01*
X146454819Y-60928571D02*
X146407200Y-60833333D01*
X146407200Y-60833333D02*
X146359580Y-60785714D01*
X146359580Y-60785714D02*
X146264342Y-60738095D01*
X146264342Y-60738095D02*
X146073866Y-60738095D01*
X146073866Y-60738095D02*
X145978628Y-60785714D01*
X145978628Y-60785714D02*
X145931009Y-60833333D01*
X145931009Y-60833333D02*
X145883390Y-60928571D01*
X111666666Y-114624819D02*
X111666666Y-115339104D01*
X111666666Y-115339104D02*
X111619047Y-115481961D01*
X111619047Y-115481961D02*
X111523809Y-115577200D01*
X111523809Y-115577200D02*
X111380952Y-115624819D01*
X111380952Y-115624819D02*
X111285714Y-115624819D01*
X112571428Y-114958152D02*
X112571428Y-115624819D01*
X112333333Y-114577200D02*
X112095238Y-115291485D01*
X112095238Y-115291485D02*
X112714285Y-115291485D01*
X142359580Y-62166666D02*
X142407200Y-62214285D01*
X142407200Y-62214285D02*
X142454819Y-62357142D01*
X142454819Y-62357142D02*
X142454819Y-62452380D01*
X142454819Y-62452380D02*
X142407200Y-62595237D01*
X142407200Y-62595237D02*
X142311961Y-62690475D01*
X142311961Y-62690475D02*
X142216723Y-62738094D01*
X142216723Y-62738094D02*
X142026247Y-62785713D01*
X142026247Y-62785713D02*
X141883390Y-62785713D01*
X141883390Y-62785713D02*
X141692914Y-62738094D01*
X141692914Y-62738094D02*
X141597676Y-62690475D01*
X141597676Y-62690475D02*
X141502438Y-62595237D01*
X141502438Y-62595237D02*
X141454819Y-62452380D01*
X141454819Y-62452380D02*
X141454819Y-62357142D01*
X141454819Y-62357142D02*
X141502438Y-62214285D01*
X141502438Y-62214285D02*
X141550057Y-62166666D01*
X141454819Y-61833332D02*
X141454819Y-61214285D01*
X141454819Y-61214285D02*
X141835771Y-61547618D01*
X141835771Y-61547618D02*
X141835771Y-61404761D01*
X141835771Y-61404761D02*
X141883390Y-61309523D01*
X141883390Y-61309523D02*
X141931009Y-61261904D01*
X141931009Y-61261904D02*
X142026247Y-61214285D01*
X142026247Y-61214285D02*
X142264342Y-61214285D01*
X142264342Y-61214285D02*
X142359580Y-61261904D01*
X142359580Y-61261904D02*
X142407200Y-61309523D01*
X142407200Y-61309523D02*
X142454819Y-61404761D01*
X142454819Y-61404761D02*
X142454819Y-61690475D01*
X142454819Y-61690475D02*
X142407200Y-61785713D01*
X142407200Y-61785713D02*
X142359580Y-61833332D01*
X143756019Y-83761904D02*
X143756019Y-83190476D01*
X144756019Y-83476190D02*
X143756019Y-83476190D01*
X144756019Y-82857142D02*
X143756019Y-82857142D01*
X143756019Y-82857142D02*
X143756019Y-82476190D01*
X143756019Y-82476190D02*
X143803638Y-82380952D01*
X143803638Y-82380952D02*
X143851257Y-82333333D01*
X143851257Y-82333333D02*
X143946495Y-82285714D01*
X143946495Y-82285714D02*
X144089352Y-82285714D01*
X144089352Y-82285714D02*
X144184590Y-82333333D01*
X144184590Y-82333333D02*
X144232209Y-82380952D01*
X144232209Y-82380952D02*
X144279828Y-82476190D01*
X144279828Y-82476190D02*
X144279828Y-82857142D01*
X144756019Y-81333333D02*
X144756019Y-81904761D01*
X144756019Y-81619047D02*
X143756019Y-81619047D01*
X143756019Y-81619047D02*
X143898876Y-81714285D01*
X143898876Y-81714285D02*
X143994114Y-81809523D01*
X143994114Y-81809523D02*
X144041733Y-81904761D01*
X104045180Y-56166666D02*
X103330895Y-56166666D01*
X103330895Y-56166666D02*
X103188038Y-56119047D01*
X103188038Y-56119047D02*
X103092800Y-56023809D01*
X103092800Y-56023809D02*
X103045180Y-55880952D01*
X103045180Y-55880952D02*
X103045180Y-55785714D01*
X103045180Y-57166666D02*
X103045180Y-56595238D01*
X103045180Y-56880952D02*
X104045180Y-56880952D01*
X104045180Y-56880952D02*
X103902323Y-56785714D01*
X103902323Y-56785714D02*
X103807085Y-56690476D01*
X103807085Y-56690476D02*
X103759466Y-56595238D01*
X142314819Y-93261904D02*
X143124342Y-93261904D01*
X143124342Y-93261904D02*
X143219580Y-93214285D01*
X143219580Y-93214285D02*
X143267200Y-93166666D01*
X143267200Y-93166666D02*
X143314819Y-93071428D01*
X143314819Y-93071428D02*
X143314819Y-92880952D01*
X143314819Y-92880952D02*
X143267200Y-92785714D01*
X143267200Y-92785714D02*
X143219580Y-92738095D01*
X143219580Y-92738095D02*
X143124342Y-92690476D01*
X143124342Y-92690476D02*
X142314819Y-92690476D01*
X142648152Y-91785714D02*
X143314819Y-91785714D01*
X142267200Y-92023809D02*
X142981485Y-92261904D01*
X142981485Y-92261904D02*
X142981485Y-91642857D01*
X159666666Y-110414819D02*
X159666666Y-111129104D01*
X159666666Y-111129104D02*
X159619047Y-111271961D01*
X159619047Y-111271961D02*
X159523809Y-111367200D01*
X159523809Y-111367200D02*
X159380952Y-111414819D01*
X159380952Y-111414819D02*
X159285714Y-111414819D01*
X160047619Y-110414819D02*
X160666666Y-110414819D01*
X160666666Y-110414819D02*
X160333333Y-110795771D01*
X160333333Y-110795771D02*
X160476190Y-110795771D01*
X160476190Y-110795771D02*
X160571428Y-110843390D01*
X160571428Y-110843390D02*
X160619047Y-110891009D01*
X160619047Y-110891009D02*
X160666666Y-110986247D01*
X160666666Y-110986247D02*
X160666666Y-111224342D01*
X160666666Y-111224342D02*
X160619047Y-111319580D01*
X160619047Y-111319580D02*
X160571428Y-111367200D01*
X160571428Y-111367200D02*
X160476190Y-111414819D01*
X160476190Y-111414819D02*
X160190476Y-111414819D01*
X160190476Y-111414819D02*
X160095238Y-111367200D01*
X160095238Y-111367200D02*
X160047619Y-111319580D01*
X127728628Y-110476190D02*
X128204819Y-110476190D01*
X127204819Y-110809523D02*
X127728628Y-110476190D01*
X127728628Y-110476190D02*
X127204819Y-110142857D01*
X128204819Y-109285714D02*
X128204819Y-109857142D01*
X128204819Y-109571428D02*
X127204819Y-109571428D01*
X127204819Y-109571428D02*
X127347676Y-109666666D01*
X127347676Y-109666666D02*
X127442914Y-109761904D01*
X127442914Y-109761904D02*
X127490533Y-109857142D01*
X116584819Y-110142857D02*
X116108628Y-110476190D01*
X116584819Y-110714285D02*
X115584819Y-110714285D01*
X115584819Y-110714285D02*
X115584819Y-110333333D01*
X115584819Y-110333333D02*
X115632438Y-110238095D01*
X115632438Y-110238095D02*
X115680057Y-110190476D01*
X115680057Y-110190476D02*
X115775295Y-110142857D01*
X115775295Y-110142857D02*
X115918152Y-110142857D01*
X115918152Y-110142857D02*
X116013390Y-110190476D01*
X116013390Y-110190476D02*
X116061009Y-110238095D01*
X116061009Y-110238095D02*
X116108628Y-110333333D01*
X116108628Y-110333333D02*
X116108628Y-110714285D01*
X116584819Y-109190476D02*
X116584819Y-109761904D01*
X116584819Y-109476190D02*
X115584819Y-109476190D01*
X115584819Y-109476190D02*
X115727676Y-109571428D01*
X115727676Y-109571428D02*
X115822914Y-109666666D01*
X115822914Y-109666666D02*
X115870533Y-109761904D01*
X115584819Y-108857142D02*
X115584819Y-108190476D01*
X115584819Y-108190476D02*
X116584819Y-108619047D01*
X112424763Y-67609580D02*
X112377144Y-67657200D01*
X112377144Y-67657200D02*
X112234287Y-67704819D01*
X112234287Y-67704819D02*
X112139049Y-67704819D01*
X112139049Y-67704819D02*
X111996192Y-67657200D01*
X111996192Y-67657200D02*
X111900954Y-67561961D01*
X111900954Y-67561961D02*
X111853335Y-67466723D01*
X111853335Y-67466723D02*
X111805716Y-67276247D01*
X111805716Y-67276247D02*
X111805716Y-67133390D01*
X111805716Y-67133390D02*
X111853335Y-66942914D01*
X111853335Y-66942914D02*
X111900954Y-66847676D01*
X111900954Y-66847676D02*
X111996192Y-66752438D01*
X111996192Y-66752438D02*
X112139049Y-66704819D01*
X112139049Y-66704819D02*
X112234287Y-66704819D01*
X112234287Y-66704819D02*
X112377144Y-66752438D01*
X112377144Y-66752438D02*
X112424763Y-66800057D01*
X112805716Y-66800057D02*
X112853335Y-66752438D01*
X112853335Y-66752438D02*
X112948573Y-66704819D01*
X112948573Y-66704819D02*
X113186668Y-66704819D01*
X113186668Y-66704819D02*
X113281906Y-66752438D01*
X113281906Y-66752438D02*
X113329525Y-66800057D01*
X113329525Y-66800057D02*
X113377144Y-66895295D01*
X113377144Y-66895295D02*
X113377144Y-66990533D01*
X113377144Y-66990533D02*
X113329525Y-67133390D01*
X113329525Y-67133390D02*
X112758097Y-67704819D01*
X112758097Y-67704819D02*
X113377144Y-67704819D01*
X114329525Y-67704819D02*
X113758097Y-67704819D01*
X114043811Y-67704819D02*
X114043811Y-66704819D01*
X114043811Y-66704819D02*
X113948573Y-66847676D01*
X113948573Y-66847676D02*
X113853335Y-66942914D01*
X113853335Y-66942914D02*
X113758097Y-66990533D01*
X150083333Y-100609580D02*
X150035714Y-100657200D01*
X150035714Y-100657200D02*
X149892857Y-100704819D01*
X149892857Y-100704819D02*
X149797619Y-100704819D01*
X149797619Y-100704819D02*
X149654762Y-100657200D01*
X149654762Y-100657200D02*
X149559524Y-100561961D01*
X149559524Y-100561961D02*
X149511905Y-100466723D01*
X149511905Y-100466723D02*
X149464286Y-100276247D01*
X149464286Y-100276247D02*
X149464286Y-100133390D01*
X149464286Y-100133390D02*
X149511905Y-99942914D01*
X149511905Y-99942914D02*
X149559524Y-99847676D01*
X149559524Y-99847676D02*
X149654762Y-99752438D01*
X149654762Y-99752438D02*
X149797619Y-99704819D01*
X149797619Y-99704819D02*
X149892857Y-99704819D01*
X149892857Y-99704819D02*
X150035714Y-99752438D01*
X150035714Y-99752438D02*
X150083333Y-99800057D01*
X150464286Y-99800057D02*
X150511905Y-99752438D01*
X150511905Y-99752438D02*
X150607143Y-99704819D01*
X150607143Y-99704819D02*
X150845238Y-99704819D01*
X150845238Y-99704819D02*
X150940476Y-99752438D01*
X150940476Y-99752438D02*
X150988095Y-99800057D01*
X150988095Y-99800057D02*
X151035714Y-99895295D01*
X151035714Y-99895295D02*
X151035714Y-99990533D01*
X151035714Y-99990533D02*
X150988095Y-100133390D01*
X150988095Y-100133390D02*
X150416667Y-100704819D01*
X150416667Y-100704819D02*
X151035714Y-100704819D01*
X126704819Y-84722857D02*
X126228628Y-85056190D01*
X126704819Y-85294285D02*
X125704819Y-85294285D01*
X125704819Y-85294285D02*
X125704819Y-84913333D01*
X125704819Y-84913333D02*
X125752438Y-84818095D01*
X125752438Y-84818095D02*
X125800057Y-84770476D01*
X125800057Y-84770476D02*
X125895295Y-84722857D01*
X125895295Y-84722857D02*
X126038152Y-84722857D01*
X126038152Y-84722857D02*
X126133390Y-84770476D01*
X126133390Y-84770476D02*
X126181009Y-84818095D01*
X126181009Y-84818095D02*
X126228628Y-84913333D01*
X126228628Y-84913333D02*
X126228628Y-85294285D01*
X126704819Y-83770476D02*
X126704819Y-84341904D01*
X126704819Y-84056190D02*
X125704819Y-84056190D01*
X125704819Y-84056190D02*
X125847676Y-84151428D01*
X125847676Y-84151428D02*
X125942914Y-84246666D01*
X125942914Y-84246666D02*
X125990533Y-84341904D01*
X126038152Y-82913333D02*
X126704819Y-82913333D01*
X125657200Y-83151428D02*
X126371485Y-83389523D01*
X126371485Y-83389523D02*
X126371485Y-82770476D01*
X157854819Y-69812857D02*
X157378628Y-70146190D01*
X157854819Y-70384285D02*
X156854819Y-70384285D01*
X156854819Y-70384285D02*
X156854819Y-70003333D01*
X156854819Y-70003333D02*
X156902438Y-69908095D01*
X156902438Y-69908095D02*
X156950057Y-69860476D01*
X156950057Y-69860476D02*
X157045295Y-69812857D01*
X157045295Y-69812857D02*
X157188152Y-69812857D01*
X157188152Y-69812857D02*
X157283390Y-69860476D01*
X157283390Y-69860476D02*
X157331009Y-69908095D01*
X157331009Y-69908095D02*
X157378628Y-70003333D01*
X157378628Y-70003333D02*
X157378628Y-70384285D01*
X156950057Y-69431904D02*
X156902438Y-69384285D01*
X156902438Y-69384285D02*
X156854819Y-69289047D01*
X156854819Y-69289047D02*
X156854819Y-69050952D01*
X156854819Y-69050952D02*
X156902438Y-68955714D01*
X156902438Y-68955714D02*
X156950057Y-68908095D01*
X156950057Y-68908095D02*
X157045295Y-68860476D01*
X157045295Y-68860476D02*
X157140533Y-68860476D01*
X157140533Y-68860476D02*
X157283390Y-68908095D01*
X157283390Y-68908095D02*
X157854819Y-69479523D01*
X157854819Y-69479523D02*
X157854819Y-68860476D01*
X156854819Y-68241428D02*
X156854819Y-68146190D01*
X156854819Y-68146190D02*
X156902438Y-68050952D01*
X156902438Y-68050952D02*
X156950057Y-68003333D01*
X156950057Y-68003333D02*
X157045295Y-67955714D01*
X157045295Y-67955714D02*
X157235771Y-67908095D01*
X157235771Y-67908095D02*
X157473866Y-67908095D01*
X157473866Y-67908095D02*
X157664342Y-67955714D01*
X157664342Y-67955714D02*
X157759580Y-68003333D01*
X157759580Y-68003333D02*
X157807200Y-68050952D01*
X157807200Y-68050952D02*
X157854819Y-68146190D01*
X157854819Y-68146190D02*
X157854819Y-68241428D01*
X157854819Y-68241428D02*
X157807200Y-68336666D01*
X157807200Y-68336666D02*
X157759580Y-68384285D01*
X157759580Y-68384285D02*
X157664342Y-68431904D01*
X157664342Y-68431904D02*
X157473866Y-68479523D01*
X157473866Y-68479523D02*
X157235771Y-68479523D01*
X157235771Y-68479523D02*
X157045295Y-68431904D01*
X157045295Y-68431904D02*
X156950057Y-68384285D01*
X156950057Y-68384285D02*
X156902438Y-68336666D01*
X156902438Y-68336666D02*
X156854819Y-68241428D01*
X121808333Y-114959580D02*
X121760714Y-115007200D01*
X121760714Y-115007200D02*
X121617857Y-115054819D01*
X121617857Y-115054819D02*
X121522619Y-115054819D01*
X121522619Y-115054819D02*
X121379762Y-115007200D01*
X121379762Y-115007200D02*
X121284524Y-114911961D01*
X121284524Y-114911961D02*
X121236905Y-114816723D01*
X121236905Y-114816723D02*
X121189286Y-114626247D01*
X121189286Y-114626247D02*
X121189286Y-114483390D01*
X121189286Y-114483390D02*
X121236905Y-114292914D01*
X121236905Y-114292914D02*
X121284524Y-114197676D01*
X121284524Y-114197676D02*
X121379762Y-114102438D01*
X121379762Y-114102438D02*
X121522619Y-114054819D01*
X121522619Y-114054819D02*
X121617857Y-114054819D01*
X121617857Y-114054819D02*
X121760714Y-114102438D01*
X121760714Y-114102438D02*
X121808333Y-114150057D01*
X122713095Y-114054819D02*
X122236905Y-114054819D01*
X122236905Y-114054819D02*
X122189286Y-114531009D01*
X122189286Y-114531009D02*
X122236905Y-114483390D01*
X122236905Y-114483390D02*
X122332143Y-114435771D01*
X122332143Y-114435771D02*
X122570238Y-114435771D01*
X122570238Y-114435771D02*
X122665476Y-114483390D01*
X122665476Y-114483390D02*
X122713095Y-114531009D01*
X122713095Y-114531009D02*
X122760714Y-114626247D01*
X122760714Y-114626247D02*
X122760714Y-114864342D01*
X122760714Y-114864342D02*
X122713095Y-114959580D01*
X122713095Y-114959580D02*
X122665476Y-115007200D01*
X122665476Y-115007200D02*
X122570238Y-115054819D01*
X122570238Y-115054819D02*
X122332143Y-115054819D01*
X122332143Y-115054819D02*
X122236905Y-115007200D01*
X122236905Y-115007200D02*
X122189286Y-114959580D01*
X111666666Y-129374819D02*
X111666666Y-130089104D01*
X111666666Y-130089104D02*
X111619047Y-130231961D01*
X111619047Y-130231961D02*
X111523809Y-130327200D01*
X111523809Y-130327200D02*
X111380952Y-130374819D01*
X111380952Y-130374819D02*
X111285714Y-130374819D01*
X112285714Y-129803390D02*
X112190476Y-129755771D01*
X112190476Y-129755771D02*
X112142857Y-129708152D01*
X112142857Y-129708152D02*
X112095238Y-129612914D01*
X112095238Y-129612914D02*
X112095238Y-129565295D01*
X112095238Y-129565295D02*
X112142857Y-129470057D01*
X112142857Y-129470057D02*
X112190476Y-129422438D01*
X112190476Y-129422438D02*
X112285714Y-129374819D01*
X112285714Y-129374819D02*
X112476190Y-129374819D01*
X112476190Y-129374819D02*
X112571428Y-129422438D01*
X112571428Y-129422438D02*
X112619047Y-129470057D01*
X112619047Y-129470057D02*
X112666666Y-129565295D01*
X112666666Y-129565295D02*
X112666666Y-129612914D01*
X112666666Y-129612914D02*
X112619047Y-129708152D01*
X112619047Y-129708152D02*
X112571428Y-129755771D01*
X112571428Y-129755771D02*
X112476190Y-129803390D01*
X112476190Y-129803390D02*
X112285714Y-129803390D01*
X112285714Y-129803390D02*
X112190476Y-129851009D01*
X112190476Y-129851009D02*
X112142857Y-129898628D01*
X112142857Y-129898628D02*
X112095238Y-129993866D01*
X112095238Y-129993866D02*
X112095238Y-130184342D01*
X112095238Y-130184342D02*
X112142857Y-130279580D01*
X112142857Y-130279580D02*
X112190476Y-130327200D01*
X112190476Y-130327200D02*
X112285714Y-130374819D01*
X112285714Y-130374819D02*
X112476190Y-130374819D01*
X112476190Y-130374819D02*
X112571428Y-130327200D01*
X112571428Y-130327200D02*
X112619047Y-130279580D01*
X112619047Y-130279580D02*
X112666666Y-130184342D01*
X112666666Y-130184342D02*
X112666666Y-129993866D01*
X112666666Y-129993866D02*
X112619047Y-129898628D01*
X112619047Y-129898628D02*
X112571428Y-129851009D01*
X112571428Y-129851009D02*
X112476190Y-129803390D01*
X119828333Y-64295866D02*
X119828333Y-65429200D01*
X119828333Y-65429200D02*
X119895000Y-65562533D01*
X119895000Y-65562533D02*
X119961666Y-65629200D01*
X119961666Y-65629200D02*
X120095000Y-65695866D01*
X120095000Y-65695866D02*
X120361666Y-65695866D01*
X120361666Y-65695866D02*
X120495000Y-65629200D01*
X120495000Y-65629200D02*
X120561666Y-65562533D01*
X120561666Y-65562533D02*
X120628333Y-65429200D01*
X120628333Y-65429200D02*
X120628333Y-64295866D01*
X121495000Y-64895866D02*
X121361667Y-64829200D01*
X121361667Y-64829200D02*
X121295000Y-64762533D01*
X121295000Y-64762533D02*
X121228333Y-64629200D01*
X121228333Y-64629200D02*
X121228333Y-64562533D01*
X121228333Y-64562533D02*
X121295000Y-64429200D01*
X121295000Y-64429200D02*
X121361667Y-64362533D01*
X121361667Y-64362533D02*
X121495000Y-64295866D01*
X121495000Y-64295866D02*
X121761667Y-64295866D01*
X121761667Y-64295866D02*
X121895000Y-64362533D01*
X121895000Y-64362533D02*
X121961667Y-64429200D01*
X121961667Y-64429200D02*
X122028333Y-64562533D01*
X122028333Y-64562533D02*
X122028333Y-64629200D01*
X122028333Y-64629200D02*
X121961667Y-64762533D01*
X121961667Y-64762533D02*
X121895000Y-64829200D01*
X121895000Y-64829200D02*
X121761667Y-64895866D01*
X121761667Y-64895866D02*
X121495000Y-64895866D01*
X121495000Y-64895866D02*
X121361667Y-64962533D01*
X121361667Y-64962533D02*
X121295000Y-65029200D01*
X121295000Y-65029200D02*
X121228333Y-65162533D01*
X121228333Y-65162533D02*
X121228333Y-65429200D01*
X121228333Y-65429200D02*
X121295000Y-65562533D01*
X121295000Y-65562533D02*
X121361667Y-65629200D01*
X121361667Y-65629200D02*
X121495000Y-65695866D01*
X121495000Y-65695866D02*
X121761667Y-65695866D01*
X121761667Y-65695866D02*
X121895000Y-65629200D01*
X121895000Y-65629200D02*
X121961667Y-65562533D01*
X121961667Y-65562533D02*
X122028333Y-65429200D01*
X122028333Y-65429200D02*
X122028333Y-65162533D01*
X122028333Y-65162533D02*
X121961667Y-65029200D01*
X121961667Y-65029200D02*
X121895000Y-64962533D01*
X121895000Y-64962533D02*
X121761667Y-64895866D01*
X109414819Y-128508094D02*
X108414819Y-128508094D01*
X108414819Y-128508094D02*
X108414819Y-128269999D01*
X108414819Y-128269999D02*
X108462438Y-128127142D01*
X108462438Y-128127142D02*
X108557676Y-128031904D01*
X108557676Y-128031904D02*
X108652914Y-127984285D01*
X108652914Y-127984285D02*
X108843390Y-127936666D01*
X108843390Y-127936666D02*
X108986247Y-127936666D01*
X108986247Y-127936666D02*
X109176723Y-127984285D01*
X109176723Y-127984285D02*
X109271961Y-128031904D01*
X109271961Y-128031904D02*
X109367200Y-128127142D01*
X109367200Y-128127142D02*
X109414819Y-128269999D01*
X109414819Y-128269999D02*
X109414819Y-128508094D01*
X108414819Y-127031904D02*
X108414819Y-127508094D01*
X108414819Y-127508094D02*
X108891009Y-127555713D01*
X108891009Y-127555713D02*
X108843390Y-127508094D01*
X108843390Y-127508094D02*
X108795771Y-127412856D01*
X108795771Y-127412856D02*
X108795771Y-127174761D01*
X108795771Y-127174761D02*
X108843390Y-127079523D01*
X108843390Y-127079523D02*
X108891009Y-127031904D01*
X108891009Y-127031904D02*
X108986247Y-126984285D01*
X108986247Y-126984285D02*
X109224342Y-126984285D01*
X109224342Y-126984285D02*
X109319580Y-127031904D01*
X109319580Y-127031904D02*
X109367200Y-127079523D01*
X109367200Y-127079523D02*
X109414819Y-127174761D01*
X109414819Y-127174761D02*
X109414819Y-127412856D01*
X109414819Y-127412856D02*
X109367200Y-127508094D01*
X109367200Y-127508094D02*
X109319580Y-127555713D01*
X159666666Y-131834819D02*
X159666666Y-132549104D01*
X159666666Y-132549104D02*
X159619047Y-132691961D01*
X159619047Y-132691961D02*
X159523809Y-132787200D01*
X159523809Y-132787200D02*
X159380952Y-132834819D01*
X159380952Y-132834819D02*
X159285714Y-132834819D01*
X160571428Y-131834819D02*
X160380952Y-131834819D01*
X160380952Y-131834819D02*
X160285714Y-131882438D01*
X160285714Y-131882438D02*
X160238095Y-131930057D01*
X160238095Y-131930057D02*
X160142857Y-132072914D01*
X160142857Y-132072914D02*
X160095238Y-132263390D01*
X160095238Y-132263390D02*
X160095238Y-132644342D01*
X160095238Y-132644342D02*
X160142857Y-132739580D01*
X160142857Y-132739580D02*
X160190476Y-132787200D01*
X160190476Y-132787200D02*
X160285714Y-132834819D01*
X160285714Y-132834819D02*
X160476190Y-132834819D01*
X160476190Y-132834819D02*
X160571428Y-132787200D01*
X160571428Y-132787200D02*
X160619047Y-132739580D01*
X160619047Y-132739580D02*
X160666666Y-132644342D01*
X160666666Y-132644342D02*
X160666666Y-132406247D01*
X160666666Y-132406247D02*
X160619047Y-132311009D01*
X160619047Y-132311009D02*
X160571428Y-132263390D01*
X160571428Y-132263390D02*
X160476190Y-132215771D01*
X160476190Y-132215771D02*
X160285714Y-132215771D01*
X160285714Y-132215771D02*
X160190476Y-132263390D01*
X160190476Y-132263390D02*
X160142857Y-132311009D01*
X160142857Y-132311009D02*
X160095238Y-132406247D01*
X150454819Y-62642857D02*
X149978628Y-62976190D01*
X150454819Y-63214285D02*
X149454819Y-63214285D01*
X149454819Y-63214285D02*
X149454819Y-62833333D01*
X149454819Y-62833333D02*
X149502438Y-62738095D01*
X149502438Y-62738095D02*
X149550057Y-62690476D01*
X149550057Y-62690476D02*
X149645295Y-62642857D01*
X149645295Y-62642857D02*
X149788152Y-62642857D01*
X149788152Y-62642857D02*
X149883390Y-62690476D01*
X149883390Y-62690476D02*
X149931009Y-62738095D01*
X149931009Y-62738095D02*
X149978628Y-62833333D01*
X149978628Y-62833333D02*
X149978628Y-63214285D01*
X150454819Y-61690476D02*
X150454819Y-62261904D01*
X150454819Y-61976190D02*
X149454819Y-61976190D01*
X149454819Y-61976190D02*
X149597676Y-62071428D01*
X149597676Y-62071428D02*
X149692914Y-62166666D01*
X149692914Y-62166666D02*
X149740533Y-62261904D01*
X150454819Y-61214285D02*
X150454819Y-61023809D01*
X150454819Y-61023809D02*
X150407200Y-60928571D01*
X150407200Y-60928571D02*
X150359580Y-60880952D01*
X150359580Y-60880952D02*
X150216723Y-60785714D01*
X150216723Y-60785714D02*
X150026247Y-60738095D01*
X150026247Y-60738095D02*
X149645295Y-60738095D01*
X149645295Y-60738095D02*
X149550057Y-60785714D01*
X149550057Y-60785714D02*
X149502438Y-60833333D01*
X149502438Y-60833333D02*
X149454819Y-60928571D01*
X149454819Y-60928571D02*
X149454819Y-61119047D01*
X149454819Y-61119047D02*
X149502438Y-61214285D01*
X149502438Y-61214285D02*
X149550057Y-61261904D01*
X149550057Y-61261904D02*
X149645295Y-61309523D01*
X149645295Y-61309523D02*
X149883390Y-61309523D01*
X149883390Y-61309523D02*
X149978628Y-61261904D01*
X149978628Y-61261904D02*
X150026247Y-61214285D01*
X150026247Y-61214285D02*
X150073866Y-61119047D01*
X150073866Y-61119047D02*
X150073866Y-60928571D01*
X150073866Y-60928571D02*
X150026247Y-60833333D01*
X150026247Y-60833333D02*
X149978628Y-60785714D01*
X149978628Y-60785714D02*
X149883390Y-60738095D01*
X131109580Y-68166666D02*
X131157200Y-68214285D01*
X131157200Y-68214285D02*
X131204819Y-68357142D01*
X131204819Y-68357142D02*
X131204819Y-68452380D01*
X131204819Y-68452380D02*
X131157200Y-68595237D01*
X131157200Y-68595237D02*
X131061961Y-68690475D01*
X131061961Y-68690475D02*
X130966723Y-68738094D01*
X130966723Y-68738094D02*
X130776247Y-68785713D01*
X130776247Y-68785713D02*
X130633390Y-68785713D01*
X130633390Y-68785713D02*
X130442914Y-68738094D01*
X130442914Y-68738094D02*
X130347676Y-68690475D01*
X130347676Y-68690475D02*
X130252438Y-68595237D01*
X130252438Y-68595237D02*
X130204819Y-68452380D01*
X130204819Y-68452380D02*
X130204819Y-68357142D01*
X130204819Y-68357142D02*
X130252438Y-68214285D01*
X130252438Y-68214285D02*
X130300057Y-68166666D01*
X131204819Y-67214285D02*
X131204819Y-67785713D01*
X131204819Y-67499999D02*
X130204819Y-67499999D01*
X130204819Y-67499999D02*
X130347676Y-67595237D01*
X130347676Y-67595237D02*
X130442914Y-67690475D01*
X130442914Y-67690475D02*
X130490533Y-67785713D01*
X121833333Y-107209580D02*
X121785714Y-107257200D01*
X121785714Y-107257200D02*
X121642857Y-107304819D01*
X121642857Y-107304819D02*
X121547619Y-107304819D01*
X121547619Y-107304819D02*
X121404762Y-107257200D01*
X121404762Y-107257200D02*
X121309524Y-107161961D01*
X121309524Y-107161961D02*
X121261905Y-107066723D01*
X121261905Y-107066723D02*
X121214286Y-106876247D01*
X121214286Y-106876247D02*
X121214286Y-106733390D01*
X121214286Y-106733390D02*
X121261905Y-106542914D01*
X121261905Y-106542914D02*
X121309524Y-106447676D01*
X121309524Y-106447676D02*
X121404762Y-106352438D01*
X121404762Y-106352438D02*
X121547619Y-106304819D01*
X121547619Y-106304819D02*
X121642857Y-106304819D01*
X121642857Y-106304819D02*
X121785714Y-106352438D01*
X121785714Y-106352438D02*
X121833333Y-106400057D01*
X122690476Y-106638152D02*
X122690476Y-107304819D01*
X122452381Y-106257200D02*
X122214286Y-106971485D01*
X122214286Y-106971485D02*
X122833333Y-106971485D01*
X163704819Y-70833333D02*
X164419104Y-70833333D01*
X164419104Y-70833333D02*
X164561961Y-70880952D01*
X164561961Y-70880952D02*
X164657200Y-70976190D01*
X164657200Y-70976190D02*
X164704819Y-71119047D01*
X164704819Y-71119047D02*
X164704819Y-71214285D01*
X163800057Y-70404761D02*
X163752438Y-70357142D01*
X163752438Y-70357142D02*
X163704819Y-70261904D01*
X163704819Y-70261904D02*
X163704819Y-70023809D01*
X163704819Y-70023809D02*
X163752438Y-69928571D01*
X163752438Y-69928571D02*
X163800057Y-69880952D01*
X163800057Y-69880952D02*
X163895295Y-69833333D01*
X163895295Y-69833333D02*
X163990533Y-69833333D01*
X163990533Y-69833333D02*
X164133390Y-69880952D01*
X164133390Y-69880952D02*
X164704819Y-70452380D01*
X164704819Y-70452380D02*
X164704819Y-69833333D01*
D13*
%TO.C,SW2*%
X150355000Y-76500000D02*
X150355000Y-75293333D01*
X150425000Y-76500000D02*
X150425000Y-72880000D01*
X149155000Y-76500000D02*
X150425000Y-76500000D01*
X149635000Y-76500000D02*
X149635000Y-75293333D01*
X146615000Y-76500000D02*
X147885000Y-76500000D01*
X150806000Y-78500000D02*
X152076000Y-78500000D01*
X150425000Y-72880000D02*
X149155000Y-72880000D01*
X147575000Y-76500000D02*
X147575000Y-75293333D01*
X149155000Y-72880000D02*
X149155000Y-76500000D01*
X147455000Y-76500000D02*
X147455000Y-75293333D01*
X150235000Y-76500000D02*
X150235000Y-75293333D01*
X148774000Y-70880000D02*
X148266000Y-70880000D01*
X149275000Y-76500000D02*
X149275000Y-75293333D01*
X152076000Y-70880000D02*
X150806000Y-70880000D01*
X146615000Y-75293333D02*
X147885000Y-75293333D01*
X146855000Y-76500000D02*
X146855000Y-75293333D01*
X149155000Y-75293333D02*
X150425000Y-75293333D01*
X149755000Y-76500000D02*
X149755000Y-75293333D01*
X149995000Y-76500000D02*
X149995000Y-75293333D01*
X152076000Y-78500000D02*
X152076000Y-70880000D01*
X147215000Y-76500000D02*
X147215000Y-75293333D01*
X144964000Y-78500000D02*
X144964000Y-70880000D01*
X144964000Y-70880000D02*
X146234000Y-70880000D01*
X146615000Y-72880000D02*
X146615000Y-76500000D01*
X149875000Y-76500000D02*
X149875000Y-75293333D01*
X147885000Y-72880000D02*
X146615000Y-72880000D01*
X147885000Y-76500000D02*
X147885000Y-72880000D01*
X147095000Y-76500000D02*
X147095000Y-75293333D01*
X148266000Y-78500000D02*
X148774000Y-78500000D01*
X147335000Y-76500000D02*
X147335000Y-75293333D01*
X149515000Y-76500000D02*
X149515000Y-75293333D01*
X146975000Y-76500000D02*
X146975000Y-75293333D01*
X149395000Y-76500000D02*
X149395000Y-75293333D01*
X146234000Y-78500000D02*
X144964000Y-78500000D01*
X147815000Y-76500000D02*
X147815000Y-75293333D01*
X146735000Y-76500000D02*
X146735000Y-75293333D01*
X147695000Y-76500000D02*
X147695000Y-75293333D01*
X150115000Y-76500000D02*
X150115000Y-75293333D01*
%TO.C,J7*%
X103830000Y-90490000D02*
X102500000Y-90490000D01*
X103830000Y-89160000D02*
X103830000Y-90490000D01*
X103830000Y-87890000D02*
X103830000Y-75130000D01*
X103830000Y-87890000D02*
X101170000Y-87890000D01*
X103830000Y-75130000D02*
X101170000Y-75130000D01*
X101170000Y-87890000D02*
X101170000Y-75130000D01*
D10*
%TO.C,U1*%
X128820580Y-88985700D02*
G75*
G02*
X128620580Y-88985700I-100000J0D01*
G01*
X128620580Y-88985700D02*
G75*
G02*
X128820580Y-88985700I100000J0D01*
G01*
D14*
X138185000Y-123310000D02*
X138185000Y-123056000D01*
X138185000Y-123310000D02*
X130685000Y-123310000D01*
X138185000Y-87750000D02*
X138185000Y-88004000D01*
X138185000Y-87750000D02*
X130685000Y-87750000D01*
X130685000Y-123310000D02*
X130685000Y-123056000D01*
X130685000Y-87750000D02*
X130685000Y-88004000D01*
%TO.C,D1*%
D13*
X120140000Y-73512000D02*
X124380000Y-73512000D01*
X124380000Y-75752000D01*
X120140000Y-75752000D01*
X120140000Y-73512000D01*
X120980000Y-73512000D02*
X120980000Y-75752000D01*
X120860000Y-73512000D02*
X120860000Y-75752000D01*
X120740000Y-73512000D02*
X120740000Y-75752000D01*
X125030000Y-74632000D02*
X124380000Y-74632000D01*
X119490000Y-74632000D02*
X120140000Y-74632000D01*
%TO.C,TP2*%
X152000000Y-83000000D02*
G75*
G02*
X149000000Y-83000000I-1500000J0D01*
G01*
X149000000Y-83000000D02*
G75*
G02*
X152000000Y-83000000I1500000J0D01*
G01*
%TO.C,R18*%
X144630000Y-58730000D02*
X144630000Y-65270000D01*
X144630000Y-65270000D02*
X147370000Y-65270000D01*
X146000000Y-58120000D02*
X146000000Y-58730000D01*
X146000000Y-65920000D02*
X146000000Y-65270000D01*
X147370000Y-58730000D02*
X144630000Y-58730000D01*
X147370000Y-65270000D02*
X147370000Y-58730000D01*
%TO.C,J4*%
X113380000Y-114170000D02*
X112000000Y-114170000D01*
X113380000Y-112790000D02*
X113380000Y-114170000D01*
X113380000Y-111520000D02*
X113380000Y-101250000D01*
X113380000Y-111520000D02*
X110620000Y-111520000D01*
X113380000Y-101250000D02*
X110620000Y-101250000D01*
X110620000Y-111520000D02*
X110620000Y-101250000D01*
%TO.C,C3*%
X140630000Y-59530000D02*
X140630000Y-64470000D01*
X140900000Y-59530000D02*
X140630000Y-59530000D01*
X140900000Y-64470000D02*
X140630000Y-64470000D01*
X143370000Y-59530000D02*
X143100000Y-59530000D01*
X143370000Y-59530000D02*
X143370000Y-64470000D01*
X143370000Y-64470000D02*
X143100000Y-64470000D01*
%TO.C,TP1*%
X148000000Y-83000000D02*
G75*
G02*
X145000000Y-83000000I-1500000J0D01*
G01*
X145000000Y-83000000D02*
G75*
G02*
X148000000Y-83000000I1500000J0D01*
G01*
%TO.C,J1*%
X106750000Y-72500000D02*
X106750000Y-72000000D01*
X106750000Y-72000000D02*
X106250000Y-72000000D01*
X106750000Y-57500000D02*
X106750000Y-57000000D01*
X106750000Y-57000000D02*
X106250000Y-57000000D01*
X106250000Y-72000000D02*
X106250000Y-72500000D01*
X106250000Y-57000000D02*
X106250000Y-57500000D01*
X105750000Y-72500000D02*
X105750000Y-57500000D01*
X100250000Y-57500000D02*
X100250000Y-72500000D01*
X107250000Y-57500000D02*
X99750000Y-57500000D01*
X99750000Y-72500000D01*
X107250000Y-72500000D01*
X107250000Y-57500000D01*
X101250000Y-70000000D02*
X99750000Y-71000000D01*
X99750000Y-69000000D01*
X101250000Y-70000000D01*
G36*
X101250000Y-70000000D02*
G01*
X99750000Y-71000000D01*
X99750000Y-69000000D01*
X101250000Y-70000000D01*
G37*
X101250000Y-65000000D02*
X99750000Y-66000000D01*
X99750000Y-64000000D01*
X101250000Y-65000000D01*
G36*
X101250000Y-65000000D02*
G01*
X99750000Y-66000000D01*
X99750000Y-64000000D01*
X101250000Y-65000000D01*
G37*
X101250000Y-60000000D02*
X99750000Y-61000000D01*
X99750000Y-59000000D01*
X101250000Y-60000000D01*
G36*
X101250000Y-60000000D02*
G01*
X99750000Y-61000000D01*
X99750000Y-59000000D01*
X101250000Y-60000000D01*
G37*
%TO.C,U4*%
X143860000Y-90250000D02*
X143860000Y-91500000D01*
X143860000Y-93500000D02*
X143860000Y-94750000D01*
X143860000Y-94750000D02*
X154140000Y-94750000D01*
X154140000Y-90250000D02*
X143860000Y-90250000D01*
X154140000Y-94750000D02*
X154140000Y-90250000D01*
X143860000Y-91500000D02*
G75*
G02*
X143860000Y-93500000I0J-1000000D01*
G01*
%TO.C,J3*%
X158620000Y-107310000D02*
X158620000Y-89420000D01*
X161380000Y-89420000D02*
X158620000Y-89420000D01*
X161380000Y-107310000D02*
X158620000Y-107310000D01*
X161380000Y-107310000D02*
X161380000Y-89420000D01*
X161380000Y-108580000D02*
X161380000Y-109960000D01*
X161380000Y-109960000D02*
X160000000Y-109960000D01*
%TO.C,Y1*%
X123040000Y-108690000D02*
X123040000Y-112810000D01*
X126460000Y-108690000D02*
X123040000Y-108690000D01*
%TO.C,R17*%
X118500000Y-113380000D02*
X118500000Y-112770000D01*
X117130000Y-112770000D02*
X119870000Y-112770000D01*
X119870000Y-112770000D02*
X119870000Y-106230000D01*
X117130000Y-106230000D02*
X117130000Y-112770000D01*
X119870000Y-106230000D02*
X117130000Y-106230000D01*
X118500000Y-105580000D02*
X118500000Y-106230000D01*
%TO.C,C21*%
X116250241Y-73339000D02*
X115620241Y-73339000D01*
X115935241Y-73654000D02*
X115935241Y-73024000D01*
X116020000Y-71500000D02*
G75*
G02*
X109480000Y-71500000I-3270000J0D01*
G01*
X109480000Y-71500000D02*
G75*
G02*
X116020000Y-71500000I3270000J0D01*
G01*
%TO.C,C2*%
X147780000Y-99150000D02*
X147780000Y-98880000D01*
X147780000Y-101620000D02*
X147780000Y-101350000D01*
X152720000Y-98880000D02*
X147780000Y-98880000D01*
X152720000Y-99150000D02*
X152720000Y-98880000D01*
X152720000Y-101620000D02*
X147780000Y-101620000D01*
X152720000Y-101620000D02*
X152720000Y-101350000D01*
%TO.C,R14*%
X124880000Y-80810000D02*
X124880000Y-87350000D01*
X124880000Y-87350000D02*
X127620000Y-87350000D01*
X126250000Y-80160000D02*
X126250000Y-80810000D01*
X126250000Y-87960000D02*
X126250000Y-87350000D01*
X127620000Y-80810000D02*
X124880000Y-80810000D01*
X127620000Y-87350000D02*
X127620000Y-80810000D01*
%TO.C,R20*%
X156130000Y-65900000D02*
X156130000Y-72440000D01*
X156130000Y-72440000D02*
X158870000Y-72440000D01*
X157500000Y-65250000D02*
X157500000Y-65900000D01*
X157500000Y-73050000D02*
X157500000Y-72440000D01*
X158870000Y-65900000D02*
X156130000Y-65900000D01*
X158870000Y-72440000D02*
X158870000Y-65900000D01*
%TO.C,C5*%
X124865580Y-115110000D02*
X124584420Y-115110000D01*
X124865580Y-114090000D02*
X124584420Y-114090000D01*
%TO.C,J8*%
X113380000Y-128920000D02*
X112000000Y-128920000D01*
X113380000Y-127540000D02*
X113380000Y-128920000D01*
X113380000Y-126270000D02*
X113380000Y-116000000D01*
X113380000Y-126270000D02*
X110620000Y-126270000D01*
X113380000Y-116000000D02*
X110620000Y-116000000D01*
X110620000Y-126270000D02*
X110620000Y-116000000D01*
D14*
%TO.C,U8*%
X117250000Y-71240000D02*
X117250000Y-66640000D01*
X127650000Y-71240000D02*
X117250000Y-71240000D01*
X117250000Y-66640000D02*
X127650000Y-66640000D01*
X127650000Y-66640000D02*
X127650000Y-71240000D01*
D10*
X120000000Y-71695000D02*
G75*
G02*
X119800000Y-71695000I-100000J0D01*
G01*
X119800000Y-71695000D02*
G75*
G02*
X120000000Y-71695000I100000J0D01*
G01*
D13*
%TO.C,D5*%
X106545000Y-125210000D02*
X103455000Y-125210000D01*
X105000462Y-130760000D02*
G75*
G02*
X103455170Y-125210000I-462J2990000D01*
G01*
X106544830Y-125210000D02*
G75*
G02*
X104999538Y-130760000I-1544830J-2560000D01*
G01*
X107500000Y-127770000D02*
G75*
G02*
X102500000Y-127770000I-2500000J0D01*
G01*
X102500000Y-127770000D02*
G75*
G02*
X107500000Y-127770000I2500000J0D01*
G01*
%TO.C,J6*%
X158620000Y-128730000D02*
X158620000Y-110840000D01*
X161380000Y-110840000D02*
X158620000Y-110840000D01*
X161380000Y-128730000D02*
X158620000Y-128730000D01*
X161380000Y-128730000D02*
X161380000Y-110840000D01*
X161380000Y-130000000D02*
X161380000Y-131380000D01*
X161380000Y-131380000D02*
X160000000Y-131380000D01*
%TO.C,R19*%
X148680000Y-58730000D02*
X148680000Y-65270000D01*
X148680000Y-65270000D02*
X151420000Y-65270000D01*
X150050000Y-58080000D02*
X150050000Y-58730000D01*
X150050000Y-65880000D02*
X150050000Y-65270000D01*
X151420000Y-58730000D02*
X148680000Y-58730000D01*
X151420000Y-65270000D02*
X151420000Y-58730000D01*
%TO.C,C1*%
X132120000Y-70470000D02*
X131850000Y-70470000D01*
X132120000Y-65530000D02*
X132120000Y-70470000D01*
X132120000Y-65530000D02*
X131850000Y-65530000D01*
X129650000Y-70470000D02*
X129380000Y-70470000D01*
X129650000Y-65530000D02*
X129380000Y-65530000D01*
X129380000Y-65530000D02*
X129380000Y-70470000D01*
%TO.C,C4*%
X124609420Y-107360000D02*
X124890580Y-107360000D01*
X124609420Y-106340000D02*
X124890580Y-106340000D01*
%TO.C,J2*%
X165750000Y-57500000D02*
X165750000Y-58000000D01*
X165750000Y-58000000D02*
X166250000Y-58000000D01*
X165750000Y-72500000D02*
X165750000Y-73000000D01*
X165750000Y-73000000D02*
X166250000Y-73000000D01*
X166250000Y-58000000D02*
X166250000Y-57500000D01*
X166250000Y-73000000D02*
X166250000Y-72500000D01*
X166750000Y-57500000D02*
X166750000Y-72500000D01*
X172250000Y-72500000D02*
X172250000Y-57500000D01*
X165250000Y-72500000D02*
X172750000Y-72500000D01*
X172750000Y-57500000D01*
X165250000Y-57500000D01*
X165250000Y-72500000D01*
X172750000Y-61000000D02*
X171250000Y-60000000D01*
X172750000Y-59000000D01*
X172750000Y-61000000D01*
G36*
X172750000Y-61000000D02*
G01*
X171250000Y-60000000D01*
X172750000Y-59000000D01*
X172750000Y-61000000D01*
G37*
X172750000Y-66000000D02*
X171250000Y-65000000D01*
X172750000Y-64000000D01*
X172750000Y-66000000D01*
G36*
X172750000Y-66000000D02*
G01*
X171250000Y-65000000D01*
X172750000Y-64000000D01*
X172750000Y-66000000D01*
G37*
X172750000Y-71000000D02*
X171250000Y-70000000D01*
X172750000Y-69000000D01*
X172750000Y-71000000D01*
G36*
X172750000Y-71000000D02*
G01*
X171250000Y-70000000D01*
X172750000Y-69000000D01*
X172750000Y-71000000D01*
G37*
%TD*%
M02*
